<?xml version="1.0" encoding="UTF-8"?>
<!DOCTYPE svg PUBLIC "-//W3C//DTD SVG 1.1//EN" "http://www.w3.org/Graphics/SVG/1.1/DTD/svg11.dtd">
<!-- Creator: CorelDRAW 2018 (64 Bit) -->
<svg xmlns="http://www.w3.org/2000/svg" xml:space="preserve" width="190px" height="185px" version="1.1" style="shape-rendering:geometricPrecision; text-rendering:geometricPrecision; image-rendering:optimizeQuality; fill-rule:evenodd; clip-rule:evenodd"
viewBox="0 0 190 185"
 xmlns:xlink="http://www.w3.org/1999/xlink"
 aria-hidden="true"
 focusable="false"
 data-prefix="fab"
 data-icon="suse"
 role="img">
 <defs>
  <style type="text/css">
   <![CDATA[
    .fil50 {fill:#111515}
    .fil37 {fill:#145275}
    .fil27 {fill:#182645}
    .fil1 {fill:#1A1E29}
    .fil0 {fill:#1A7D81}
    .fil3 {fill:#1C202B}
    .fil55 {fill:#1D1B26}
    .fil41 {fill:#1E632C}
    .fil16 {fill:#245D83}
    .fil8 {fill:#252C45}
    .fil4 {fill:#253244}
    .fil56 {fill:#272728}
    .fil9 {fill:#293545}
    .fil34 {fill:#343233}
    .fil15 {fill:#35B1BA}
    .fil53 {fill:#35B3C1}
    .fil52 {fill:#39B5BE}
    .fil26 {fill:#464A54}
    .fil47 {fill:#477539}
    .fil12 {fill:#575A78}
    .fil23 {fill:#598A4B}
    .fil5 {fill:#5D6374}
    .fil19 {fill:#5F6477}
    .fil48 {fill:#636778}
    .fil54 {fill:#686E88}
    .fil2 {fill:#72C5ED}
    .fil35 {fill:#73B343}
    .fil42 {fill:#75B83B}
    .fil36 {fill:#78B948}
    .fil24 {fill:#7B7B82}
    .fil44 {fill:#848489}
    .fil25 {fill:#8F8F8F}
    .fil31 {fill:#926E0A}
    .fil45 {fill:#98979B}
    .fil40 {fill:#999AA2}
    .fil7 {fill:#A39DA1}
    .fil21 {fill:#A4BA09}
    .fil29 {fill:#A6A6AA}
    .fil14 {fill:#A7D7E6}
    .fil39 {fill:#ACCB6A}
    .fil33 {fill:#AFCF6E}
    .fil17 {fill:#B0DEF8}
    .fil30 {fill:#B28A0E}
    .fil13 {fill:#B4B5B3}
    .fil18 {fill:#B5DEEF}
    .fil38 {fill:#B7D869}
    .fil46 {fill:#B8D775}
    .fil11 {fill:#BBB9BD}
    .fil10 {fill:#C4BCC3}
    .fil43 {fill:#C5C4CA}
    .fil51 {fill:#CFDBF0}
    .fil32 {fill:#CFEAF5}
    .fil28 {fill:#D1CB0C}
    .fil6 {fill:#D7DCE2}
    .fil22 {fill:#DCDDE1}
    .fil20 {fill:#E7E8EA}
    .fil49 {fill:#F29925}
    .fil57 {fill:#6699FF;fill-rule:nonzero;fill-opacity:0.341176}
   ]]>
  </style>
 </defs>
 <g id="Camada_x0020_1">
  <metadata id="CorelCorpID_0Corel-Layer"/>
  <g id="_2369202618544">
   <path class="fil0" d="M42.327 122.678c0.689,2.788 0.075,9.216 0.293,12.568 -0.758,1.945 0.2,6.144 -0.404,8.64 -4.646,0.833 -8.171,1.177 -12.075,-1.142 -3.389,-2.013 -5.397,-4.915 -6.369,-8.882 -0.363,-2.064 -0.506,-5.233 0.464,-7.865 3.796,-10.304 16.782,-9.885 18.05,-7.85 0.326,1.428 0.22,3.038 0.041,4.531zm-6.316 36.481l6.647 -0.168c-0.455,-5.556 -0.066,-12.361 -0.087,-18.038l-0.053 -36.109c-0.029,-6.599 -1.375,-11.649 6.512,-11.363 -3.108,-7.92 -1.733,-16.642 2.881,-22.176 8.227,-9.868 19.814,-8.616 19.411,-7.782 2.223,-0.866 4.319,-1.749 7.087,-1.352 -0.284,1.055 -0.968,1.478 -1.514,2.525 1.637,0.12 4.09,2.004 5.332,2.824 1.754,1.158 2.661,2.665 4.171,4.061 0.94,-0.559 1.156,-1.21 1.902,-2.115 0.764,1.296 1.732,5.773 0.462,7.023l-0.059 0.51 1.235 1.888c1.365,5.449 0.891,9.402 -1.034,14.572l16.643 -0.053 0.474 -3.372c-1.974,-0.932 -4.928,-2.584 -6.412,-3.878l0.015 -2.851c1.69,-1.298 4.479,-2.849 6.338,-3.831 -0.009,-1.442 -0.183,-2.849 -0.763,-3.937 -7.231,-1.153 -7.124,0.006 -8.435,-3.952l4.415 -6.027 -2 -3.252 -7.782 1.76c-2.172,-3.792 -2.313,0.861 -0.053,-9.268 -0.952,-1.038 -2.194,-1.857 -3.513,-2.198 -0.782,1.06 -2.901,2.265 -3.983,3.132 -5.578,4.472 -5.267,-5.902 -5.846,-7.418l-3.608 -0.661c-1.379,1.772 -2.742,4.5 -3.899,6.392 -5.191,0.107 -3.293,-1.398 -7.018,-6.432l-3.741 0.839 -1.162 7.344c-2.541,1.28 -2.674,1.499 -4.684,-0.148l-4.027 -3.05c-1.674,0.534 -1.446,1.199 -3.231,1.661 0.04,1.895 0.752,4.059 1.219,5.805 0.725,2.708 -0.175,2.359 -1.336,3.917 -2.184,0.134 -4.22,-1.135 -6.592,-1.126 -3.291,3.579 0,0 -3.291,3.579 0.62,0.875 3.975,4.286 4.581,5.151 -0.288,0.829 -0.934,2.303 -1.511,2.754 -1.747,1.06 -5.551,0.204 -7.209,1.47l-0.515 3.667 6.298 3.83 -0.136 3.038 -6.02 3.714c-0.32,1.243 0.08,2.76 0.526,3.905l7.306 1.175 0.635 1.332c0.241,0.599 0.352,0.827 0.568,1.405 -1.279,2.136 -2.995,3.827 -4.341,6.019 0.356,1.177 1.377,2.412 2.108,3.301l3.238 -1.049c0.75,2.047 0.274,4.669 -0.098,6.789 0.879,-1.858 -0.594,-1.761 -1.932,-2.034l-2.193 3.448c-1.603,0.035 -1.537,0.018 -2.251,-1.201l-1.36 -2.025c-0.03,-0.128 -0.12,-0.14 -0.19,-0.201 -2.933,0.395 -1.776,1.333 -2.309,3.566 -0.741,3.096 -3.588,-0.34 -5.352,-0.813l-1.196 0.988c0.099,2.926 1.895,3.175 -0.328,5.028 -1.579,-0.147 -2.589,-0.872 -4.131,-0.595l-0.8 1.268c0.537,1.683 2.617,2.641 1.888,4.435 -0.949,1.179 -2.675,0.584 -4.309,1.257l-0.216 1.911c2.073,1.476 3.265,1.138 3.329,3.706 -0.837,0.537 -2.552,1.647 -3.362,1.931 0.032,2.953 1.39,2.475 4.435,2.803 0.448,2.555 0.484,2.074 -1.883,4.594l0.913 1.87c1.408,-0.143 3.835,-1.279 4.809,-0.368 0.994,0.93 -0.315,3.1 -0.33,4.778 1.504,0.712 1.389,1.203 2.847,0.053 4.649,-3.664 3.096,0.857 4.407,3.195l1.937 0.28c0.499,-1.212 1.246,-2.35 1.935,-3.446l1.664 0.089c1.035,1.357 0.926,1.87 2.07,3.287 1.455,-0.115 1.438,0.006 2.248,-0.768l0.192 9.035c-1.239,-0.051 -5.915,-0.376 -6.583,0.153z"/>
   <path class="fil1" d="M43.857 144.446l0.031 -9.865c-0.314,-7.257 -0.183,-27.86 -0.046,-35.771 0.06,-3.46 1.614,-3.946 4.853,-3.942 2.96,0.005 5.922,-0.024 8.881,-0.009l53.53 0.015c6.003,0.013 31.733,-0.332 35.363,0.126 2.218,1.853 1.845,3.133 1.841,6.36 -0.011,7.592 0.231,55.263 -0.215,57.544l-104.006 -0.001c-0.621,-2.41 -0.119,-11.258 -0.232,-14.457zm44.558 -68.114c-0.609,3.265 -2.274,5.563 -4.47,7.064 -3.247,2.219 -4.757,1.987 -8.986,2.097 -0.924,2.168 -4.764,5.443 -6.191,7.794l-11.642 0.161c1.059,-2.019 2.293,-3.707 3.716,-5.529l-0.415 -0.118c-1.71,1.583 -2.614,4.147 -4.118,5.618l-7.279 0.062c-7.887,-0.286 -6.541,4.764 -6.512,11.363l0.053 36.109c0.021,5.677 -0.368,12.482 0.087,18.038l-6.647 0.168c-2.612,0.264 -3.314,1.741 -3.261,4.6 1.767,0.739 1.383,-0.56 1.737,3.802 1.026,-0.404 0.587,0.018 0.6,-1.903l117.519 -0.001c1.164,-0.004 2.152,0.015 3.298,0.091 1.141,0.074 0.832,0.609 1.132,0.228 0,0.368 -0.047,1.043 -0.022,1.364 0.009,0.113 0.042,0.449 0.064,0.562l0.289 0.923 0.253 -0.703 0.216 -3.729 1.569 -0.634c-0.003,-5.811 -3.371,-4.792 -9.812,-4.814l0.028 -47.48c-0.17,-3.728 0.642,-13.144 -0.688,-15.739 -0.198,-0.742 -0.664,-1.144 -1.439,-1.611 -2.501,-1.506 -5.082,0.135 -7.582,-1.211l-0.616 0.681c-1.812,-0.317 -4.124,-0.34 -5.873,0.047 -3.854,-0.743 -13.256,-0.135 -17.774,-0.212l-7.951 0.068 -2.151 -0.082 -16.643 0.053 -19.335 -0.015c0.929,-2.104 4.638,-5.328 5.654,-7.334 4.228,-0.096 6.162,-0.201 9.121,-2.332 1.714,-1.235 4.204,-4.03 4.359,-6.779l0.059 -0.51c0.035,-1.562 0.213,-0.501 -0.367,-0.956l0.02 0.799z"/>
   <path class="fil2" d="M120.997 111.645l21.08 0.039 0.013 4.038c0.198,3.472 0.413,26.496 -0.138,28.499 -5.172,0.49 -22.696,-0.129 -30.534,0.018 -2.045,0.039 -2.91,0.69 -3.178,-1.067l0.121 -3.476c-1.041,0.479 -1.038,1.311 -1.507,2.391 -0.42,0.97 -0.714,1.526 -1.104,2.392 -0.47,1.041 -1.75,4.187 -2.351,4.951l0.067 6.127c6.901,-0.226 14.293,0.01 21.26,0.01 3.852,0 18.439,0.492 21.071,-0.187 0.764,-1.788 0.189,-32.885 0.284,-37.971 -0.038,-3.58 -0.563,-17.91 0.264,-19.937 -3.01,-1.271 -14.265,0.053 -18.693,-0.536 -0.683,1.93 -2.496,5.444 -3.395,7.427 -0.946,2.088 -2.732,5.215 -3.26,7.282z"/>
   <path class="fil3" d="M34.487 167.561l0.277 1.28c2.246,1.821 2.109,1.733 6.024,1.728 13.38,-0.018 111.891,0.423 114.278,-0.252 1.358,-0.384 1.51,-0.886 2.301,-1.492l-0.289 -0.923c-0.022,-0.113 -0.055,-0.449 -0.064,-0.562 -0.025,-0.321 0.022,-0.996 0.022,-1.364 -0.3,0.381 0.009,-0.154 -1.132,-0.228 -1.146,-0.076 -2.134,-0.095 -3.298,-0.091l-117.519 0.001c-0.013,1.921 0.426,1.499 -0.6,1.903z"/>
   <path class="fil0" d="M34.764 168.841c-1.513,-0.093 -12.113,0.757 -14.003,1.454l-1.262 0.749c0.366,0.323 -0.298,0.022 0.831,0.547 0.996,0.462 6.597,1.102 7.752,1.214 7.733,0.752 20.94,1.313 28.547,1.51 13.195,0.342 26.337,0.511 39.59,0.511 5.247,0 69.747,-0.315 75.813,-3.368 0.728,-0.367 0.267,-0.138 0.618,-0.414 -1.277,-1.331 -8.955,-1.945 -11.408,-2.044 -3.877,-0.156 -3.805,0.238 -3.622,-0.878l-0.253 0.703c-0.791,0.606 -0.943,1.108 -2.301,1.492 -2.387,0.675 -100.898,0.234 -114.278,0.252 -3.915,0.005 -3.778,0.093 -6.024,-1.728z"/>
   <path class="fil0" d="M117.78 72.804c2.255,-1.106 5.588,-3.568 10.19,-1.868 4.425,1.634 5.136,4.441 6.293,6.654l0.162 -0.675c5.42,1.215 8.055,2.409 11.012,5.938 2.935,3.501 5.196,10.833 3.496,12.873 1.33,2.595 0.518,12.011 0.688,15.739 1.33,0.383 3.378,1.442 4.916,1.542 0.508,-0.765 1.265,-1.517 1.676,-2.647 -0.95,-0.835 -1.546,-2.15 -2.189,-3.135 -1.323,-2.027 -0.944,-1.519 0.248,-3.545l5.887 -0.364 0.734 -2.887 -4.652 -3.504 0.129 -2.218c1.523,-0.859 4.073,-1.66 5.26,-2.85l-0.261 -2.753 -5.767 -1.42c-0.631,-2.181 -0.811,-2.326 0.482,-3.729 1.183,-1.285 1.823,-1.52 2.567,-3.184l-1.209 -2.36 -6.166 0.918c-1.834,-2.437 -1.52,-0.989 0.533,-7.427 -1.976,-1.923 -1.702,-2.06 -4.035,-0.722 -2.722,1.56 -2.172,2.355 -5.297,1.034l-0.403 -5.992 -2.756 -0.89 -1.729 2.319c-0.676,0.933 -1.264,1.4 -1.495,2.485l-2.703 -0.253c-2.934,-5.368 -1.711,-5.864 -5.497,-4.873l-1.348 5.364 -3.837 0.093c-0.713,-1.219 -1.926,-2.175 -3.051,-2.878l-2.508 1.358 0.63 3.857z"/>
   <path class="fil4" d="M52.77 150.048c-1.181,-0.02 -1.714,0.099 -2.678,-0.226l0.007 -0.95c0.308,-0.132 -0.179,-0.109 0.818,-0.262l1.909 -0.002 -0.056 1.44zm-2.48 -7.879l2.551 0.024 -0.069 1.378 -2.589 -0.028 0.107 -1.374zm2.519 -2.112l-0.043 1.473 -2.646 -0.26 -0.012 -0.95 1.435 -0.281c0.353,-0.015 0.868,0.02 1.266,0.018zm1.714 -38.59l10.974 0.049c3.068,-0.06 2.659,-0.029 3.04,0.794 -0.522,1.202 0.537,0.593 -1.415,0.84l-12.446 -0.096 -0.153 -1.587zm8.153 53.989c0.991,-2.171 0.251,-0.428 -0.032,-1.17l-7.899 0.16c-0.048,-0.076 -0.087,-0.179 -0.115,-0.242l-0.854 -2.163c-0.025,0.084 -0.079,0.187 -0.101,0.242l-0.849 2.17 -2.757 -0.046 -0.052 -1.624c1.289,-0.76 2.06,-0.399 2.808,-0.11 0.088,-0.067 0.285,-0.1 0.306,-0.127l-0.466 -0.447 -2.49 0.003 0.114 -1.394 2.544 -0.122c0.274,0.593 0.334,0.421 0.066,1.768 0.098,-0.087 0.156,-0.216 0.218,-0.327 2.349,-4.235 0.201,-2.606 0.656,-6.004l-0.38 0.631c-0.065,0.094 -0.212,0.379 -0.266,0.318 -0.058,-0.065 -0.215,0.198 -0.303,0.314 -0.086,0.583 -0.121,0.393 -0.316,0.692l-2.293 -0.079 -0.004 -1.358 2.722 -0.029 0.002 -0.666 -2.852 -0.072 0.006 -1.454 2.73 -0.026 0.433 1.526c0.025,0.073 0.166,0.419 0.208,0.516 0.088,-0.095 0.157,-0.217 0.218,-0.321l0.367 -0.601c0.047,-0.097 0.077,-0.173 0.114,-0.268l0.103 -0.463c0.029,-0.155 0.057,-1.067 0.071,-1.243 0.181,-2.19 -0.05,-1.94 -0.23,-2.355 -0.36,-0.826 0.004,-1.443 -0.077,-1.843 -0.045,-0.226 -0.365,-0.001 -0.133,-1.208 0.015,-0.082 0.049,-0.184 0.067,-0.263 0.02,-0.088 0.058,-0.217 0.077,-0.293 0.019,-0.079 0.142,-0.536 0.152,-0.641 -0.085,0.085 -0.158,0.208 -0.234,0.274l-0.482 0.416c-0.501,0.332 0.173,0.167 -0.763,0.185l0.122 1.698 -2.618 -0.056 -0.029 -1.373 2.638 -0.027c-0.143,-0.6 -0.05,-1.065 -0.156,-0.684l-2.48 -0.205 -0.027 -1.262 2.521 -0.039c0.099,-0.035 0.05,0.409 0.299,-0.249 0.796,-2.102 0.571,0.717 -0.28,-0.513l-2.526 0.006 0.116 -1.398 2.385 0.007c-0.898,-0.379 -0.135,0.032 -1.417,-0.302 -1.074,-0.281 -0.479,0.462 -1.03,-0.513l0.064 -1.332c0.795,-0.531 -1.159,-1.054 1.266,-0.335l0.318 -0.278 -1.68 -0.196 0.005 -1.229 2.622 -0.013c-0.743,-0.182 -2.004,-0.147 -2.82,-0.552 -0.087,-0.18 -0.082,0.077 -0.321,-0.863 -0.03,-0.115 -0.024,-0.492 -0.024,-0.671 0.152,-0.126 -0.129,-1.443 3.167,-0.365 0.7,-0.491 0.308,-0.149 -0.122,-0.516l-2.53 0.009 0.116 -1.376 2.395 -0.021c-0.517,0.036 -0.536,0.093 -1.126,-0.038 -1.156,-0.257 -0.416,0.417 -1.155,-0.611 -0.241,-0.534 -0.599,-0.798 -0.111,-1.461l1.582 -0.057c2.447,-0.012 0.462,0.141 1.098,-0.63l-2.734 -0.051 -0.263 -1.355c0.846,-0.201 2.206,-0.016 3.017,-0.699l-2.832 -0.204 0.131 -1.342 2.704 0.042c-0.59,-0.486 -0.909,-0.415 -1.75,-0.537 -0.308,-0.044 -0.418,-0.035 -0.768,-0.094l-0.384 -0.127 0.197 -1.39 2.699 0.002c-0.431,-0.318 0.162,-0.087 -0.818,-0.402 -1.307,-0.42 0.689,0.098 -0.613,-0.144 -0.376,-0.07 -0.954,-0.053 -1.266,-0.067l-0.116 -1.482 2.782 -0.017 0.025 -0.663 -2.735 -0.047 -0.317 -1.319c0.094,-0.047 0.928,-0.122 1.618,-0.241l1.178 -0.377c0.058,-0.125 0.188,-0.092 0.265,-0.159 -0.23,0.012 -2.011,0.112 -2.139,0.075 -1.343,-0.387 -0.507,0.649 -0.777,-1.124 0.963,-0.741 -1.326,-0.363 1.454,-0.536 0.28,-0.018 1.167,0.077 1.473,0.093 -0.355,-0.287 -0.031,-0.151 -0.835,-0.393 -1.121,-0.338 0.541,0.08 -0.611,-0.125 -0.36,-0.064 -1.32,-0.121 -1.422,-0.148l-0.057 -1.52 2.905 0.082c-0.18,-0.212 -0.114,-0.58 -1.725,-0.665 -0.424,-0.022 -1.052,0.099 -1.465,0.166 -0.875,-1.768 -0.168,-1.607 -0.135,-1.703 0,1.159 0.013,1.166 0.529,1.721l0.105 -1.668 -0.041 -0.829 -0.276 -1.231c0.919,-0.257 2.22,-0.068 3.022,-0.712 -2.019,0.054 -1.927,0.287 -2.925,-0.45 0.22,-1.359 -0.97,-1.243 2.916,-1.042l-1.409 -0.56c-0.143,-0.021 -1.065,0.02 -1.289,0.02 -0.628,0.757 -0.632,0.471 -0.632,2.214 -0.06,-0.195 -0.13,0.037 -0.15,-0.875 -0.001,-0.096 0.014,-0.363 0.033,-0.445 0.326,-1.419 2.195,-1.21 2.965,-1.211 -0.591,-0.394 0.636,-0.434 -0.143,-0.05 -0.105,0.052 0.505,0.431 1.264,0.285 2.296,-0.441 1.832,-0.142 4.582,-0.221 3.335,-0.096 6.787,-0.014 10.135,-0.014 -0.1,0.041 -0.217,0.074 -0.308,0.096l-10.143 0.216c-0.468,-0.005 -1.515,-0.054 -1.921,-0.011l-1.177 0.309c-0.056,-0.082 -0.188,0.074 -0.272,0.129l-0.43 1.476c0.599,0.497 0.057,0.208 0.927,0.507 1.489,0.511 13.183,-0.27 14.274,0.281l4.803 0.135c0.095,-0.039 0.21,-0.07 0.292,-0.089l12.317 -0.202 -0.23 -0.471 -12.748 0.001c-3.766,0.024 -3.486,0.3 -3.495,-0.795 0.327,-1.044 -0.526,-0.725 1.553,-0.837l15.586 0.08 -0.021 0c0.921,-1.22 1.545,-3.144 2.304,-4.323 -2.221,-0.476 -40.531,-0.504 -43.169,-0.047l-0.33 0.215c-0.36,4.454 -0.076,23.039 -0.076,28.985 0,4.036 -0.856,27.227 0.4,28.838 1.173,0.689 14.077,0.575 16.196,0.235z"/>
   <path class="fil5" d="M88.633 130.5c-1.034,0.704 -11.053,0.505 -12.173,0.17l0.018 -1.256 12.143 0.136 0.012 0.95zm-3.422 -5.408l3.437 0.026 -0.051 1.373 -3.326 -0.014 -0.06 -1.385zm6.051 -2.996c-0.049,-0.108 -0.158,-0.098 -0.24,-0.148l0.021 -1.07 2.844 -0.01 0.066 1.376c-0.471,0.048 -1.078,0.136 -1.552,0.116l-1.139 -0.264zm-0.743 -1.861c-1.644,-0.007 -9.822,0.43 -10.771,-0.504 0.287,-1.701 -0.604,-0.985 1.222,-1.199l12.103 0.034c1.287,0.35 0.749,-0.509 0.873,1.165 -0.557,0.583 0.223,0.096 -0.655,0.383 -0.343,0.112 -0.487,0.109 -0.847,0.136 -0.429,0.031 -1.432,-0.013 -1.925,-0.015zm-19.349 -0.029c-2.255,0.013 -1.761,-0.299 -1.936,-0.792 0.438,-0.629 -0.241,-0.863 2.264,-0.807 0.859,0.02 1.687,0.036 2.549,0.032 0.846,-0.004 1.72,-0.046 2.556,-0.047 2.296,-0.003 1.838,0.355 2.037,0.822 -0.329,0.716 0.066,0.835 -2.365,0.783l-5.105 0.009zm9.582 -3.55c0.718,-0.161 7.217,-0.536 8.344,0.224 -0.146,1.47 0.268,1.086 -1.385,1.137l-6.867 -0.13 -0.092 -1.231zm13.173 -2.194l-0.002 1.47 -9.17 -0.047 -0.01 -1.222c0.076,-0.034 0.178,-0.068 0.236,-0.082 0.059,-0.015 0.17,-0.058 0.245,-0.073 1.395,-0.283 -1.14,0.084 0.544,-0.091l8.157 0.045zm2.849 -10.72l3.052 0.106 -0.124 1.388 -2.936 -0.089 0.008 -1.405zm-9.423 -2.189l1.697 -0.011c-0.061,2.158 0.321,1.46 -2.103,1.579l-0.469 -0.017 0.23 0.471 0.23 0.172 7.363 0.146 0.015 1.309 -8.361 0.036 -0.268 -0.031 -0.048 0.598 8.324 0.089 -0.045 1.467 -8.99 -0.054 -0.425 0.587 5.101 0.07 -0.039 1.418 -5.569 0.073c-1.925,1.701 -6.736,0.222 -9.042,0.744l8.398 -0.13c2.886,-0.099 5.858,-0.057 8.751,-0.046 1.37,0.005 2.748,0.017 4.118,0.003 3.751,-0.041 3.681,-0.442 3.675,0.836 -0.422,1.163 1.042,0.732 -1.731,0.861l-15.28 -0.113 -7.93 -0.098c0.925,0.203 2.617,0.061 3.844,0.059 1.07,-0.002 2.332,-0.165 3.19,0.164 1.201,0.46 -0.019,-0.935 0.927,0.645l12.759 0.065 -0.088 1.334 -13.874 -0.18 -0.02 0.79 1.826 0.055 -0.003 1.39 -2.552 0.064 -0.163 -0.008 -0.047 0.766c-0.226,0.326 -0.283,0.47 -0.515,0.735 -0.506,0.576 0.021,0.088 -0.619,0.566l0.056 0.04c-0.113,1.481 -0.174,0.618 -0.511,2.19l-0.575 -0.97c-0.032,-0.075 -0.076,-0.432 -0.107,-0.564l-9.247 0.108 0.058 1.306 7.302 0.042c0.718,-0.006 2.018,0.115 2.284,0.688l10.527 0.094 0.068 1.407 -11.521 0.018 -0.139 -0.038 -0.074 0.635 16.2 0.091 -0.04 1.391 -15.452 0.023c-1.188,-0.214 -0.981,0.498 -0.969,-0.968 -0.356,0.66 -0.541,1.104 -1.017,1.602l7.593 0.154 -0.045 1.293 -7.923 0.057c-1.718,1.51 -5.133,-0.173 -7.025,0.864 1.687,-0.435 4.582,-0.292 6.359,-0.087 1.927,-0.451 4.799,-0.189 6.862,-0.185l5.399 0.01c1.016,0.261 0.635,-0.181 0.946,0.809 -0.373,1.215 0.831,0.573 -1.238,0.846l-12.391 -0.126 -5.929 -0.145c0.734,0.344 1.778,0.254 2.754,0.236 1.335,-0.025 2.535,-0.259 3.205,0.547l-0.036 1.572 -1.166 -0.11 -0.076 0.702 20.191 0.028 0.001 1.201c-1.539,0.664 -17.419,-0.01 -20.87,0.292 -0.805,0.506 -0.116,0.009 -0.503,0.616l5.95 -0.028 -0.119 1.609c1.312,-0.302 0.116,-0.253 1.477,-0.052l-0.14 -1.52 13.948 -0.037c0.036,0.088 0.069,0.132 0.078,0.253l0.237 1.211c-2.791,0.7 -4.504,-0.557 -6.332,0.823 0,2.822 -0.057,0.754 0.66,1.583l-0.122 -1.726 7.672 -0.067 -0.202 1.793c0.464,-0.944 0.841,-2.109 1.431,-3.26 0.602,-1.176 0.915,-1.984 1.506,-3.233 0.83,-1.754 1.998,-4.913 3.062,-6.354l0.03 -0.553c0.319,-4.125 0.03,-9.561 0.03,-13.84 0,-2.559 -0.71,-11.746 0.335,-13.174 -5.563,-0.25 -54.131,-0.574 -55.584,0.129 2.638,-0.457 40.948,-0.429 43.169,0.047 -0.759,1.179 -1.383,3.103 -2.304,4.323z"/>
   <path class="fil6" d="M118.154 141.774c-1.051,-0.137 0.048,0.189 -0.698,-0.188l0.021 -1.311 15.466 0.07 -0.077 1.439 -14.712 -0.01zm0.009 -2.324c-0.947,-0.039 -0.046,0.099 -0.69,-0.079l-0.084 -1.413 15.697 -0.007 -0.214 1.418 -14.709 0.081zm17.791 -5.784l0.009 1.904c-0.512,1.35 0.465,0.498 -1.104,0.926l-20.145 -0.126c-0.353,-0.825 -0.501,-2.171 0.018,-3.461l19.204 -0.14c2.177,-0.004 1.737,0.307 2.018,0.897zm-18.828 -14.313l19.989 -0.144c2.606,0.319 2.441,2.666 1.653,4.488 -1.109,1.234 -14.564,0.666 -18.16,0.671 -2.123,0.003 -5.51,0.383 -5.377,-0.753 -2.806,0.143 -3.144,-2.148 -1.595,-3.533l0 -0.51 -1.578 0.477 0 3.327c1.532,0.638 1.194,0.816 3.077,0.827l-0.228 1.231c-1.843,0 -0.308,-0.138 -0.949,0.649 4.147,-0.387 22.398,-0.833 24.852,0.428 0.882,2.778 0.551,4.449 -2.357,4.475 -5.083,0.046 -21.061,0.432 -23.821,-0.595 -0.589,0.536 -4.308,7.499 -4.13,8.912l0.414 4.392c2.062,0.708 27.305,0.141 31.769,0.141l-32.445 -0.664c0.268,1.757 1.133,1.106 3.178,1.067 7.838,-0.147 25.362,0.472 30.534,-0.018 0.551,-2.003 0.336,-25.027 0.138,-28.499l-1.66 0.12c-0.702,0.556 -1.405,0.324 -3.029,0.31l-17.057 0.097c-3.162,0.409 -1.518,1.566 -3.218,3.104z"/>
   <path class="fil7" d="M43.888 134.581l-0.031 9.865c0.717,1.329 0.297,12.224 0.379,13.915l103.662 0.094 0.017 -42.076c-1.157,0.466 -0.95,0.525 -1.834,1.03 -0.095,5.086 0.48,36.183 -0.284,37.971 -2.632,0.679 -17.219,0.187 -21.071,0.187 -6.967,0 -14.359,-0.236 -21.26,-0.01l-0.297 0.01 -2.279 0.101 -9.826 -0.146 -3.688 0.025 -24.7 -0.091c-2.119,0.34 -15.023,0.454 -16.196,-0.235 -1.256,-1.611 -0.4,-24.802 -0.4,-28.838 0,-5.946 -0.284,-24.531 0.076,-28.985l-0.339 38.169c-0.852,-0.809 -0.597,-0.933 -1.929,-0.986z"/>
   <path class="fil8" d="M66.937 123.849c0.3,-1.491 -0.369,-0.856 4.575,-0.909 5.131,-0.055 4.483,-0.506 4.556,1.225 -1.012,0.451 -5.743,0.277 -7.112,0.287 -2.087,0.017 -1.556,-0.255 -2.019,-0.603zm-7.305 -0.77c1.113,-0.236 2.16,-0.127 3.33,-0.141 0.238,-0.002 1.518,-0.052 1.631,-0.038 1.647,0.208 0.833,-0.345 1.121,0.949 -0.467,0.693 -0.153,0.491 -1.134,0.615 -0.095,0.011 -1.403,-0.014 -1.619,-0.016 -1.111,-0.007 -2.266,0.052 -3.339,-0.145l0.01 -1.224zm0.046 -2.161c1.494,-0.263 11.728,-0.291 12.759,0.08l0.026 0.95c-0.713,0.524 -1.923,0.401 -2.844,0.387 -2.613,-0.039 -8.106,0.17 -10.046,-0.133l0.105 -1.284zm-0.161 -2.229l8.598 -0.077 0.004 1.47 -8.483 0.124 -0.119 -1.517zm-4.842 -0.858l-0.045 -0.951c0.63,-0.461 -0.643,-0.141 1.041,-0.415 0.203,-0.033 1.016,-0.029 1.262,-0.027 1.845,0.013 6.206,-0.114 7.49,0.209l-0.078 1.237c-1.672,0.299 -8.44,0.452 -9.67,-0.053zm8.367 -2.534c0.331,-1.46 -0.984,-0.942 4.036,-0.899 3.002,0.025 4.522,-0.621 4.267,0.899 -0.488,0.838 0.454,0.108 -0.544,0.488l-5.642 0.174c-2.125,0.03 -1.686,-0.321 -2.117,-0.662zm-3.4 -0.797l2.701 -0.17 0.031 1.576 -2.805 -0.053 0.073 -1.353zm5.887 -2.054l14.145 -0.135 0.045 1.396 -14.216 0.083 0.026 -1.344zm-0.004 -1.267l-0.02 -0.634c0.851,-0.85 5.046,-0.608 6.36,-0.558 2.423,0.091 1.285,-0.19 1.708,0.875 -0.444,1.083 0.675,0.767 -1.709,0.851l-4.492 -0.019c-2.922,-0.048 -0.937,0.004 -1.644,-0.36 -0.053,-0.027 -0.143,-0.095 -0.203,-0.155zm11.771 -2.321c-0.193,0.927 0.011,0.528 -1.292,0.629l-12.117 -0.208 -0.038 -0.951c0.973,-0.702 5.4,-0.399 7.03,-0.399 3.395,0.001 6.748,-0.664 6.417,0.929zm-17.503 -0.933l3.258 0.039 -0.183 1.555 -3.261 -0.137 0.186 -1.457zm19.802 -1.18c-0.569,0.929 0.545,0.322 -1.095,0.627l-18.858 -0.168 -0.044 -1.239 15.716 -0.133c2.878,0.024 4.534,-0.577 4.281,0.913zm-26.607 -5.16l0.009 1.492c-0.802,0.644 -2.103,0.455 -3.022,0.712l2.786 -0.037 0.072 1.458 -2.582 -0.19 0.041 0.829 2.51 0.039 -0.012 1.385 -2.603 0.244c-0.516,-0.555 -0.529,-0.562 -0.529,-1.721 -0.033,0.096 -0.74,-0.065 0.135,1.703 0.413,-0.067 1.041,-0.188 1.465,-0.166 1.611,0.085 1.545,0.453 1.725,0.665l-0.263 1.423 -2.585 0.015c0.102,0.027 1.062,0.084 1.422,0.148 1.152,0.205 -0.51,-0.213 0.611,0.125 0.804,0.242 0.48,0.106 0.835,0.393l-0.011 1.492c-0.077,0.067 -0.207,0.034 -0.265,0.159l-1.178 0.377c-0.69,0.119 -1.524,0.194 -1.618,0.241l2.78 -0.077 0.272 1.443 -0.025 0.663 -0.157 1.496 -2.509 0.003c0.312,0.014 0.89,-0.003 1.266,0.067 1.302,0.242 -0.694,-0.276 0.613,0.144 0.98,0.315 0.387,0.084 0.818,0.402l-0.241 1.469 -2.655 -0.081 0.384 0.127c0.35,0.059 0.46,0.05 0.768,0.094 0.841,0.122 1.16,0.051 1.75,0.537l-0.003 1.504c-0.811,0.683 -2.171,0.498 -3.017,0.699l2.763 -0.023 0.234 1.429c-0.636,0.771 1.349,0.618 -1.098,0.63l-1.582 0.057 2.493 -0.177c1.373,-1.618 -0.014,-1.868 1.391,-1.467 0.64,-1.325 -0.227,-0.651 1.209,-0.944 0.251,-0.051 1.306,0.132 1.519,0.288 1.426,1.045 -0.028,1.125 0.355,2.077 0.316,-0.756 0.343,-1.89 0.361,-2.597 1.492,1.416 -0.042,0.641 1.039,3.261 0.129,0.311 0.164,-0.011 0.214,0.772l-4.709 0c1.632,0.737 6.247,0.062 7.224,0.381 1.392,0.454 0.319,-0.5 1.049,0.776l0.945 -0.223 13.079 -0.049c0.476,-0.498 0.661,-0.942 1.017,-1.602l0.261 -0.537 0.074 -0.635c-1.385,0.093 -2.975,0.281 -3.911,-0.33l0.021 -0.95 4.873 -0.166 0.082 -0.035c-0.266,-0.573 -1.566,-0.694 -2.284,-0.688l-7.302 -0.042 -0.058 -1.306 9.247 -0.108c0.031,0.132 0.075,0.489 0.107,0.564l0.575 0.97c0.337,-1.572 0.398,-0.709 0.511,-2.19l-13.932 -0.019 -0.007 -1.4 14.021 -0.1 -0.138 1.479c0.64,-0.478 0.113,0.01 0.619,-0.566 0.232,-0.265 0.289,-0.409 0.515,-0.735l0.047 -0.766 -7.673 -0.002 0.021 -1.449 8.544 -0.05 0.02 -0.79c-0.32,-0.546 -0.274,-0.212 -0.196,-1.237l1.399 0.018c-0.946,-1.58 0.274,-0.185 -0.927,-0.645 -0.858,-0.329 -2.12,-0.166 -3.19,-0.164 -1.227,0.002 -2.919,0.144 -3.844,-0.059l-0.001 -1.313c2.306,-0.522 7.117,0.957 9.042,-0.744l-5.388 -0.081 -0.003 -1.445 5.725 0.061 0.173 -0.096 0.425 -0.587c-1.329,0.027 -3.27,0.261 -4.244,-0.246l-0.017 -0.95c1.003,-0.504 3.696,-0.258 4.992,-0.261l-0.02 -0.045 0.048 -0.598 -10.451 -0.081 0.012 -1.357 11.469 -0.011 0.221 -0.011 -0.23 -0.172 -12.317 0.202c-0.082,0.019 -0.197,0.05 -0.292,0.089l-0.051 1.364 -14.458 -0.158 0.112 -1.295 9.594 -0.046c-1.091,-0.551 -12.785,0.23 -14.274,-0.281 -0.87,-0.299 -0.328,-0.01 -0.927,-0.507l0.43 -1.476c0.084,-0.055 0.216,-0.211 0.272,-0.129l1.177 -0.309c0.406,-0.043 1.453,0.006 1.921,0.011l10.143 -0.216c0.091,-0.022 0.208,-0.055 0.308,-0.096 -3.348,0 -6.8,-0.082 -10.135,0.014 -2.75,0.079 -2.286,-0.22 -4.582,0.221 -0.759,0.146 -1.369,-0.233 -1.264,-0.285 0.779,-0.384 -0.448,-0.344 0.143,0.05 -0.77,0.001 -2.639,-0.208 -2.965,1.211 -0.019,0.082 -0.034,0.349 -0.033,0.445 0.02,0.912 0.09,0.68 0.15,0.875 0,-1.743 0.004,-1.457 0.632,-2.214 0.224,0 1.146,-0.041 1.289,-0.02l1.409 0.56z"/>
   <path class="fil9" d="M50.003 128.867l0.038 -1.746 2.792 0.116 -0.003 1.473 -2.827 0.157zm2.782 -6.09l-0.008 1.597 -2.374 0.041c0.739,1.028 -0.001,0.354 1.155,0.611 0.59,0.131 0.609,0.074 1.126,0.038l0.019 1.388c0.43,0.367 0.822,0.025 0.122,0.516 -3.296,-1.078 -3.015,0.239 -3.167,0.365 0,0.179 -0.006,0.556 0.024,0.671 0.239,0.94 0.234,0.683 0.321,0.863 0.816,0.405 2.077,0.37 2.82,0.552l-0.007 1.081c-0.317,0.396 0.608,0.259 -0.94,0.357l-0.318 0.278c-2.425,-0.719 -0.471,-0.196 -1.266,0.335l2.511 0.026 -0.058 1.431 -2.517 -0.125c0.551,0.975 -0.044,0.232 1.03,0.513 1.282,0.334 0.519,-0.077 1.417,0.302l0.025 1.385c0.851,1.23 1.076,-1.589 0.28,0.513 -0.249,0.658 -0.2,0.214 -0.299,0.249l-0.014 1.506c0.106,-0.381 0.013,0.084 0.156,0.684l-0.113 -0.242c0.936,-0.018 0.262,0.147 0.763,-0.185l0.482 -0.416c0.076,-0.066 0.149,-0.189 0.234,-0.274 -0.01,0.105 -0.133,0.562 -0.152,0.641 -0.019,0.076 -0.057,0.205 -0.077,0.293 -0.018,0.079 -0.052,0.181 -0.067,0.263 -0.232,1.207 0.088,0.982 0.133,1.208 0.081,0.4 -0.283,1.017 0.077,1.843 0.18,0.415 0.411,0.165 0.23,2.355 -0.014,0.176 -0.042,1.088 -0.071,1.243l-0.103 0.463c-0.037,0.095 -0.067,0.171 -0.114,0.268l-0.367 0.601c-0.061,0.104 -0.13,0.226 -0.218,0.321 -0.042,-0.097 -0.183,-0.443 -0.208,-0.516l-0.433 -1.526 -0.033 1.383 0.149 0.169 -0.002 0.666 -0.109 0.774c0.088,-0.116 0.245,-0.379 0.303,-0.314 0.054,0.061 0.201,-0.224 0.266,-0.318l0.38 -0.631c-0.455,3.398 1.693,1.769 -0.656,6.004 -0.062,0.111 -0.12,0.24 -0.218,0.327 0.268,-1.347 0.208,-1.175 -0.066,-1.768l-0.168 1.513 0.466 0.447c-0.021,0.027 -0.218,0.06 -0.306,0.127 -0.748,-0.289 -1.519,-0.65 -2.808,0.11l2.811 0.077 -0.002 1.593 0.849 -2.17c0.022,-0.055 0.076,-0.158 0.101,-0.242l0.854 2.163c0.028,0.063 0.067,0.166 0.115,0.242l-0.123 -1.599 8.981 -0.07c0.078,-0.063 0.168,-0.268 0.22,-0.205 0.483,0.587 0.364,-0.285 0.516,-0.365l-4.658 -0.167 0.112 -1.357 4.867 -0.034 0.56 -0.548 -5.556 -0.192 0.011 -1.328 6.211 -0.021 0.09 -0.032 0.037 -0.495c-0.668,-0.587 -0.548,-0.152 -0.38,-1.487l1.443 -0.04 0.055 -0.061 0.002 -0.675 0.042 0.042 -1.598 -0.037 -0.051 -1.449 2.11 -0.083 0.603 0.075 0 -0.748 -2.584 -0.014 -0.058 -1.282 3.172 -0.014 0.181 -0.735 -3.39 -0.041 0.014 -1.445 4.164 0.024 0.313 -0.038 -0.073 -0.592 -4.465 -0.086 0.11 -1.378 5.381 -0.055c-0.537,-1.045 0.072,-0.342 -1.07,-0.673 -0.204,-0.06 -1.325,-0.079 -1.593,-0.076 -0.913,0.01 -1.815,0.011 -2.726,-0.015l-0.063 -1.24c0.952,-0.136 2.092,-0.033 3.104,-0.026 0.179,0.001 1.557,0.012 1.6,0.007l1.888 -0.86 -12.495 0.057c-1.244,-0.488 -0.18,-0.398 -1.445,-1.418l0.005 1.958c-0.176,-1.161 0.084,-2.031 0.305,-2.878 -1.282,-0.049 -2.454,-0.435 -3.677,-0.178 -1.456,0.306 -0.273,-0.089 -0.43,0.227 0.124,-0.715 1.845,0.601 3.67,-1.031l-1.76 -0.393c-0.529,-0.03 -1.264,0.015 -1.82,0.015 0.568,0.079 1.453,0.118 2.116,0.102 1.041,-0.024 1.538,-0.099 2.168,-0.582l-4.553 -0.012 0.062 -1.572c2.846,-0.464 10.693,-0.155 14.321,-0.315l0.084 -1.404c-1.084,0.51 -0.471,-0.098 -0.948,0.874 -2.03,0.664 -4.789,0.257 -7.004,0.271l-5.414 0.015c-1.154,-0.265 -0.653,0.255 -1.067,-0.8 0.508,-1.281 -0.58,-0.606 1.371,-0.85l12.252 0.122c-0.416,-0.361 0.057,-0.155 -0.813,-0.431 -0.395,-0.125 -0.511,-0.117 -0.923,-0.146 -2.298,-0.162 -9.609,0.346 -11.898,-0.071l-0.001 -1.609c2.569,0.102 5.784,-0.348 8.187,0.342 -0.73,-1.276 0.343,-0.322 -1.049,-0.776 -0.977,-0.319 -5.592,0.356 -7.224,-0.381l4.709 0c-0.05,-0.783 -0.085,-0.461 -0.214,-0.772 -1.081,-2.62 0.453,-1.845 -1.039,-3.261 -0.018,0.707 -0.045,1.841 -0.361,2.597 -0.383,-0.952 1.071,-1.032 -0.355,-2.077 -0.213,-0.156 -1.268,-0.339 -1.519,-0.288 -1.436,0.293 -0.569,-0.381 -1.209,0.944 -1.405,-0.401 -0.018,-0.151 -1.391,1.467z"/>
   <path class="fil10" d="M43.888 134.581c1.332,0.053 1.077,0.177 1.929,0.986l0.339 -38.169 0.33 -0.215c1.453,-0.703 50.021,-0.379 55.584,-0.129 -0.516,-0.913 0.72,-0.378 -0.406,-0.689 2.547,-0.342 -0.559,-0.74 4.687,-0.71 11.957,0.069 25.386,-0.248 37.064,0.015 0.152,0.003 1.556,0.018 1.597,0.011 1.653,-0.281 0.586,0.29 1.457,-0.681 -3.63,-0.458 -29.36,-0.113 -35.363,-0.126l-53.53 -0.015c-2.959,-0.015 -5.921,0.014 -8.881,0.009 -3.239,-0.004 -4.793,0.482 -4.853,3.942 -0.137,7.911 -0.268,28.514 0.046,35.771z"/>
   <path class="fil0" d="M129.755 39.238c0.895,0.997 1.216,0.768 1.736,2.08 -0.525,0.422 -1.935,2.01 -2.435,2.613 -0.392,0.472 -1.945,2.111 -2.424,2.408 1.527,0.901 1.973,3.986 1.735,6.081 -0.631,5.546 -6.483,8.83 -11.468,7.082 -1.077,-0.378 -1.963,-0.782 -2.415,-1.565 -0.278,0.227 -1.643,1.617 -1.975,2.078 -0.789,1.091 -0.234,0.921 -1.585,2.141l-0.852 0.965c2.875,-1.017 1.009,-0.468 4.123,0.914l0.056 3.4 2.357 0.512 1.441 -2.695 3.192 -0.187 1.901 2.829 2.045 -0.404 0.177 -3.607c1.327,-0.498 1.464,-0.442 2.539,-1.402 1.163,0.465 1.874,1.098 3.158,1.443l1.463 -1.451c-0.462,-1.075 -1.162,-1.957 -1.456,-2.924 0.129,-0.295 1.238,-2.275 1.368,-2.382 0.773,-0.637 2.432,-0.33 3.477,-0.36l0.517 -2.313 -2.803 -1.654 0.041 -3.21c0.693,-0.335 1.908,-1.011 2.632,-1.8l-0.517 -2.039c-4.643,-0.279 -2.622,0.583 -4.727,-2.713 0.231,-0.748 0.988,-2.303 1.412,-2.807l-1.343 -1.788 -1.37 0.755z"/>
   <path class="fil0" d="M109.637 63.317l-0.973 -0.627c0.134,-1.143 0.392,-1.273 1.168,-1.938 0.262,-0.684 -0.413,-0.007 0.682,-0.87 0.631,-0.497 0.346,-0.038 1.083,-0.789 0.578,-0.588 1.14,-1.512 1.542,-2.213 -2.577,-2.829 -2.938,-7.337 -0.374,-10.86 0.951,-1.307 2.376,-2.479 4.493,-3.096 2.789,-0.812 4.108,0.173 6.481,0.222 1.007,-1.38 2.115,-2.142 3.224,-3.637 -0.046,-0.054 -0.139,-0.193 -0.163,-0.138 -0.025,0.054 -0.134,-0.11 -0.168,-0.133 -1.539,-1.041 -1.278,-0.031 -1.396,-4.028l-2.067 -0.644 -1.845 2.811 -3.221 -0.059 -1.59 -2.708 -2.228 0.475 -0.125 3.242 -2.686 1.748 -2.86 -1.606c-1.41,1.058 -1.123,0.836 -1.542,1.759 1.549,4.018 1.952,1.28 -0.084,5.369l-3.278 0.243 -0.681 1.971c0.857,0.631 1.841,1.383 2.948,1.61l-0.12 3.478 -2.74 1.545 0.451 2.212 3.421 0.234c2.46,3.519 0.864,3.191 0.095,5.51 0.547,0.802 0.606,0.985 1.488,1.539l1.065 -0.622z"/>
   <path class="fil11" d="M62.126 85.841c0.576,0.678 -1.052,1.385 1.338,0.534 0.235,-1.089 1.315,-3.079 2.734,-3.286 1.777,-0.26 2.967,1.057 3.928,2.033 1.942,0.232 3.124,-1.23 4.541,-1.769 2.104,-0.801 5.938,0.392 10.22,-3.465 1.951,-1.759 2.184,-2.499 3.528,-3.556l-0.02 -0.799c0.27,-1.444 0.343,-3.472 -0.412,-4.549 -0.91,0.897 -1.696,2.259 -2.634,3.364 -4.311,5.075 -3.54,7.349 -10.374,2.646 -2.097,-1.444 -5.375,-3.637 -2.802,-7.288 1.464,-2.077 4.247,-5.062 5.104,-7.046 -3.408,0.427 -5.614,1.085 -7.677,2.896 -2.747,2.412 -4.516,7.063 -3.491,11.137 0.425,1.69 1.268,1.882 0.313,3.379 -0.618,0.968 -3.585,5.282 -4.296,5.769z"/>
   <path class="fil12" d="M69.254 154.451c-1.168,-0.244 -0.673,0.168 -1.141,-0.828 0.629,-0.803 -0.13,-0.572 1.138,-0.846l7.97 0.01c3.333,-0.06 2.583,-0.172 2.582,0.834 -0.002,1.453 0.172,0.589 -0.937,0.835 -0.029,0.007 -1.492,-0.006 -1.645,-0.009l-7.967 0.004zm16.449 -2.412c-1.249,0.549 -7.17,0.231 -8.996,0.09l-0.121 -1.468 9.21 0.082 -0.093 1.296zm-19.205 -1.369l8.816 0.075 -0.037 1.412 -8.715 -0.033 -0.064 -1.454zm18.318 -0.583c-1.504,-0.011 -2.824,0.211 -3.875,-0.265l0.03 -0.95c0.826,-0.468 3.301,-0.436 6.082,-0.339 0.263,0.009 0.641,0.031 0.898,0.075 1.079,0.187 0.329,0.036 0.759,0.264l-0.061 0.95c-0.937,0.435 -2.575,0.274 -3.833,0.265zm-6.614 0.035c-1.822,0.01 -7.303,0.208 -8.327,-0.3l-0.006 -0.95c0.751,-0.42 1.561,-0.344 2.588,-0.343l6.923 0.143c0.073,0.015 0.215,0.175 0.266,0.094 0.05,-0.08 0.175,0.062 0.258,0.106 -0.076,1.631 0.21,1.24 -1.702,1.25zm-4.669 -3.655l9.903 0.071 0.024 1.459 -9.963 -0.118 0.036 -1.412zm5.54 -0.551c-1.942,-0.238 -0.847,0.462 -1.396,-0.845 0.819,-1.148 -1.055,-0.571 1.394,-0.882l13.322 0.045c-0.214,2.091 -0.437,1.691 -2.815,1.655l-10.505 0.027zm-3.764 -4.378c-3.911,0.067 -2.795,0.196 -3.004,-0.902 0.488,-0.436 -0.945,-0.584 1.704,-0.671l13.228 0.147 -0.039 1.302c-1.966,0.356 -9.008,0.075 -11.889,0.124zm0.918 -4.172c-1.143,-0.254 -0.655,0.181 -1.067,-0.847 0.811,-1.113 -1.119,-0.601 1.374,-0.874l4.798 0.041c1.056,0.004 2.114,0.021 3.171,-0.006 3.555,-0.089 2.665,-0.185 2.667,0.84 0.003,1.417 0.407,0.707 -1.335,0.877l-9.608 -0.031zm-10.675 -1.456l5.988 -0.077c2.943,-0.375 2.251,0.123 2.523,0.369l0.018 0.633c-0.441,0.39 0.5,0.341 -1.271,0.504 -0.369,0.033 -1.248,-0.017 -1.689,-0.007l-5.506 -0.182c0.911,0.026 1.813,0.025 2.726,0.015 0.268,-0.003 1.389,0.016 1.593,0.076 1.142,0.331 0.533,-0.372 1.07,0.673l10.848 0.06 0.056 1.431 -11.822 0.072 -0.108 -0.044 0.073 0.592 0.913 0.296 -0.075 1.21 -1.694 0.04 -0.245 -0.046 -0.181 0.735c0.077,0.071 0.325,0.839 1.136,1.542 0.059,-2.124 -0.926,-1.718 4.141,-1.679l4.422 0.019c0.095,0.017 0.187,0.044 0.268,0.064l0.474 0.205c0.041,-0.069 0.154,0.073 0.225,0.126l-0.051 1.096 -11.145 -0.063 0 0.748 8.31 0.015 -0.15 1.457 -9.266 -0.02 -0.002 0.675 5.221 0.102 0.013 1.43 -6.138 0.042 -0.214 0.014 -0.037 0.495c0.555,0.018 1.251,-0.018 1.766,0.008l1.395 0.336 -0.029 0.95c-0.957,0.39 -2.833,0.301 -3.888,0.279l-0.56 0.548c0.767,0.734 0.647,-0.979 0.614,1.073 -0.412,0.537 0.399,0.375 -0.935,0.485 -0.152,0.08 -0.033,0.952 -0.516,0.365 -0.052,-0.063 -0.142,0.142 -0.22,0.205 0.533,0.007 1.801,-0.068 2.251,-0.032 2.357,0.187 0.596,-0.098 1.293,0.561l-0.001 0.634c-0.867,0.774 -2.165,0.545 -3.933,0.487l-8.468 0.019 7.899 -0.16c0.283,0.742 1.023,-1.001 0.032,1.17l24.7 0.091 1.183 -3.281 -1.722 -0.039 -0.102 -1.517 2.668 -0.091 0.352 0.03c0.008,-0.908 0.686,-1.955 1.12,-2.68 -1.201,0.065 -2.33,0.016 -3.527,0.034 -1.75,0.027 -2.917,0.312 -3.024,-0.715 0.283,-1.165 -0.369,-0.769 1.399,-0.862l5.587 0.036 1.264 -0.757 -0.109 -2.062 -11.983 -0.156 -0.066 -1.34 12.931 0.01 0.37 0.001 -0.08 -0.633 -5.188 -0.106 -0.018 -1.37 5.863 -0.028 3.846 0.082 0.611 -0.032 -0.406 -0.67 -3.475 -0.113 -11.606 0.038 0.033 -1.223c1.26,-0.513 9.744,-0.151 11.901,-0.18l0.072 0.019 0.146 -0.728c-1.968,0.108 -5.471,-0.449 -7.088,0.254 -0.717,-0.829 -0.66,1.239 -0.66,-1.583 1.828,-1.38 3.541,-0.123 6.332,-0.823l-14.123 0.093c-1.361,-0.201 -0.165,-0.25 -1.477,0.052l-6.135 -0.121 -0.121 -0.055 -1.888 0.86c-0.043,0.005 -1.421,-0.006 -1.6,-0.007 -1.012,-0.007 -2.152,-0.11 -3.104,0.026z"/>
   <path class="fil13" d="M102.07 97.054l1.307 0.021 10.705 -0.103 3.609 0.035 9.961 -0.071c4.428,0.589 15.683,-0.735 18.693,0.536 -0.827,2.027 -0.302,16.357 -0.264,19.937 0.884,-0.505 0.677,-0.564 1.834,-1.03l-0.017 42.076 -103.662 -0.094c-0.082,-1.691 0.338,-12.586 -0.379,-13.915 0.113,3.199 -0.389,12.047 0.232,14.457l104.006 0.001c0.446,-2.281 0.204,-49.952 0.215,-57.544 0.004,-3.227 0.377,-4.507 -1.841,-6.36 -0.871,0.971 0.196,0.4 -1.457,0.681 -0.041,0.007 -1.445,-0.008 -1.597,-0.011 -11.678,-0.263 -25.107,0.054 -37.064,-0.015 -5.246,-0.03 -2.14,0.368 -4.687,0.71 1.126,0.311 -0.11,-0.224 0.406,0.689z"/>
   <path class="fil14" d="M25.129 134.3c0.035,0.002 1.019,0.832 3.298,0.808 3.324,-0.035 11.775,-0.178 14.193,0.138 -0.218,-3.352 0.396,-9.78 -0.293,-12.568 -3.786,-0.79 -5.26,-1.644 -6.923,2.517 -3.102,0.289 -4.631,1.024 -4.292,4.544 -3.17,-0.146 -2.793,0.899 -3.496,1.524 -1.369,1.218 -2.787,-0.443 -2.487,3.037z"/>
   <path class="fil15" d="M23.772 133.862c1.131,0.15 0.738,-0.164 1.357,0.438 -0.3,-3.48 1.118,-1.819 2.487,-3.037 0.703,-0.625 0.326,-1.67 3.496,-1.524 -0.339,-3.52 1.19,-4.255 4.292,-4.544 1.663,-4.161 3.137,-3.307 6.923,-2.517 0.179,-1.493 0.285,-3.103 -0.041,-4.531 -1.268,-2.035 -14.254,-2.454 -18.05,7.85 -0.97,2.632 -0.827,5.801 -0.464,7.865z"/>
   <path class="fil16" d="M121.557 73.87c3.498,-3.109 12.905,1.739 9.968,9.274 -0.45,1.154 -1.285,2.504 -2.266,3.12 -0.668,0.421 -0.409,0.321 -1.057,0.384 -1.151,1.48 -4.131,1.553 -6.03,0.785 -1.786,-0.723 -3.277,-2.113 -4.067,-3.531 -2.268,-4.07 0.287,-9.106 3.452,-10.032zm-3.777 -1.066c-0.543,1.351 -0.489,0.474 -1.276,1.65 -0.213,0.318 -0.646,1.324 -0.801,1.697 -0.934,1.337 -1.324,4.028 -0.934,6.078 0.406,2.131 1.447,3.727 2.32,4.992 1.128,0.601 2.275,2.665 6.037,3.201 2.26,0.322 5.1,-0.267 6.936,-1.441 0.549,-0.351 0.325,-0.097 0.532,-0.487 1.432,-1.015 1.229,-0.988 2.223,-2.097 0.679,-1.417 1.276,-1.86 1.677,-3.804 0.4,-1.936 0.305,-3.13 -0.231,-5.003 -1.157,-2.213 -1.868,-5.02 -6.293,-6.654 -4.602,-1.7 -7.935,0.762 -10.19,1.868z"/>
   <path class="fil17" d="M111.38 111.648l9.617 -0.003c0.528,-2.067 2.314,-5.194 3.26,-7.282 0.899,-1.983 2.712,-5.497 3.395,-7.427l-9.961 0.071c0.055,1.181 -0.821,2.505 -1.329,3.589 -0.701,1.496 -1.086,2.233 -1.717,3.678 -0.951,2.18 -2.656,5.198 -3.265,7.374z"/>
   <path class="fil18" d="M121.557 73.87c-3.165,0.926 -5.72,5.962 -3.452,10.032 0.79,1.418 2.281,2.808 4.067,3.531 1.899,0.768 4.879,0.695 6.03,-0.785 0.351,-0.895 0.418,-0.577 0.642,-0.812 0.051,-0.055 0.128,-0.131 0.178,-0.184l0.598 -0.681c-1.58,1.546 -1.403,1.258 -2.501,1.34l0.731 -1.151c1.824,-2.561 2.629,-5.503 1.105,-8.333 -0.352,-0.655 -0.153,-0.313 -0.658,-0.948 -1.025,-1.29 -1.174,-1.925 -2.157,-2.252 -0.683,-0.226 -1.944,-0.138 -2.808,0.054 -1.954,0.435 -1.344,0.583 -1.775,0.189z"/>
   <path class="fil0" d="M107.698 93.488l7.951 -0.068c-0.117,-1.817 0.343,-4.772 1.44,-6.199 -0.873,-1.265 -1.914,-2.861 -2.32,-4.992 -0.39,-2.05 0,-4.741 0.934,-6.078 -1.542,-0.427 -3.276,-1.262 -4.914,-1.629 -1.143,0.826 -1.106,1.01 -1.864,2.131 0.369,1.074 2,3.812 2.905,4.582 -0.189,1.206 -0.458,1.509 -1.066,2.631l-5.808 0.32 -0.796 2.901c1.514,1.038 3.315,2.267 4.632,3.503l-0.114 2.215 -0.98 0.683z"/>
   <path class="fil17" d="M103.369 120.095c0.845,-0.773 0.867,-1.553 1.476,-2.778l6.561 -14.353c0.969,-2.163 2.037,-3.742 2.676,-5.992l-10.705 0.103 -0.008 23.02z"/>
   <path class="fil19" d="M98.779 138.063c0.115,1.078 0.482,1.349 -0.434,1.338l0.406 0.67 1.092 0.083 0.004 1.326 -2.343 0.081c-0.581,0.99 -0.883,1.726 -1.285,2.534 -1.328,0.41 -1.771,-0.003 -2.86,0.382l2.649 -0.069c0.493,-0.087 0.98,-0.205 1.49,-0.185 2.601,0.103 0.62,-0.114 1.443,0.531 -0.26,1.611 0.686,1.011 -1.418,1.114 -0.512,0.025 -1.402,-0.038 -1.957,-0.046l-2.172 -0.117c1.42,0.403 2.222,-0.583 2.023,0.783l1.878 0.138 -0.126 1.358 -2.692 0.002 -0.128 -0.024c-0.1,1.053 -0.162,1.048 -0.962,2.269l-0.305 0.441 0.918 0.015 -0.139 1.529 -1.311 -0.018 -1.486 3.324 9.826 0.146c0.243,-1.321 0.586,-1.431 0.845,-2.563l-0.064 -20.221c-0.744,0.916 -2.284,4.084 -2.467,5.351l-0.425 -0.172z"/>
   <path class="fil20" d="M108.361 139.696l-0.121 3.476 32.445 0.664c-4.464,0 -29.707,0.567 -31.769,-0.141l-0.414 -4.392c-0.178,-1.413 3.541,-8.376 4.13,-8.912l-0.027 -0.964c0.417,-1.653 -0.131,-1.613 1.019,-2.639l0.334 -0.705c0.641,-0.787 -0.894,-0.649 0.949,-0.649l0.228 -1.231c-1.883,-0.011 -1.545,-0.189 -3.077,-0.827l0 -3.327 1.578 -0.477c0.965,0.186 2.905,0.39 3.49,-0.219 1.7,-1.538 0.056,-2.695 3.218,-3.104l17.057 -0.097c1.624,0.014 2.327,0.246 3.029,-0.31l-31.986 0.089c0.267,1.894 -0.309,3.591 -0.294,5.701 0.016,2.005 0.01,4.012 0.01,6.018 0,3.996 -0.211,8.122 0.201,12.046z"/>
   <path class="fil17" d="M103.434 127.977l-0.035 21.453c0.601,-0.764 1.881,-3.91 2.351,-4.951 0.39,-0.866 0.684,-1.422 1.104,-2.392 0.469,-1.08 0.466,-1.912 1.507,-2.391 -0.412,-3.924 -0.201,-8.05 -0.201,-12.046 0,-2.006 0.006,-4.013 -0.01,-6.018 -0.015,-2.11 0.561,-3.807 0.294,-5.701 -0.502,1.056 0.006,2.015 -0.85,3.763 -0.424,0.865 -0.798,1.609 -1.325,2.775 -0.514,1.137 -1.937,4.733 -2.835,5.508z"/>
   <path class="fil21" d="M109.54 115.928c0.249,-1.32 1.066,-3.234 1.883,-4.335 1.905,-0.215 7.741,-0.369 9.378,0.173 -0.223,0.845 -1.275,3.146 -2.093,4.159l-9.168 0.003zm-1.096 0.003l31.986 -0.089 1.66 -0.12 -0.013 -4.038 -21.08 -0.039 -9.617 0.003 -2.906 0.034c-0.484,1.281 -0.375,2.978 -0.03,4.249z"/>
   <path class="fil2" d="M103.369 120.095l0.065 7.882c0.898,-0.775 2.321,-4.371 2.835,-5.508 0.527,-1.166 0.901,-1.91 1.325,-2.775 0.856,-1.748 0.348,-2.707 0.85,-3.763 -0.345,-1.271 -0.454,-2.968 0.03,-4.249l2.906 -0.034c0.609,-2.176 2.314,-5.194 3.265,-7.374 0.631,-1.445 1.016,-2.182 1.717,-3.678 0.508,-1.084 1.384,-2.408 1.329,-3.589l-3.609 -0.035c-0.639,2.25 -1.707,3.829 -2.676,5.992l-6.561 14.353c-0.609,1.225 -0.631,2.005 -1.476,2.778z"/>
   <path class="fil22" d="M117.449 120.301l0.033 2.953c0.958,0.907 8.497,0.474 9.778,0.474 8.119,0 12.616,1.301 10.692,-3.624 -0.689,-0.173 -17.221,-0.619 -19.57,-0.189 -0.836,0.153 -0.461,-0.041 -0.933,0.386z"/>
   <path class="fil23" d="M101.705 124.068c0.544,-0.7 0.38,-0.508 0.675,-1.307l0.932 -1.693c0.091,1.919 0.149,4.699 0.054,6.595 -0.131,2.588 -1.006,2.717 -1.688,4.66l-0.007 0.561 0.064 20.221c1.081,-1.457 0.262,-1.54 1.562,-2.965l-0.128 5.427 0.297 -0.01 -0.067 -6.127 0.035 -21.453 -0.065 -7.882 0.008 -23.02 -1.307 -0.021c-1.045,1.428 -0.335,10.615 -0.335,13.174 0,4.279 0.289,9.715 -0.03,13.84z"/>
   <path class="fil22" d="M117.636 130.303l20.355 -0.129c0.278,-0.881 0.791,-2.05 0.012,-3.158 -1.37,-0.753 -18.192,-0.662 -20.484,-0.285l0.117 3.572z"/>
   <path class="fil24" d="M63.464 86.375c-2.39,0.851 -0.762,0.144 -1.338,-0.534l-1.284 2.078c-1.423,1.822 -2.657,3.51 -3.716,5.529l11.642 -0.161c-0.818,-0.266 0.041,1.171 -1.055,-0.795 0.906,-0.432 0.195,-0.046 0.961,-0.921 0.238,-0.272 0.34,-0.396 0.75,-0.82 2.6,-2.692 2.814,-5.531 0.75,-5.113 -2.425,0.797 -4.691,0.302 -6.71,0.737z"/>
   <path class="fil25" d="M70.126 85.122l0.048 0.516c2.064,-0.418 1.85,2.421 -0.75,5.113 -0.41,0.424 -0.512,0.548 -0.75,0.82 -0.766,0.875 -0.055,0.489 -0.961,0.921 1.096,1.966 0.237,0.529 1.055,0.795 1.427,-2.351 5.267,-5.626 6.191,-7.794 4.229,-0.11 5.739,0.122 8.986,-2.097 2.196,-1.501 3.861,-3.799 4.47,-7.064 -1.344,1.057 -1.577,1.797 -3.528,3.556 -4.282,3.857 -8.116,2.664 -10.22,3.465 -1.417,0.539 -2.599,2.001 -4.541,1.769z"/>
   <path class="fil16" d="M135.963 135.57l-0.009 -1.904c-2.143,-0.355 -19.381,-0.484 -20.732,0l0 2.099c1.939,0.517 18.535,0.345 20.741,-0.195z"/>
   <path class="fil26" d="M71.322 63.523c-4.023,2.824 -6.794,6.146 -6.071,12.158 0.627,5.205 2.272,1.291 -3.004,9.128 -0.664,0.986 -1.42,1.818 -1.82,2.992l0.415 0.118 1.284 -2.078c0.711,-0.487 3.678,-4.801 4.296,-5.769 0.955,-1.497 0.112,-1.689 -0.313,-3.379 -1.025,-4.074 0.744,-8.725 3.491,-11.137 2.063,-1.811 4.269,-2.469 7.677,-2.896 -0.857,1.984 -3.64,4.969 -5.104,7.046 -2.573,3.651 0.705,5.844 2.802,7.288 6.834,4.703 6.063,2.429 10.374,-2.646 0.938,-1.105 1.724,-2.467 2.634,-3.364 0.755,1.077 0.682,3.105 0.412,4.549 0.58,0.455 0.402,-0.606 0.367,0.956 1.27,-1.25 0.302,-5.727 -0.462,-7.023 -0.746,0.905 -0.962,1.556 -1.902,2.115 -0.549,1.158 -3.262,4.806 -4.246,5.911 -2.456,2.756 -4.65,0.516 -6.508,-0.86 -1.703,-1.261 -5.06,-2.865 -3.083,-6.241l4.334 -5.695c0.546,-1.047 1.23,-1.47 1.514,-2.525 -2.768,-0.397 -4.864,0.486 -7.087,1.352z"/>
   <path class="fil27" d="M67.951 132.084c-0.339,1.291 0.172,0.924 -1.789,0.943l-6.581 -0.133 0.001 -1.327 6.575 -0.161c2.137,0.049 1.712,0.549 1.794,0.678zm-13.7 -5.493c2.289,0.417 9.6,-0.091 11.898,0.071 0.412,0.029 0.528,0.021 0.923,0.146 0.87,0.276 0.397,0.07 0.813,0.431l-0.138 1.242c0.477,-0.972 -0.136,-0.364 0.948,-0.874l-0.084 1.404c-3.628,0.16 -11.475,-0.149 -14.321,0.315l4.292 0 0.199 1.584c-0.63,0.483 -1.127,0.558 -2.168,0.582 -0.663,0.016 -1.548,-0.023 -2.116,-0.102 0.556,0 1.291,-0.045 1.82,-0.015l1.76 0.393c-1.825,1.632 -3.546,0.316 -3.67,1.031 0.157,-0.316 -1.026,0.079 0.43,-0.227 1.223,-0.257 2.395,0.129 3.677,0.178 -0.221,0.847 -0.481,1.717 -0.305,2.878l-0.005 -1.958c1.265,1.02 0.201,0.93 1.445,1.418l-0.09 -1.5 13.065 0.029 -0.055 0.009c0.387,-0.607 -0.302,-0.11 0.503,-0.616 -1.432,-0.06 -2.841,0.182 -3.925,-0.292l-0.011 -0.95c0.854,-0.457 1.176,-0.345 2.373,-0.333 0.77,0.008 1.473,0.009 2.241,0.054l0.076 -0.702 -14.189 -0.045 0.009 -1.377 15.382 -0.04c-0.67,-0.806 -1.87,-0.572 -3.205,-0.547 -0.976,0.018 -2.02,0.108 -2.754,-0.236l-0.008 -1.122c1.892,-1.037 5.307,0.646 7.025,-0.864l-12.673 -0.052 -0.031 -1.403 -0.945 0.223 -0.427 1.237 -7.759 0.03z"/>
   <path class="fil28" d="M109.54 115.928l9.168 -0.003c0.818,-1.013 1.87,-3.314 2.093,-4.159 -1.637,-0.542 -7.473,-0.388 -9.378,-0.173 -0.817,1.101 -1.634,3.015 -1.883,4.335z"/>
   <path class="fil29" d="M113.624 126.788l3.895 -0.057c2.292,-0.377 19.114,-0.468 20.484,0.285 0.779,1.108 0.266,2.277 -0.012,3.158l-20.355 0.129c-0.858,0.002 -1.932,0.08 -2.762,0.027l-1.824 -0.581c-0.069,-0.043 -0.168,-0.121 -0.223,-0.158 -0.056,-0.037 -0.144,-0.115 -0.222,-0.164l0.027 0.964c2.76,1.027 18.738,0.641 23.821,0.595 2.908,-0.026 3.239,-1.697 2.357,-4.475 -2.454,-1.261 -20.705,-0.815 -24.852,-0.428l-0.334 0.705z"/>
   <path class="fil30" d="M126.963 39.509c-1.109,1.495 -2.217,2.257 -3.224,3.637 -0.953,1.787 -3.013,2.699 -3.97,4.932l0.237 -0.222c-0.679,0.45 -0.819,0.734 -1.51,1.242 0.96,1.964 0.628,1.301 2.111,1.897l0.219 -1.256c0.086,-0.714 0.666,-0.366 1,-0.528l2.028 -1.938c1.328,-1.154 1.043,-1.579 1.865,-2.591 1.007,-1.238 0.88,-0.073 2.192,-2.212 0.769,-1.253 -0.048,-0.196 1.11,-1.12 0.582,-0.463 0.675,-0.631 1.178,-1.286 0.429,1.124 -0.028,0.857 1.292,1.254 -0.52,-1.312 -0.841,-1.083 -1.736,-2.08l-0.798 -0.965c-1.413,0.272 -1.145,0.541 -1.994,1.236z"/>
   <path class="fil4" d="M95.676 137.468l-0.26 -0.254 -0.146 0.728 3.509 0.121 0.425 0.172c0.183,-1.267 1.723,-4.435 2.467,-5.351l0.007 -0.561 -0.003 -7.702c-1.064,1.441 -2.232,4.6 -3.062,6.354 -0.591,1.249 -0.904,2.057 -1.506,3.233 -0.59,1.151 -0.967,2.316 -1.431,3.26z"/>
   <path class="fil31" d="M119.769 48.078c-1.204,0.86 -0.879,0.204 -1.647,1.707l1.99 2.529c-1.259,-0.701 -1.052,-0.327 -2.105,0.693l0.097 0.51c0.836,0.223 0.812,0.39 1.554,0.768 0.779,-0.786 0.826,-0.973 1.766,-1.84 0.722,-0.667 1.092,-1.249 1.747,-2.054 1.482,-1.821 2.233,-2.017 3.461,-4.052 0.479,-0.297 2.032,-1.936 2.424,-2.408 0.5,-0.603 1.91,-2.191 2.435,-2.613 -1.32,-0.397 -0.863,-0.13 -1.292,-1.254 -0.503,0.655 -0.596,0.823 -1.178,1.286 -1.158,0.924 -0.341,-0.133 -1.11,1.12 -1.312,2.139 -1.185,0.974 -2.192,2.212 -0.822,1.012 -0.537,1.437 -1.865,2.591l-2.028 1.938c-0.334,0.162 -0.914,-0.186 -1,0.528l-0.219 1.256c-1.483,-0.596 -1.151,0.067 -2.111,-1.897 0.691,-0.508 0.831,-0.792 1.51,-1.242l-0.237 0.222z"/>
   <path class="fil29" d="M113.636 119.572l0 0.51 3.237 -0.184 0.576 0.403c0.472,-0.427 0.097,-0.233 0.933,-0.386 2.349,-0.43 18.881,0.016 19.57,0.189 1.924,4.925 -2.573,3.624 -10.692,3.624 -1.281,0 -8.82,0.433 -9.778,-0.474 -0.949,0.611 -0.961,0.435 -2.251,0.361 -0.133,1.136 3.254,0.756 5.377,0.753 3.596,-0.005 17.051,0.563 18.16,-0.671 0.788,-1.822 0.953,-4.169 -1.653,-4.488l-19.989 0.144c-0.585,0.609 -2.525,0.405 -3.49,0.219z"/>
   <path class="fil32" d="M121.557 73.87c0.431,0.394 -0.179,0.246 1.775,-0.189 0.864,-0.192 2.125,-0.28 2.808,-0.054 0.983,0.327 1.132,0.962 2.157,2.252 0.505,0.635 0.306,0.293 0.658,0.948 1.524,2.83 0.719,5.772 -1.105,8.333l-0.731 1.151c1.098,-0.082 0.921,0.206 2.501,-1.34l-0.598 0.681c-0.05,0.053 -0.127,0.129 -0.178,0.184 -0.224,0.235 -0.291,-0.083 -0.642,0.812 0.648,-0.063 0.389,0.037 1.057,-0.384 0.981,-0.616 1.816,-1.966 2.266,-3.12 2.937,-7.535 -6.47,-12.383 -9.968,-9.274z"/>
   <path class="fil33" d="M73.072 133.01c3.451,-0.302 19.331,0.372 20.87,-0.292l-0.001 -1.201 -20.191 -0.028 -0.678 1.521z"/>
   <path class="fil34" d="M134.285 88.623l-2.142 1.848 -0.847 1.318c1.342,1.046 1.317,0.262 2.127,1.843 1.749,-0.387 4.061,-0.364 5.873,-0.047l0.616 -0.681c-0.597,-1.148 -1.199,-1.48 -2.232,-2.6 -0.988,-1.071 -1.11,-1.746 -1.868,-2.677 -1.169,0.339 -0.813,0.296 -1.527,0.996z"/>
   <path class="fil35" d="M59.642 107.204l18.858 0.168c1.64,-0.305 0.526,0.302 1.095,-0.627 0.253,-1.49 -1.403,-0.889 -4.281,-0.913l-15.716 0.133 0.044 1.239z"/>
   <path class="fil33" d="M82.883 111.61l15.28 0.113c2.773,-0.129 1.309,0.302 1.731,-0.861 0.006,-1.278 0.076,-0.877 -3.675,-0.836 -1.37,0.014 -2.748,0.002 -4.118,-0.003 -2.893,-0.011 -5.865,-0.053 -8.751,0.046 -0.076,0.785 -0.208,1.02 -0.467,1.541z"/>
   <path class="fil36" d="M86.476 103.104l0.469 0.017c0.254,-0.679 0.278,-0.753 0.427,-1.568l-15.586 -0.08c-2.079,0.112 -1.226,-0.207 -1.553,0.837 0.009,1.095 -0.271,0.819 3.495,0.795l12.748 -0.001z"/>
   <path class="fil33" d="M77.677 145.071c0.549,1.307 -0.546,0.607 1.396,0.845l10.505 -0.027c2.378,0.036 2.601,0.436 2.815,-1.655l-13.322 -0.045c-2.449,0.311 -0.575,-0.266 -1.394,0.882z"/>
   <path class="fil37" d="M135.963 135.57c-2.206,0.54 -18.802,0.712 -20.741,0.195l0 -2.099c1.351,-0.484 18.589,-0.355 20.732,0 -0.281,-0.59 0.159,-0.901 -2.018,-0.897l-19.204 0.14c-0.519,1.29 -0.371,2.636 -0.018,3.461l20.145 0.126c1.569,-0.428 0.592,0.424 1.104,-0.926z"/>
   <path class="fil33" d="M79.748 119.731c0.949,0.934 9.127,0.497 10.771,0.504 0.493,0.002 1.496,0.046 1.925,0.015 0.36,-0.027 0.504,-0.024 0.847,-0.136 0.878,-0.287 0.098,0.2 0.655,-0.383 -0.124,-1.674 0.414,-0.815 -0.873,-1.165l-12.103 -0.034c-1.826,0.214 -0.935,-0.502 -1.222,1.199z"/>
   <path class="fil33" d="M77.478 123.45c-0.012,1.466 -0.219,0.754 0.969,0.968l15.452 -0.023 0.04 -1.391 -16.2 -0.091 -0.261 0.537z"/>
   <path class="fil33" d="M72.305 140.636c0.209,1.098 -0.907,0.969 3.004,0.902 2.881,-0.049 9.923,0.232 11.889,-0.124l0.039 -1.302 -13.228 -0.147c-2.649,0.087 -1.216,0.235 -1.704,0.671z"/>
   <path class="fil29" d="M117.456 141.586c0.746,0.377 -0.353,0.051 0.698,0.188l14.712 0.01 0.077 -1.439 -15.466 -0.07 -0.021 1.311z"/>
   <path class="fil29" d="M117.473 139.371c0.644,0.178 -0.257,0.04 0.69,0.079l14.709 -0.081 0.214 -1.418 -15.697 0.007 0.084 1.413z"/>
   <path class="fil36" d="M54.523 101.467l0.153 1.587 12.446 0.096c1.952,-0.247 0.893,0.362 1.415,-0.84 -0.381,-0.823 0.028,-0.854 -3.04,-0.794l-10.974 -0.049z"/>
   <polygon class="fil36" points="73.826,130.787 74.992,130.897 75.028,129.325 59.646,129.365 59.637,130.742 "/>
   <path class="fil36" d="M67.747 128.481l0.138 -1.242 -12.252 -0.122c-1.951,0.244 -0.863,-0.431 -1.371,0.85 0.414,1.055 -0.087,0.535 1.067,0.8l5.414 -0.015c2.215,-0.014 4.974,0.393 7.004,-0.271z"/>
   <path class="fil38" d="M74.998 128.687l12.391 0.126c2.069,-0.273 0.865,0.369 1.238,-0.846 -0.311,-0.99 0.07,-0.548 -0.946,-0.809l-5.399 -0.01c-2.063,-0.004 -4.935,-0.266 -6.862,0.185 -0.115,0.734 -0.17,0.864 -0.422,1.354z"/>
   <path class="fil33" d="M79.877 135.155l14.123 -0.093 -0.237 -1.211c-0.009,-0.121 -0.042,-0.165 -0.078,-0.253l-13.948 0.037 0.14 1.52z"/>
   <polygon class="fil35" points="79.674,117.997 79.618,117.957 79.756,116.478 65.735,116.578 65.742,117.978 "/>
   <path class="fil33" d="M75.16 136.519c0.412,1.028 -0.076,0.593 1.067,0.847l9.608 0.031c1.742,-0.17 1.338,0.54 1.335,-0.877 -0.002,-1.025 0.888,-0.929 -2.667,-0.84 -1.057,0.027 -2.115,0.01 -3.171,0.006l-4.798 -0.041c-2.493,0.273 -0.563,-0.239 -1.374,0.874z"/>
   <polygon class="fil35" points="74.097,103.866 69.294,103.731 59.7,103.777 59.588,105.072 74.046,105.23 "/>
   <path class="fil35" d="M63.849 108.328l0.038 0.951 12.117 0.208c1.303,-0.101 1.099,0.298 1.292,-0.629 0.331,-1.593 -3.022,-0.928 -6.417,-0.929 -1.63,0 -6.057,-0.303 -7.03,0.399z"/>
   <path class="fil35" d="M72.437 120.998c-1.031,-0.371 -11.265,-0.343 -12.759,-0.08l-0.105 1.284c1.94,0.303 7.433,0.094 10.046,0.133 0.921,0.014 2.131,0.137 2.844,-0.387l-0.026 -0.95z"/>
   <polygon class="fil35" points="65.503,113.79 79.719,113.707 79.674,112.311 65.529,112.446 "/>
   <path class="fil33" d="M68.113 153.623c0.468,0.996 -0.027,0.584 1.141,0.828l7.967 -0.004c0.153,0.003 1.616,0.016 1.645,0.009 1.109,-0.246 0.935,0.618 0.937,-0.835 0.001,-1.006 0.751,-0.894 -2.582,-0.834l-7.97 -0.01c-1.268,0.274 -0.509,0.043 -1.138,0.846z"/>
   <polygon class="fil35" points="76.086,126.556 76.461,125.052 63.382,125.101 63.413,126.504 "/>
   <path class="fil35" d="M59.649 135.088l12.495 -0.057 0.121 0.055c0.051,-0.823 0.067,-0.478 0.359,-1.469l-13.065 -0.029 0.09 1.5z"/>
   <path class="fil39" d="M68.239 143.57l11.145 0.063 0.051 -1.096c-0.071,-0.053 -0.184,-0.195 -0.225,-0.126l-0.474 -0.205c-0.081,-0.02 -0.173,-0.047 -0.268,-0.064l-4.422 -0.019c-5.067,-0.039 -4.082,-0.445 -4.141,1.679 -0.811,-0.703 -1.059,-1.471 -1.136,-1.542l-3.172 0.014 0.058 1.282 2.584 0.014z"/>
   <path class="fil33" d="M81.711 113.599l13.874 0.18 0.088 -1.334 -12.759 -0.065 -1.399 -0.018c-0.078,1.025 -0.124,0.691 0.196,1.237z"/>
   <path class="fil33" d="M92.465 143.643l0.484 -0.575c0.267,-0.447 0.259,-0.551 0.398,-0.911l-12.931 -0.01 0.066 1.34 11.983 0.156z"/>
   <path class="fil33" d="M70.086 139.477l11.822 -0.072 -0.056 -1.431 -10.848 -0.06c-0.58,0.588 -0.499,0.567 -0.918,1.563z"/>
   <path class="fil33" d="M76.46 130.67c1.12,0.335 11.139,0.534 12.173,-0.17l-0.012 -0.95 -12.143 -0.136 -0.018 1.256z"/>
   <path class="fil33" d="M94.87 139.288l0.328 -1.365c-2.157,0.029 -10.641,-0.333 -11.901,0.18l-0.033 1.223 11.606 -0.038z"/>
   <polygon class="fil33" points="77.952,122.316 89.473,122.298 89.405,120.891 78.878,120.797 78.796,120.832 "/>
   <path class="fil21" d="M112.605 129.427c0.078,0.049 0.166,0.127 0.222,0.164 0.055,0.037 0.154,0.115 0.223,0.158l1.824 0.581c0.83,0.053 1.904,-0.025 2.762,-0.027l-0.117 -3.572 -3.895 0.057c-1.15,1.026 -0.602,0.986 -1.019,2.639z"/>
   <path class="fil7" d="M113.139 56.88c-0.402,0.701 -0.964,1.625 -1.542,2.213 -0.737,0.751 -0.452,0.292 -1.083,0.789 -1.095,0.863 -0.42,0.186 -0.682,0.87 0.53,0.307 -0.336,0.539 1.025,-0.079l0.067 1.483c1.351,-1.22 0.796,-1.05 1.585,-2.141 0.332,-0.461 1.697,-1.851 1.975,-2.078 0.851,-1.638 2.566,-2.326 3.62,-4.42l-0.097 -0.51c-0.759,-0.307 -0.366,0.121 -0.569,-0.768 -0.657,1.509 -0.236,0.453 -1.146,1.421 -0.378,0.403 -0.581,0.771 -0.946,1.264 -0.709,0.957 -1.329,1.315 -2.207,1.956z"/>
   <path class="fil35" d="M55.671 116.465c-1.684,0.274 -0.411,-0.046 -1.041,0.415l0.045 0.951c1.23,0.505 7.998,0.352 9.67,0.053l0.078 -1.237c-1.284,-0.323 -5.645,-0.196 -7.49,-0.209 -0.246,-0.002 -1.059,-0.006 -1.262,0.027z"/>
   <polygon class="fil35" points="85.685,105.207 85.953,105.238 86.715,103.758 75.246,103.769 75.234,105.126 "/>
   <path class="fil33" d="M69.869 148.872l0.006 0.95c1.024,0.508 6.505,0.31 8.327,0.3 1.912,-0.01 1.626,0.381 1.702,-1.25 -0.083,-0.044 -0.208,-0.186 -0.258,-0.106 -0.051,0.081 -0.193,-0.079 -0.266,-0.094l-6.923 -0.143c-1.027,-0.001 -1.837,-0.077 -2.588,0.343z"/>
   <path class="fil40" d="M63.464 86.375c2.019,-0.435 4.285,0.06 6.71,-0.737l-0.048 -0.516c-0.961,-0.976 -2.151,-2.293 -3.928,-2.033 -1.419,0.207 -2.499,2.197 -2.734,3.286z"/>
   <path class="fil33" d="M76.707 152.129c1.826,0.141 7.747,0.459 8.996,-0.09l0.093 -1.296 -9.21 -0.082 0.121 1.468z"/>
   <path class="fil36" d="M69.234 119.414c0.175,0.493 -0.319,0.805 1.936,0.792l5.105 -0.009c2.431,0.052 2.036,-0.067 2.365,-0.783 -0.199,-0.467 0.259,-0.825 -2.037,-0.822 -0.836,0.001 -1.71,0.043 -2.556,0.047 -0.862,0.004 -1.69,-0.012 -2.549,-0.032 -2.505,-0.056 -1.826,0.178 -2.264,0.807z"/>
   <polygon class="fil33" points="73.497,147.879 83.46,147.997 83.436,146.538 73.533,146.467 "/>
   <polygon class="fil36" points="54.745,154.446 63.213,154.427 63.603,152.777 54.622,152.847 "/>
   <path class="fil35" d="M71.512 122.94c-4.944,0.053 -4.275,-0.582 -4.575,0.909 0.463,0.348 -0.068,0.62 2.019,0.603 1.369,-0.01 6.1,0.164 7.112,-0.287 -0.073,-1.731 0.575,-1.28 -4.556,-1.225z"/>
   <path class="fil41" d="M101.705 124.068l-0.03 0.553 0.003 7.702c0.682,-1.943 1.557,-2.072 1.688,-4.66 0.095,-1.896 0.037,-4.676 -0.054,-6.595l-0.932 1.693c-0.295,0.799 -0.131,0.607 -0.675,1.307z"/>
   <path class="fil33" d="M84.743 114.663l0.01 1.222 9.17 0.047 0.002 -1.47 -8.157 -0.045c-1.684,0.175 0.851,-0.192 -0.544,0.091 -0.075,0.015 -0.186,0.058 -0.245,0.073 -0.058,0.014 -0.16,0.048 -0.236,0.082z"/>
   <path class="fil42" d="M71.865 109.987c-1.314,-0.05 -5.509,-0.292 -6.36,0.558l0.02 0.634c0.06,0.06 0.15,0.128 0.203,0.155 0.707,0.364 -1.278,0.312 1.644,0.36l4.492 0.019c2.384,-0.084 1.265,0.232 1.709,-0.851 -0.423,-1.065 0.715,-0.784 -1.708,-0.875z"/>
   <polygon class="fil33" points="67.175,145.812 67.133,145.77 76.399,145.79 76.549,144.333 68.239,144.318 67.636,144.243 "/>
   <path class="fil33" d="M84.926 107.307l8.99 0.054 0.045 -1.467 -8.324 -0.089 0.02 0.045c-0.051,0.077 -0.128,0.101 -0.15,0.233 -0.025,0.151 -0.224,0.385 -0.261,0.458 -0.15,0.298 -0.218,0.476 -0.32,0.766z"/>
   <polygon class="fil4" points="87.376,155.547 91.064,155.522 92.55,152.198 88.559,152.266 "/>
   <path class="fil35" d="M54.251 126.591l7.759 -0.03 0.427 -1.237c-2.403,-0.69 -5.618,-0.24 -8.187,-0.342l0.001 1.609z"/>
   <polygon class="fil33" points="66.562,152.124 75.277,152.157 75.314,150.745 66.498,150.67 "/>
   <path class="fil35" d="M67.078 114.398c-5.02,-0.043 -3.705,-0.561 -4.036,0.899 0.431,0.341 -0.008,0.692 2.117,0.662l5.642 -0.174c0.998,-0.38 0.056,0.35 0.544,-0.488 0.255,-1.52 -1.265,-0.874 -4.267,-0.899z"/>
   <path class="fil35" d="M59.581 132.894l6.581 0.133c1.961,-0.019 1.45,0.348 1.789,-0.943 -0.082,-0.129 0.343,-0.629 -1.794,-0.678l-6.575 0.161 -0.001 1.327z"/>
   <polygon class="fil35" points="80.799,115.89 80.962,115.898 81.691,114.389 73.147,114.439 73.126,115.888 "/>
   <path class="fil33" d="M80.752 116.656l0.092 1.231 6.867 0.13c1.653,-0.051 1.239,0.333 1.385,-1.137 -1.127,-0.76 -7.626,-0.385 -8.344,-0.224z"/>
   <path class="fil33" d="M80.971 148.872l-0.03 0.95c1.051,0.476 2.371,0.254 3.875,0.265 1.258,0.009 2.896,0.17 3.833,-0.265l0.061 -0.95c-0.43,-0.228 0.32,-0.077 -0.759,-0.264 -0.257,-0.044 -0.635,-0.066 -0.898,-0.075 -2.781,-0.097 -5.256,-0.129 -6.082,0.339z"/>
   <path class="fil36" d="M74.953 111.512l7.93 0.098c0.259,-0.521 0.391,-0.756 0.467,-1.541l-8.398 0.13 0.001 1.313z"/>
   <path class="fil36" d="M63.594 118.689c-5.133,-0.045 -3.558,-0.262 -3.9,0.725 0.424,0.421 -1.202,0.668 1.661,0.672l6.55 0.027 0.033 -1.397c-1.45,-0.006 -2.89,-0.013 -4.344,-0.027z"/>
   <polygon class="fil33" points="85.953,105.238 94.314,105.202 94.299,103.893 86.936,103.747 86.715,103.758 "/>
   <path class="fil33" d="M88.328 137.468c1.617,-0.703 5.12,-0.146 7.088,-0.254l0.26 0.254 0.202 -1.793 -7.672 0.067 0.122 1.726z"/>
   <polygon class="fil33" points="76.086,126.556 84.009,126.499 84.054,125.206 76.461,125.052 "/>
   <path class="fil28" d="M115.231 123.615l1.642 -3.717 -3.237 0.184c-1.549,1.385 -1.211,3.676 1.595,3.533z"/>
   <path class="fil33" d="M90.875 147.969c0.37,-1.092 0.352,-0.445 0.435,-1.507l-5.587 -0.036c-1.768,0.093 -1.116,-0.303 -1.399,0.862 0.107,1.027 1.274,0.742 3.024,0.715 1.197,-0.018 2.326,0.031 3.527,-0.034z"/>
   <path class="fil4" d="M89.755 150.649l3.457 0.078 -0.13 -0.055 0.305 -0.441c0.8,-1.221 0.862,-1.216 0.962,-2.269l-3.474 0.007c-0.434,0.725 -1.112,1.772 -1.12,2.68z"/>
   <path class="fil33" d="M72.265 135.086l6.135 0.121 0.119 -1.609 -5.95 0.028 0.055 -0.009c-0.292,0.991 -0.308,0.646 -0.359,1.469z"/>
   <path class="fil27" d="M93.717 142.158l2.579 -0.013 0.028 1.511 -3.859 -0.013 0.109 2.062 -1.264 0.757 4.107 0.026c0.199,-1.366 -0.603,-0.38 -2.023,-0.783l-0.035 -1.228c1.089,-0.385 1.532,0.028 2.86,-0.382 0.402,-0.808 0.704,-1.544 1.285,-2.534l-3.867 -0.036 0.08 0.633z"/>
   <path class="fil35" d="M62.962 122.938c-1.17,0.014 -2.217,-0.095 -3.33,0.141l-0.01 1.224c1.073,0.197 2.228,0.138 3.339,0.145 0.216,0.002 1.524,0.027 1.619,0.016 0.981,-0.124 0.667,0.078 1.134,-0.615 -0.288,-1.294 0.526,-0.741 -1.121,-0.949 -0.113,-0.014 -1.393,0.036 -1.631,0.038z"/>
   <path class="fil36" d="M69.069 128.542l5.929 0.145c0.252,-0.49 0.307,-0.62 0.422,-1.354 -1.777,-0.205 -4.672,-0.348 -6.359,0.087l0.008 1.122z"/>
   <path class="fil33" d="M66.227 148.019l6.138 -0.042 -0.013 -1.43 -5.221 -0.102 -0.055 0.061 -0.328 0.402c-0.044,0.068 -0.108,0.162 -0.15,0.233 -0.518,0.873 -0.093,0.109 -0.371,0.878z"/>
   <path class="fil35" d="M65.22 150.101c0.243,-0.65 0.412,-1.031 0.666,-1.541l-6.211 0.021 -0.011 1.328 5.556 0.192z"/>
   <polygon class="fil35" points="83.994,109.455 84.328,107.99 78.603,107.929 78.606,109.374 "/>
   <path class="fil33" d="M93.637 141.525c0.46,-0.669 0.451,-0.575 0.657,-1.504l-5.863 0.028 0.018 1.37 5.188 0.106z"/>
   <polygon class="fil33" points="83.994,109.455 89.563,109.382 89.602,107.964 84.501,107.894 84.328,107.99 "/>
   <path class="fil36" d="M65.615 137.15l5.506 0.182c0.178,-0.517 0.289,-0.897 0.419,-1.499l-5.988 0.077 0.063 1.24z"/>
   <path class="fil41" d="M101.735 153.105c-0.259,1.132 -0.602,1.242 -0.845,2.563l2.279 -0.101 0.128 -5.427c-1.3,1.425 -0.481,1.508 -1.562,2.965z"/>
   <path class="fil35" d="M69.978 139.433l0.108 0.044c0.419,-0.996 0.338,-0.975 0.918,-1.563l-5.381 0.055 -0.11 1.378 4.465 0.086z"/>
   <polygon class="fil35" points="58.781,130.91 58.582,129.326 54.29,129.326 54.228,130.898 "/>
   <polygon class="fil35" points="64.339,152.207 64.66,150.649 59.793,150.683 59.681,152.04 "/>
   <path class="fil35" d="M84.926 107.307c0.102,-0.29 0.17,-0.468 0.32,-0.766 0.037,-0.073 0.236,-0.307 0.261,-0.458 0.022,-0.132 0.099,-0.156 0.15,-0.233 -1.296,0.003 -3.989,-0.243 -4.992,0.261l0.017 0.95c0.974,0.507 2.915,0.273 4.244,0.246z"/>
   <path class="fil35" d="M73.072 133.01l0.678 -1.521c-0.768,-0.045 -1.471,-0.046 -2.241,-0.054 -1.197,-0.012 -1.519,-0.124 -2.373,0.333l0.011 0.95c1.084,0.474 2.493,0.232 3.925,0.292z"/>
   <path class="fil35" d="M77.813 122.278l0.139 0.038 0.844 -1.484 -4.873 0.166 -0.021 0.95c0.936,0.611 2.526,0.423 3.911,0.33z"/>
   <path class="fil36" d="M88.559 152.266l3.991 -0.068 1.311 0.018 0.139 -1.529c-0.205,2.796 0.457,1.109 -0.949,1.504 -0.025,-0.063 -0.068,-0.227 -0.067,-0.19l0.228 -1.274 -3.457 -0.078 -0.352 -0.03c-0.323,0.988 -0.098,0.685 -0.786,1.535l-1.902 0.167 0.02 -1.611 0.102 1.517 1.722 0.039z"/>
   <path class="fil38" d="M63.213 154.427c1.768,0.058 3.066,0.287 3.933,-0.487l0.001 -0.634c-0.697,-0.659 1.064,-0.374 -1.293,-0.561 -0.45,-0.036 -1.718,0.039 -2.251,0.032l-0.39 1.65z"/>
   <polygon class="fil35" points="68.95,141.525 69.195,141.571 69.738,140.063 65.574,140.039 65.56,141.484 "/>
   <path class="fil35" d="M93.637 141.525l3.867 0.036 0.636 -1.458 -3.846 -0.082c-0.206,0.929 -0.197,0.835 -0.657,1.504z"/>
   <path class="fil35" d="M90.875 147.969l3.474 -0.007 0.128 0.024c0.23,-0.537 0.062,-0.365 0.466,-1.008 0.245,-0.389 0.08,-0.156 0.474,-0.49l-4.107 -0.026c-0.083,1.062 -0.065,0.415 -0.435,1.507z"/>
   <path class="fil33" d="M65.22 150.101c1.055,0.022 2.931,0.111 3.888,-0.279l0.029 -0.95 -1.395 -0.336c-0.515,-0.026 -1.211,0.01 -1.766,-0.008l-0.09 0.032c-0.254,0.51 -0.423,0.891 -0.666,1.541z"/>
   <path class="fil30" d="M117.438 52.239c0.203,0.889 -0.19,0.461 0.569,0.768 1.053,-1.02 0.846,-1.394 2.105,-0.693l-1.99 -2.529c-0.974,0.746 -1.33,1.082 -1.589,1.846l0.905 0.608z"/>
   <path class="fil35" d="M94.87 139.288l3.475 0.113c0.916,0.011 0.549,-0.26 0.434,-1.338l-3.509 -0.121 -0.072 -0.019 -0.328 1.365z"/>
   <path class="fil21" d="M115.231 123.615c1.29,0.074 1.302,0.25 2.251,-0.361l-0.033 -2.953 -0.576 -0.403 -1.642 3.717z"/>
   <path class="fil35" d="M92.465 143.643l3.859 0.013 -0.028 -1.511 -2.579 0.013 -0.37 -0.001c-0.139,0.36 -0.131,0.464 -0.398,0.911l-0.484 0.575z"/>
   <polygon class="fil35" points="59.607,109.382 62.868,109.519 63.051,107.964 59.793,107.925 "/>
   <path class="fil38" d="M95.566 145.822c0.555,0.008 1.445,0.071 1.957,0.046 2.104,-0.103 1.158,0.497 1.418,-1.114 -0.823,-0.645 1.158,-0.428 -1.443,-0.531 -0.51,-0.02 -0.997,0.098 -1.49,0.185l-0.442 1.414z"/>
   <polygon class="fil33" points="85.271,126.477 88.597,126.491 88.648,125.118 85.211,125.092 "/>
   <polygon class="fil43" points="50.003,128.867 52.83,128.71 52.833,127.237 50.041,127.121 "/>
   <path class="fil43" d="M52.992 111.594l0.011 -1.492c-0.306,-0.016 -1.193,-0.111 -1.473,-0.093 -2.78,0.173 -0.491,-0.205 -1.454,0.536 0.27,1.773 -0.566,0.737 0.777,1.124 0.128,0.037 1.909,-0.063 2.139,-0.075z"/>
   <path class="fil43" d="M52.997 103.077l-0.009 -1.492c-3.886,-0.201 -2.696,-0.317 -2.916,1.042 0.998,0.737 0.906,0.504 2.925,0.45z"/>
   <polygon class="fil43" points="52.826,154.453 52.828,152.86 50.017,152.783 50.069,154.407 "/>
   <polygon class="fil33" points="96.766,105.147 99.702,105.236 99.826,103.848 96.774,103.742 "/>
   <path class="fil38" d="M71.121 137.332c0.441,-0.01 1.32,0.04 1.689,0.007 1.771,-0.163 0.83,-0.114 1.271,-0.504l-0.018 -0.633c-0.272,-0.246 0.42,-0.744 -2.523,-0.369 -0.13,0.602 -0.241,0.982 -0.419,1.499z"/>
   <path class="fil11" d="M131.203 89.657l0.94 0.814 2.142 -1.848c-0.197,-1.024 -0.018,-0.581 -0.73,-1.179l-2.352 2.213z"/>
   <polygon class="fil43" points="50.135,109.436 52.72,109.421 52.983,107.998 50.078,107.916 "/>
   <polygon class="fil35" points="59.569,115.853 62.374,115.906 62.343,114.33 59.642,114.5 "/>
   <path class="fil44" d="M109.832 60.752c-0.776,0.665 -1.034,0.795 -1.168,1.938l0.973 0.627 0.435 -0.196 0.852 -0.965 -0.067 -1.483c-1.361,0.618 -0.495,0.386 -1.025,0.079z"/>
   <path class="fil33" d="M91.043 120.878l-0.021 1.07c0.082,0.05 0.191,0.04 0.24,0.148l1.139 0.264c0.474,0.02 1.081,-0.068 1.552,-0.116l-0.066 -1.376 -2.844 0.01z"/>
   <path class="fil43" d="M50.403 124.415l2.374 -0.041 0.008 -1.597 -2.493 0.177c-0.488,0.663 -0.13,0.927 0.111,1.461z"/>
   <polygon class="fil43" points="52.992,120.162 52.995,118.658 50.291,118.616 50.16,119.958 "/>
   <polygon class="fil10" points="50.292,115.899 52.801,115.896 52.958,114.4 50.176,114.417 "/>
   <polygon class="fil43" points="50.187,107.517 52.79,107.273 52.802,105.888 50.292,105.849 "/>
   <polygon class="fil10" points="50.093,117.9 52.748,117.981 52.989,116.512 50.29,116.51 "/>
   <polygon class="fil43" points="52.972,122.267 52.738,120.838 49.975,120.861 50.238,122.216 "/>
   <polygon class="fil10" points="52.983,113.737 52.711,112.294 49.931,112.371 50.248,113.69 "/>
   <path class="fil45" d="M130.594 88.494c0.394,1.068 0.084,0.176 0.609,1.163l2.352 -2.213 -0.738 -1.047c-0.994,1.109 -0.791,1.082 -2.223,2.097z"/>
   <path class="fil10" d="M50.099 148.872l-0.007 0.95c0.964,0.325 1.497,0.206 2.678,0.226l0.056 -1.44 -1.909 0.002c-0.997,0.153 -0.51,0.13 -0.818,0.262z"/>
   <path class="fil38" d="M89.403 150.619l-2.668 0.091 -0.02 1.611 1.902 -0.167c0.688,-0.85 0.463,-0.547 0.786,-1.535z"/>
   <path class="fil43" d="M52.824 147.286l0.109 -0.774 -2.722 0.029 0.004 1.358 2.293 0.079c0.195,-0.299 0.23,-0.109 0.316,-0.692z"/>
   <polygon class="fil10" points="52.665,152.099 52.833,150.586 50.289,150.708 50.175,152.102 "/>
   <polygon class="fil10" points="52.71,137.712 52.823,137.954 50.185,137.981 50.214,139.354 52.832,139.41 "/>
   <polygon class="fil43" points="50.251,105.02 52.833,105.21 52.761,103.752 49.975,103.789 "/>
   <path class="fil10" d="M51.876 130.857c1.548,-0.098 0.623,0.039 0.94,-0.357l0.007 -1.081 -2.622 0.013 -0.005 1.229 1.68 0.196z"/>
   <polygon class="fil10" points="50.183,143.543 52.772,143.571 52.841,142.193 50.29,142.169 "/>
   <path class="fil43" d="M52.786 145.677l0.033 -1.383c-0.554,0.056 -0.828,0.008 -1.284,0.042 -1.472,0.112 -0.967,0.117 -1.393,0.418l0.013 0.634c0.536,0.336 -0.058,0.487 2.631,0.289z"/>
   <polygon class="fil43" points="50.228,132.802 52.745,132.927 52.803,131.496 50.292,131.47 "/>
   <path class="fil33" d="M94.477 147.986l2.692 -0.002 0.126 -1.358 -1.878 -0.138c-0.394,0.334 -0.229,0.101 -0.474,0.49 -0.404,0.643 -0.236,0.471 -0.466,1.008z"/>
   <polygon class="fil43" points="52.667,137.27 52.681,135.764 50.16,135.803 50.187,137.065 "/>
   <path class="fil43" d="M50.108 140.32l0.012 0.95 2.646 0.26 0.043 -1.473c-0.398,0.002 -0.913,-0.033 -1.266,-0.018l-1.435 0.281z"/>
   <polygon class="fil10" points="52.7,135.002 52.675,133.617 50.29,133.61 50.174,135.008 "/>
   <polygon class="fil10" points="52.703,126.452 52.684,125.064 50.289,125.085 50.173,126.461 "/>
   <polygon class="fil36" points="93.394,145.705 95.566,145.822 96.008,144.408 93.359,144.477 "/>
   <polygon class="fil33" points="80.962,115.898 83.514,115.834 83.517,114.444 81.691,114.389 "/>
   <path class="fil46" d="M86.945 103.121c2.424,-0.119 2.042,0.579 2.103,-1.579l-1.697 0.011 0.021 0c-0.149,0.815 -0.173,0.889 -0.427,1.568z"/>
   <polygon class="fil33" points="97.504,141.561 99.847,141.48 99.843,140.154 98.751,140.071 98.14,140.103 "/>
   <polygon class="fil36" points="67.175,145.812 67.636,144.243 65.526,144.326 65.577,145.775 "/>
   <polygon class="fil33" points="69.195,141.571 70.889,141.531 70.964,140.321 70.051,140.025 69.738,140.063 "/>
   <path class="fil36" d="M66.013 148.033l0.214 -0.014c0.278,-0.769 -0.147,-0.005 0.371,-0.878 0.042,-0.071 0.106,-0.165 0.15,-0.233l0.328 -0.402 -1.443 0.04c-0.168,1.335 -0.288,0.9 0.38,1.487z"/>
   <path class="fil46" d="M94 150.687l-0.918 -0.015 0.13 0.055 -0.228 1.274c-0.001,-0.037 0.042,0.127 0.067,0.19 1.406,-0.395 0.744,1.292 0.949,-1.504z"/>
   <path class="fil47" d="M59.694 119.414c0.342,-0.987 -1.233,-0.77 3.9,-0.725 1.454,0.014 2.894,0.021 4.344,0.027l-0.033 1.397 -6.55 -0.027c-2.863,-0.004 -1.237,-0.251 -1.661,-0.672zm-0.058 0.792l8.483 -0.124 -0.004 -1.47 -8.598 0.077 0.119 1.517z"/>
   <path class="fil33" d="M64.339 152.207c1.334,-0.11 0.523,0.052 0.935,-0.485 0.033,-2.052 0.153,-0.339 -0.614,-1.073l-0.321 1.558z"/>
   <path class="fil48" d="M52.935 145.846l-0.149 -0.169c-2.689,0.198 -2.095,0.047 -2.631,-0.289l-0.013 -0.634c0.426,-0.301 -0.079,-0.306 1.393,-0.418 0.456,-0.034 0.73,0.014 1.284,-0.042l-2.73 0.026 -0.006 1.454 2.852 0.072z"/>
   <g>
    <path class="fil49" d="M79.445 20.765c0.162,0.151 0.443,0.38 0.706,0.634 0.64,0.619 0.277,0.015 0.59,0.754l0.779 0.26 3.477 0.859 1.769 0.22 4.813 0.105c3.162,-0.018 4.793,-1.011 7.205,-1.344 0.485,-0.683 1.005,-0.992 1.46,-1.438 0.009,-5.111 -13.56,-4.278 -16.942,-3.306 -2.216,0.637 -3.802,1.101 -3.857,3.256z"/>
    <path class="fil49" d="M79.445 26.894l1.24 0.952c0.511,0.387 0.289,0.243 0.864,0.572l3.597 1.057 1.657 0.072 4.809 0.092c3.25,0.056 7.092,-0.966 8.623,-2.678l-0.112 -1.297c-0.436,0.299 -0.356,0.174 -0.788,0.411 -1.457,0.956 -4.414,2.219 -6.61,1.713 -1.417,0.698 -4.048,0.187 -5.871,0.288l-1.912 -0.312c-1.323,-0.416 -2.188,-0.279 -3.361,-1.143l-0.816 -0.428c-0.776,-0.283 -0.729,-0.023 -1.162,-0.884l-0.158 1.585z"/>
    <path class="fil49" d="M79.465 32.886c0.683,0.743 0.197,0.478 1.174,1.02 0.528,0.474 -0.038,0.168 0.882,0.565l3.56 0.923 2.175 0.218 4.396 0.106c2.93,-0.103 5.187,-1.178 7.212,-1.319 0.41,-0.743 0.866,-0.982 1.388,-1.478l-0.221 -1.263c-1.49,0.964 -3.899,2.326 -6.507,2.102 -1.422,0.912 -4.753,0.408 -6.65,0.296l-1.857 -0.289 -3.477 -0.935 -0.847 -0.607c-0.666,-0.276 -0.691,-0.231 -1.101,-0.771l-0.127 1.432z"/>
    <path class="fil50" d="M91.612 29.639l-0.044 0.332 1.898 0.049c-0.334,1.281 -0.384,2.208 -0.037,3.38l-1.818 0.351 1.913 0.009c2.608,0.224 5.017,-1.138 6.507,-2.102l0.204 -4.697c-1.531,1.712 -5.373,2.734 -8.623,2.678z"/>
    <path class="fil50" d="M91.579 23.597l0.183 0.705 1.321 -0.108 0.323 3.2c-1.27,0.41 -0.261,0.327 -1.691,0.228l1.01 0.166c2.196,0.506 5.153,-0.757 6.61,-1.713 -0.256,-0.748 -0.292,-1.285 -0.352,-2.354 -0.066,-1.169 -0.42,-0.896 0.295,-1.141 -0.287,-0.566 0.457,-0.842 -0.494,-0.327 -2.412,0.333 -4.043,1.326 -7.205,1.344z"/>
    <path class="fil50" d="M91.652 35.718l0 0.147c2.699,0.302 1.581,0.162 1.586,1.584 0.004,1.323 0.567,0.666 -0.246,1.942l-1.304 0.283 1.921 0.215c1.128,-0.019 2.237,-0.223 3.234,-0.541 0.352,-0.113 1.094,-0.387 1.412,-0.528 0.944,-0.416 0.527,-0.402 1.423,-0.667l0 -0.392 -0.7 -0.396 0.318 -2.866c-0.297,-0.277 0.417,-0.681 -0.432,-0.1 -2.025,0.141 -4.282,1.216 -7.212,1.319z"/>
    <path class="fil34" d="M86.854 28.076c1.823,-0.101 4.454,0.41 5.871,-0.288l-1.01 -0.166 0.047 -3.32 -0.183 -0.705 -4.813 -0.105 0.088 4.584z"/>
    <path class="fil34" d="M87.02 40.075c2.079,0.214 4.748,0.436 6.589,-0.186l-1.921 -0.215 -0.036 -3.809 0 -0.147 -4.396 -0.106c-0.502,0.617 -0.183,-0.583 -0.45,1.1 -0.021,0.129 -0.001,1.098 0.003,1.292 0.021,0.982 -0.054,1.141 0.211,2.071z"/>
    <path class="fil34" d="M86.874 34.056c1.897,0.112 5.228,0.616 6.65,-0.296l-1.913 -0.009 -0.043 -3.78 0.044 -0.332 -4.809 -0.092 0.071 4.509z"/>
    <path class="fil51" d="M81.544 38.739c0.902,0.604 2.328,0.855 3.464,1.106l0.073 -4.451 -3.56 -0.923 0.023 4.268z"/>
    <path class="fil52" d="M100.235 26.961l-0.204 4.697 0.221 1.263 -0.02 3.967c2.123,-1.766 2.171,-7.36 0.853,-10.454 -0.752,-1.768 -0.185,-0.695 -0.99,-1.175l0.028 0.405 0.112 1.297z"/>
    <polygon class="fil51" points="81.54,32.832 85.017,33.767 85.146,29.475 81.549,28.418 "/>
    <path class="fil51" d="M81.581 26.621c1.173,0.864 2.038,0.727 3.361,1.143l0.055 -4.492 -3.477 -0.859 0.061 4.208z"/>
    <path class="fil53" d="M79.339 33.891l0.126 -1.005 0.127 -1.432 -0.147 -4.56 0.158 -1.585c-1.514,1.044 -1.909,3.869 -1.917,5.721 -0.012,2.776 1.295,4.445 1.412,5.967l0.241 -3.106z"/>
    <polygon class="fil24" points="84.942,27.764 86.854,28.076 86.766,23.492 84.997,23.272 "/>
    <path class="fil24" d="M85.008 39.845l2.012 0.23c-0.265,-0.93 -0.19,-1.089 -0.211,-2.071 -0.004,-0.194 -0.024,-1.163 -0.003,-1.292 0.267,-1.683 -0.052,-0.483 0.45,-1.1l-2.175 -0.218 -0.073 4.451z"/>
    <polygon class="fil54" points="85.017,33.767 86.874,34.056 86.803,29.547 85.146,29.475 "/>
    <path class="fil55" d="M91.611 33.751l1.818 -0.351c-0.347,-1.172 -0.297,-2.099 0.037,-3.38l-1.898 -0.049 0.043 3.78z"/>
    <path class="fil55" d="M91.688 39.674l1.304 -0.283c0.813,-1.276 0.25,-0.619 0.246,-1.942 -0.005,-1.422 1.113,-1.282 -1.586,-1.584l0.036 3.809z"/>
    <path class="fil56" d="M79.339 33.891l0.232 3.653c0.311,0.193 0.798,0.495 0.964,0.617l0.251 0.086 -0.147 -4.341c-0.977,-0.542 -0.491,-0.277 -1.174,-1.02l-0.126 1.005z"/>
    <path class="fil34" d="M79.603 25.309c0.433,0.861 0.386,0.601 1.162,0.884l-0.024 -4.04c-0.313,-0.739 0.05,-0.135 -0.59,-0.754 -0.263,-0.254 -0.544,-0.483 -0.706,-0.634l0.158 4.544z"/>
    <path class="fil56" d="M79.592 31.454c0.41,0.54 0.435,0.495 1.101,0.771l-0.008 -4.379 -1.24 -0.952 0.147 4.56z"/>
    <path class="fil55" d="M91.715 27.622c1.43,0.099 0.421,0.182 1.691,-0.228l-0.323 -3.2 -1.321 0.108 -0.047 3.32z"/>
    <path class="fil34" d="M98.784 22.253c0.951,-0.515 0.207,-0.239 0.494,0.327 -0.715,0.245 -0.361,-0.028 -0.295,1.141 0.06,1.069 0.096,1.606 0.352,2.354 0.432,-0.237 0.352,-0.112 0.788,-0.411l-0.028 -0.405 0.149 -4.444c-0.455,0.446 -0.975,0.755 -1.46,1.438z"/>
    <path class="fil34" d="M98.864 34.399c0.849,-0.581 0.135,-0.177 0.432,0.1l-0.318 2.866 0.7 0.396 0.554 -0.873 0.02 -3.967c-0.522,0.496 -0.978,0.735 -1.388,1.478z"/>
    <path class="fil24" d="M80.693 32.225l0.847 0.607 0.009 -4.414c-0.575,-0.329 -0.353,-0.185 -0.864,-0.572l0.008 4.379z"/>
    <path class="fil54" d="M80.786 38.247c0.362,0.674 -0.6,0.639 0.758,0.492l-0.023 -4.268c-0.92,-0.397 -0.354,-0.091 -0.882,-0.565l0.147 4.341z"/>
    <polygon class="fil54" points="80.765,26.193 81.581,26.621 81.52,22.413 80.741,22.153 "/>
    <path class="fil0" d="M104.963 39.757c0.12,0.932 1.458,1.997 1.909,3.57 -0.439,0.637 -0.682,0.806 -1.103,1.445l-4.498 -1.342c-1.118,2.605 -1.05,-0.853 -0.317,5.281l-2.185 1.211c-1.47,-2.537 -2.442,-3.032 -4.345,-2.351l-1.124 4.131 -2.175 0.244c-0.363,-1.229 -1.247,-2.522 -1.694,-3.912 -1.678,0.007 -1.713,-0.192 -2.636,1.039 -0.599,0.799 -0.876,1.453 -1.615,2.215 -2.941,-0.219 -2.115,-1.612 -2.382,-4.656l-1.397 -0.846 -1.831 1.102c-0.994,0.658 -1.22,0.9 -2.402,0.885l-1.02 -1.054c0.311,-1.735 1.446,-3.214 0.928,-4.797 -1.889,-0.97 -2.927,0.123 -5,-0.084l-0.879 -1.197c0.808,-2.509 5.354,-4.651 0.267,-5.747 -1.066,-0.23 -1.471,-0.243 -2.204,-0.753l-0.214 -2.149c0.887,-0.127 1.767,-0.578 2.366,-0.862 3.958,-1.871 -0.096,-3.42 -1.739,-4.908 0.431,-4.176 3.045,-1.062 4.815,-2.534 1.599,-1.329 -0.671,-3.492 -1.497,-4.751 0.386,-0.75 0.616,-1.159 0.965,-1.703 1.406,0.069 2.113,0.713 3.468,1.017 3.036,0.681 1.623,-3.002 1.574,-5.015 2.992,-2.153 2.383,0.333 4.569,1.331 2.498,1.14 2.513,-2.503 3.123,-4.252l2.043 -0.141c0.832,1.332 1.17,3.781 2.777,3.794 1.832,0.014 1.977,-2.389 3.489,-3.31 2.046,0.524 1.849,0.05 1.958,2.573 0.103,2.394 -0.183,2.453 2.118,3.024 0.556,-0.856 1.993,-1.751 3.21,-2.164l1.548 1.304c-0.455,1.668 -2.239,3.852 -0.46,5.005l0.53 0.058c1.436,0.009 2.746,-0.486 4.163,-0.371l0.696 1.696c-0.314,0.441 -0.147,0.201 -0.491,0.586 -1.256,1.405 -2.493,2.092 -1.672,4.256l4.077 1.014 0.228 2.208c-1.215,0.419 -2.571,1.153 -3.911,1.683l-0.049 1.661 3.28 2.495 -1.797 2.264c-3.747,-1.531 -3.509,1.453 -3.464,1.807zm-25.25 -14.504l-0.158 -4.545c0.056,-2.154 1.642,-2.618 3.857,-3.256 3.382,-0.972 16.952,-1.805 16.942,3.307l-0.149 4.444c0.805,0.48 0.238,-0.594 0.991,1.174 1.317,3.094 1.269,8.689 -0.854,10.454l-0.554 0.874 0 0.391c-0.062,0.7 -8.186,9.528 -17.593,2.233 -2.219,-1.721 -1.698,-1.19 -1.55,-2.225 -0.166,-0.122 -0.653,-0.424 -0.964,-0.617l-0.231 -3.653 -0.242 3.107c-0.117,-1.523 -1.423,-3.192 -1.412,-5.968 0.008,-1.851 0.404,-4.677 1.917,-5.72z"/>
   </g>
  </g>
  <path class="fil57" d="M50.485 158.976c-6.947,-2.528 -13.199,-4.38 -18.757,-5.593 -5.558,-1.247 -10.474,-1.854 -14.776,-1.854 -2.485,0 -4.569,0.405 -6.172,1.248 -1.631,0.808 -2.432,1.819 -2.432,3.031 0,2.393 1.763,4.212 5.317,5.492 3.554,1.314 8.684,1.955 15.364,1.955 3.34,0 6.787,-0.338 10.34,-1.045 3.554,-0.708 7.242,-1.786 11.116,-3.234zm69.765 -69.542c12.585,-5.762 23.352,-12.365 32.304,-19.71 8.951,-7.379 16.459,-15.903 22.524,-25.573 2.031,-3.167 3.608,-6.232 4.73,-9.165 1.122,-2.965 1.683,-5.424 1.683,-7.412 0,-1.987 -0.401,-3.402 -1.202,-4.278 -0.829,-0.91 -2.164,-1.349 -4.035,-1.349 -6.894,0 -15.177,5.796 -24.823,17.42 -9.672,11.624 -20.039,28.302 -31.181,50.067zm-4.462 7.918c-9.299,17.958 -18.196,31.738 -26.694,41.273 -8.496,9.569 -17.661,16.206 -27.467,19.947 4.008,1.549 7.696,2.66 11.062,3.402 3.367,0.708 6.359,1.079 8.978,1.079 6.573,0 26.992,-3.34 32.897,-6.272 5.906,-2.931 31.506,-13.246 38.774,-20.321 1.149,-1.112 2.565,-2.595 4.302,-4.447 2.512,-2.696 4.416,-3.752 4.859,-4.514 0.189,-0.325 0.567,0.607 0.778,0.908 0.213,0.301 0.424,-0.014 -0.018,1.146 -0.265,0.698 -2.027,3.951 -3.337,5.567 -1.306,1.614 -2.149,2.385 -5.97,6.192 -7.214,7.142 -32.708,17.392 -38.452,20.188 -5.745,2.761 -26.164,6 -32.925,6 -4.168,0 -8.39,-0.539 -12.665,-1.584 -4.302,-1.044 -8.737,-2.661 -13.333,-4.851 -4.382,2.19 -8.897,3.807 -13.547,4.851 -4.676,1.045 -9.538,1.584 -14.589,1.584 -7.775,0 -13.707,-0.943 -17.795,-2.864 -4.089,-1.921 -6.146,-4.751 -6.146,-8.423 0,-3.133 1.203,-5.424 3.634,-6.907 2.432,-1.483 6.092,-2.223 10.982,-2.223 4.864,0 10.341,0.774 16.433,2.324 6.092,1.549 12.585,3.875 19.478,6.974 7.455,-4.514 14.829,-11.084 22.071,-19.676 7.268,-8.593 14.829,-19.778 22.658,-33.524l-21.002 5.424 -1.63 0.472c-4.221,1.077 -6.679,1.584 -7.374,1.584 -0.936,0 -1.657,-0.169 -2.138,-0.472 -0.507,-0.338 -0.748,-0.809 -0.748,-1.415 0,-1.483 4.356,-3.201 13.039,-5.122 8.684,-1.887 16.727,-4.144 24.128,-6.705 15.604,-26.516 29.418,-46.395 41.416,-59.601 11.996,-13.242 22.177,-19.846 30.593,-19.846 3.073,0 5.425,0.943 7.028,2.797 1.63,1.887 2.431,4.65 2.431,8.255 0,10.276 -6.226,21.563 -18.651,33.894 -12.45,12.332 -29.471,23.99 -51.06,34.906z"/>
 </g>
</svg>
