<?xml version="1.0" encoding="UTF-8"?>
<!DOCTYPE svg PUBLIC "-//W3C//DTD SVG 1.1//EN" "http://www.w3.org/Graphics/SVG/1.1/DTD/svg11.dtd">
<!-- Creator: CorelDRAW 2018 (64 Bit) -->
<svg xmlns="http://www.w3.org/2000/svg" xml:space="preserve" width="190px" height="185px" version="1.1" style="shape-rendering:geometricPrecision; text-rendering:geometricPrecision; image-rendering:optimizeQuality; fill-rule:evenodd; clip-rule:evenodd"
viewBox="0 0 190 185"
 xmlns:xlink="http://www.w3.org/1999/xlink"
 aria-hidden="true"
 focusable="false"
 data-prefix="fab"
 data-icon="suse"
 role="img">
 <defs>
  <style type="text/css">
   <![CDATA[
    .fil35 {fill:#464951}
    .fil13 {fill:#464952}
    .fil3 {fill:#474A53}
    .fil50 {fill:#484850}
    .fil18 {fill:#484852}
    .fil45 {fill:#494A55}
    .fil30 {fill:#4A4D55}
    .fil43 {fill:#4B4D58}
    .fil29 {fill:#4E525C}
    .fil4 {fill:#535762}
    .fil37 {fill:#545863}
    .fil8 {fill:#555964}
    .fil52 {fill:#56565E}
    .fil28 {fill:#565863}
    .fil16 {fill:#565A63}
    .fil1 {fill:#575B66}
    .fil46 {fill:#595962}
    .fil24 {fill:#595965}
    .fil7 {fill:#595C66}
    .fil14 {fill:#595D69}
    .fil10 {fill:#5A6168}
    .fil48 {fill:#5B5D63}
    .fil5 {fill:#63646B}
    .fil49 {fill:#74747B}
    .fil6 {fill:#86A7AE}
    .fil23 {fill:#89A6AC}
    .fil9 {fill:#8CADB5}
    .fil32 {fill:#8DAFB9}
    .fil11 {fill:#96B3BA}
    .fil2 {fill:#AAC8D5}
    .fil41 {fill:#ABB2B4}
    .fil40 {fill:#B4B4B3}
    .fil39 {fill:#B7B7B8}
    .fil44 {fill:#B9C6CB}
    .fil27 {fill:#BABABC}
    .fil51 {fill:#BBBCC2}
    .fil42 {fill:#C7C6C7}
    .fil12 {fill:#C9DBE5}
    .fil31 {fill:#CBCDD2}
    .fil34 {fill:#D1D2D4}
    .fil47 {fill:#D4E3E9}
    .fil33 {fill:#E4E4E2}
    .fil15 {fill:#E6E9EA}
    .fil26 {fill:#EAEAEE}
    .fil21 {fill:#EBEBEB}
    .fil25 {fill:#ECECF0}
    .fil36 {fill:#F1EDF1}
    .fil22 {fill:#F3F3F5}
    .fil19 {fill:#F5F8FA}
    .fil20 {fill:#FAFAFC}
    .fil38 {fill:#FAFEFE}
    .fil17 {fill:#FDFEFE}
    .fil0 {fill:gray;fill-rule:nonzero;fill-opacity:0.501961}
   ]]>
  </style>
 </defs>
 <g id="Camada_x0020_1">
  <metadata id="CorelCorpID_0Corel-Layer"/>
  <path class="fil0" d="M50.485 158.976c-6.947,-2.528 -13.199,-4.38 -18.757,-5.593 -5.558,-1.247 -10.474,-1.854 -14.776,-1.854 -2.485,0 -4.569,0.405 -6.172,1.248 -1.631,0.808 -2.432,1.819 -2.432,3.031 0,2.393 1.763,4.212 5.317,5.492 3.554,1.314 8.684,1.955 15.364,1.955 3.34,0 6.787,-0.338 10.34,-1.045 3.554,-0.708 7.242,-1.786 11.116,-3.234zm69.765 -69.542c12.585,-5.762 23.352,-12.365 32.304,-19.71 8.951,-7.379 16.459,-15.903 22.524,-25.573 2.031,-3.167 3.608,-6.232 4.73,-9.165 1.122,-2.965 1.683,-5.424 1.683,-7.412 0,-1.987 -0.401,-3.402 -1.202,-4.278 -0.829,-0.91 -2.164,-1.349 -4.035,-1.349 -6.894,0 -15.177,5.796 -24.823,17.42 -9.672,11.624 -20.039,28.302 -31.181,50.067zm-4.462 7.918c-9.299,17.958 -18.196,31.738 -26.694,41.273 -8.496,9.569 -17.661,16.206 -27.467,19.947 4.008,1.549 7.696,2.66 11.062,3.402 3.367,0.708 6.359,1.079 8.978,1.079 6.573,0 26.992,-3.34 32.897,-6.272 5.906,-2.931 31.506,-13.246 38.774,-20.321 1.149,-1.112 2.565,-2.595 4.302,-4.447 2.512,-2.696 4.416,-3.752 4.859,-4.514 0.189,-0.325 0.567,0.607 0.778,0.908 0.213,0.301 0.424,-0.014 -0.018,1.146 -0.265,0.698 -2.027,3.951 -3.337,5.567 -1.306,1.614 -2.149,2.385 -5.97,6.192 -7.214,7.142 -32.708,17.392 -38.452,20.188 -5.745,2.761 -26.164,6 -32.925,6 -4.168,0 -8.39,-0.539 -12.665,-1.584 -4.302,-1.044 -8.737,-2.661 -13.333,-4.851 -4.382,2.19 -8.897,3.807 -13.547,4.851 -4.676,1.045 -9.538,1.584 -14.589,1.584 -7.775,0 -13.707,-0.943 -17.795,-2.864 -4.089,-1.921 -6.146,-4.751 -6.146,-8.423 0,-3.133 1.203,-5.424 3.634,-6.907 2.432,-1.483 6.092,-2.223 10.982,-2.223 4.864,0 10.341,0.774 16.433,2.324 6.092,1.549 12.585,3.875 19.478,6.974 7.455,-4.514 14.829,-11.084 22.071,-19.676 7.268,-8.593 14.829,-19.778 22.658,-33.524l-21.002 5.424 -1.63 0.472c-4.221,1.077 -6.679,1.584 -7.374,1.584 -0.936,0 -1.657,-0.169 -2.138,-0.472 -0.507,-0.338 -0.748,-0.809 -0.748,-1.415 0,-1.483 4.356,-3.201 13.039,-5.122 8.684,-1.887 16.727,-4.144 24.128,-6.705 15.604,-26.516 29.418,-46.395 41.416,-59.601 11.996,-13.242 22.177,-19.846 30.593,-19.846 3.073,0 5.425,0.943 7.028,2.797 1.63,1.887 2.431,4.65 2.431,8.255 0,10.276 -6.226,21.563 -18.651,33.894 -12.45,12.332 -29.471,23.99 -51.06,34.906z"/>
  <g id="_2369202096176">
   <path class="fil1" d="M121.095 98.571l12.742 0.015 0.13 2.243 -0.172 2.645 0.017 4.221 0.06 1.072 -0.035 2.38c1.509,0.905 1.94,0.463 3.605,0.943 0.149,1.135 0.206,2.142 0.205,3.31l-0.719 3.288c-1.88,0.79 -12.899,0.274 -15.948,0.329 -2.799,0.263 -14.268,0.808 -15.776,-0.49 -0.905,-1.095 -0.598,-2.698 -0.579,-4.553 0.039,-3.677 -0.648,-13.661 0.52,-14.9 0.723,-0.766 1.669,-0.611 3.502,-0.59l12.448 0.087zm27.626 -18.394c2.472,-4.641 -1.821,-13.72 2.264,-14.519 1.437,-0.281 3.33,-0.126 4.707,0.228l-0.064 16.803c-2.04,0.4 -13.909,0.608 -15.187,-0.165 1.446,-3.354 5.396,-0.04 8.28,-2.347zm-15.963 -7.31c-0.749,-2.136 -0.38,-5.027 -0.33,-7.41l3.096 0.257c0.265,8.183 0.369,7.264 -2.766,7.153zm13.365 37.885c-0.147,-3.233 0.07,-0.904 -0.555,-1.831l-11.259 -0.029 0.059 -16.965 5.726 0.07 5.474 0.131c0.461,-0.615 0.928,1.55 0.379,-1.51 -1.851,-1.691 -6.852,-0.858 -9.436,-0.763 -3.349,0.124 -2.705,-0.521 -2.639,7.297 -8.304,0.004 -6.605,0.284 -6.991,-1.526 -1.033,-4.856 -1.169,-1.331 -1.465,-4.651 -0.857,-9.607 0.673,-7.426 14.181,-7.392 0.209,3.375 -1.376,1.08 -1.337,6.21l3.488 0.022c0.021,-6.039 -1.325,-2.895 -1.292,-6.219l15.157 0.165c0.142,1.926 0.065,3.877 0.079,5.813 0.005,0.767 0.072,2.085 0.015,2.787 -0.29,3.61 -3.327,2.813 -5.868,1.618l-2.737 0.355c-0.768,3.377 0.296,-2.574 -0.169,0.853 -0.061,0.451 -0.027,1.367 -0.032,1.862 4.198,0.098 2.067,-0.432 4.221,-1.261 1.714,-0.659 2.846,0.079 4.965,-0.867l0.353 -11.339c2.719,0.016 5.387,-0.005 8.058,-0.021 4.806,-0.029 1.98,1.486 7.173,1.416l0.01 -3.642c-4.718,0.048 -2.648,1.543 -6.728,1.566 -2.807,0.017 -5.663,-0.02 -8.474,-0.042l-0.113 -17.229c1.638,0.013 2.788,-0.221 4.143,0.39 2.068,0.931 0.406,1.044 4.078,1.012l-0.07 -3.648c-4.836,0.062 -2.493,1.612 -8.132,1.529l0.044 -8.886c15.19,-0.109 10.693,0.754 12.719,-5.179 0.811,-2.376 0.969,0.527 1.03,-5.59 -2.37,-0.643 -1.728,0.501 -1.914,-1.686 0.686,-0.659 2.064,-0.623 2.953,-1.312 -1.932,0.046 -3.872,0.313 -5.85,-0.295l0.164 -10.062 2.773 -0.093 0.014 -3.511c-10.698,0.597 -11.144,15.637 -1.369,17.296 -1.008,7.1 2.874,2.932 0.785,9.345 -2.623,0.649 -8.209,0.396 -11.359,0.344l0.007 -21.117c0.448,-3.298 1.889,-0.242 1.328,-5.502l-3.214 -0.003c-0.588,4.406 0.659,2.523 1.151,5.528l0.034 21.109c-6.316,0 -31.93,-0.765 -35.826,0.399 -1.275,3.038 -0.611,8.932 -0.614,12.968l-10.349 0.01c-0.002,-3.311 -0.807,-11.676 0.621,-13.89 2.468,-1.802 5.81,0.664 7.87,-1.668 1.137,-2.812 -0.431,-7.055 1.015,-9.737 3.591,-1.845 2.553,1.329 7.181,0.92l0.144 -3.508c-4.635,-0.628 -2.744,0.552 -5.007,1.241 -1.261,0.384 -2.185,-0.05 -3.069,1.068 -1.34,2.589 -0.186,7.188 -0.816,9.908 -2.704,0.915 -5.862,-0.32 -7.888,1.169 -1.542,2.282 -0.715,10.854 -0.738,14.482l-6.617 -0.04 -0.013 -37.734c-0.022,-2.22 -0.08,-7.235 4.844,-4.694 2.084,1.075 0.626,1.062 4.155,1.085l0.015 -3.65c-3.986,-0.039 -2.488,0.482 -4.747,1.19 -1.886,0.591 -2.499,-0.018 -4.411,0.858 -1.286,3.966 -0.476,35.652 -0.544,42.808 -2.743,0.486 -5.45,-0.367 -7.521,0.88 -1.417,2.278 -0.378,2.322 -0.961,4.597 -0.64,2.499 -1.239,0.462 -1.162,4.698l3.483 0.145c-0.033,-5.204 -2.577,-3.891 -1.045,-9.065l7.19 -0.379c0.201,9.197 -1.337,2.87 -1.323,9.441l3.507 -0.147c-0.085,-6.489 -1.453,-0.029 -1.468,-9.139l6.621 -0.139c0.045,9.397 -1.372,3.177 -1.34,9.395l3.49 -0.051c-0.011,-3.782 0.123,-1.889 -0.948,-4.066 -0.831,-1.689 -0.516,-3.153 -0.52,-5.283l10.351 0.067 -0.004 21.496c-0.312,2.877 -1.464,0.818 -1.458,5.64l3.597 0.19c0.043,-6.772 -1.454,1.739 -1.455,-12.832 0,-4.848 -0.018,-9.7 0.004,-14.547 9.468,0.077 4.443,0.527 7.731,1.383 1.045,0.273 2.165,0.066 2.895,0.139 1.329,4.296 3.116,6.539 8.271,7.037l-0.044 -4.337c0.107,-0.029 0.255,-0.011 0.33,-0.012l3.604 -0.786c-2.785,-0.007 -3.576,-0.354 -6.169,-0.527l-0.014 -6.814 8.901 -0.079c-1.64,-1.206 -2.46,-0.686 -6.667,-0.699l-0.005 -4.336c-4.937,0.478 -6.262,2.398 -7.761,5.579l-0.533 1.083c-0.048,0.094 -0.124,0.252 -0.196,0.372 -0.839,-0.078 -1.707,-0.227 -2.549,-0.08 -1.691,0.295 -1.019,0.587 -2.129,1.042 -1.567,0.641 -3.847,0.34 -5.661,0.311 -0.098,-15.316 -3.676,-12.646 17.539,-12.646 3.611,0 15.484,-0.52 18.052,0.228 0.337,2.369 0.547,6.452 -0.169,8.676 -2.292,0 -4.446,-0.139 -6.324,0.539 -1.122,3.88 0.91,11.335 -1.093,14.42 -1.529,0.711 -3.569,0.377 -5.501,0.508 -2.805,0.189 -1.842,0.807 -3.165,2.489 -16.297,-0.088 -14.31,-1.453 -14.487,7.66 -0.084,4.367 -1.793,1.447 -1.243,6.522l-8.463 -0.007 -2.359 0.145 -4.952 -0.021c-2.992,0.057 -3.097,-0.323 -4.435,2.047l0.091 3.699 -0.068 2.089 -0.056 4.247 0.049 5.18 -9.14 0.062c-1.917,-0.083 -1.669,0.414 -1.747,-0.974l-1.207 -0.965c0.145,-1.298 0.171,-1.558 1.352,-1.787l-0.108 -1.492 -20.033 -0.029 0.022 -26.827 20.019 -0.006 20.268 0.085c-1.484,-1.073 -16.875,-0.443 -20.375,-0.652 0.361,-1.899 0.417,-1.237 3.646,-1.212 3.833,0.029 14.964,0.353 17.346,-0.218 -1.61,-1.501 -30.93,0.322 -33.973,-0.479 -1.27,-0.334 -0.39,-0.585 -1.017,-2.896 -0.487,-1.791 -0.736,-0.65 -1.141,-2.567l-0.086 -38.417c0,-3.458 0.916,-12.244 -0.906,-14.542 -1.939,-0.925 -2.906,-0.087 -4.659,-0.81 -1.742,-0.718 -0.73,-1.617 -4.126,-0.833l0.036 3.217c4.498,0.85 4.452,-3.134 8.43,-0.778 1.215,1.278 0.543,37.05 0.543,43.782 0,2.015 0.213,5.718 -0.008,7.532 -0.424,3.477 -1.858,1.087 -1.279,6.333 -2.731,-0.035 -3.707,-0.544 -4.972,1.6 -0.534,2.832 -0.469,30.683 0.221,32.902 3.243,1.816 27.218,0.916 32.934,0.813 -0.021,6.468 0.606,4.996 15.182,5.024 4.763,0.01 16.552,0.652 19.973,-0.45l0.397 -7.987c1.275,-0.005 2.615,0.031 3.957,0.039 2.239,0.014 2.5,0.234 3.229,-1.152z"/>
   <path class="fil2" d="M77.389 93.946l9.312 -0.044 -0.257 5.396 -9.126 -0.152 0.071 -5.2zm3.824 -7.428c-4.007,0.02 -3.234,0.183 -3.752,-1.178 1.347,-0.69 2.532,-0.454 4.205,-0.457 0.614,-0.001 1.703,-0.051 2.267,0.01l1.174 0.292c0.068,-0.116 0.236,0.097 0.351,0.155 -0.625,1.495 1.589,1.148 -4.245,1.178zm11.282 22.762l0.214 -1.921c2.355,0.192 3.375,0.296 4.705,-1.108l-4.498 -0.051c-0.155,-0.263 0.652,0.481 0.342,-0.764 -0.362,-1.452 -0.83,1.175 -0.342,-1.327 0.23,0 2.246,0.051 2.273,0.045 3.219,-0.684 0.845,0.282 2.225,-1.24 -1.402,0.017 -3.795,-0.233 -5.047,0.257 2.144,-0.001 3.557,0.43 4.799,-0.937l-4.684 -0.366c1.104,-0.299 1.449,-0.159 2.248,-0.262l2.684 -1.005c-5.418,-0.035 -4.615,0.522 -5.181,-1.277l-4.314 -0.043 0.088 -5.354 4.217 -0.036 0.163 -1.239 -14.938 -0.091c-0.408,-1.454 -0.638,-3.925 0.089,-5.321l15.051 -0.059c1.266,-0.685 3.191,-0.517 4.828,-0.44 4.973,0.234 3.859,-0.093 4.497,-0.932 -0.759,-1.722 0.213,-0.566 -1.313,-1.285 -0.02,-0.009 -1.744,-0.239 -1.781,-0.239 -1.78,0.027 -1.9,0.108 -3.502,0.739l-0.152 1.065c-1.495,0.185 -3.023,0.446 -4.514,0.522 -3.644,0.186 -2.93,-0.602 -3.127,-1.271 1.243,-0.864 3.492,-0.497 4.985,-0.477l-0.007 -2.445 -20.019 0.006 -0.022 26.827 20.033 0.029z"/>
   <path class="fil3" d="M64.653 107.262c1.624,-0.629 0.438,-0.598 1.855,-0.01 0.647,1.806 -0.019,2.287 -1.603,1.666l-0.252 -1.656zm2.16 -21.954l-0.108 4.683 -5.46 0.022 -0.037 28.274c3.671,0.072 7.154,0.928 7.966,-1.786l0.112 -27.407c0.002,-9.908 0.783,-8.504 -7.95,-9.031l-0.138 4.338c2.117,0.169 3.806,-0.496 5.615,0.907z"/>
   <path class="fil2" d="M108.47 108.69l7.826 0.065 -0.04 4.482 -7.813 0.016 0.027 -4.563zm3.345 -6.086c-3.457,0.013 -2.717,0.111 -3.298,-0.839 1.242,-0.946 1.847,-0.663 3.759,-0.649 1.78,0.014 1.928,-0.331 3.044,0.649 -0.666,1.375 -1.699,0.833 -3.505,0.839zm9.165 16.413l0.043 -1.765c0.228,-0.024 2,-0.053 2.049,-0.064 2.891,-0.665 0.979,0.137 2.242,-1.28l0.001 0.331c-1.114,-1.369 -0.579,-1.331 -3.647,-1.331 0.713,0.773 2.481,0.57 3.447,-0.251 -1.313,-0.348 -2.966,-0.107 -4.128,-0.69 1.636,-0.735 2.345,-0.179 3.982,-0.781 0.635,-1.795 0.661,-3.131 -0.079,-4.386l0.115 4.34 -3.842 0.012 -3.902 0.069 -0.005 -4.5 4.167 0.023 -0.516 -1.072 -12.378 0.059 -0.044 -4.542 12.693 0.161 12.617 0.124 0.172 -2.645c-3.219,0 -7.549,-0.557 -10.518,0.457l-0.208 0.951c-1.829,0.028 -5.47,1.384 -6.384,-0.472 1.264,-1.109 2.949,-0.681 4.826,-0.565l-0.588 -2.629 -12.448 -0.087c-1.833,-0.021 -2.779,-0.176 -3.502,0.59 -1.168,1.239 -0.481,11.223 -0.52,14.9 -0.019,1.855 -0.326,3.458 0.579,4.553 1.508,1.298 12.977,0.753 15.776,0.49z"/>
   <path class="fil4" d="M53.183 96.925c6.026,0.518 5.34,-2.163 5.252,8.125 -0.031,3.458 -0.309,10.307 0.079,13.243l2.694 -0.006 0.037 -28.274 -5.382 -0.257c-0.477,-1.406 -0.404,-2.477 -0.162,-4.464l5.669 -0.03 5.443 0.046c-1.809,-1.403 -3.498,-0.738 -5.615,-0.907l0.138 -4.338c-2.452,0.044 -5.732,-0.409 -7.535,1.053 -1.428,2.784 -0.133,11.851 -0.618,15.809z"/>
   <path class="fil5" d="M21.148 41.86c0.578,0.495 0.734,1.049 2.102,1.258 2.676,0.409 1.301,-1.336 4.426,-1.572 5.204,-0.393 3.355,5.825 3.355,12.35l0.05 34.753c-0.003,0.178 -0.056,1.254 -0.081,1.385l-0.433 1.221c-0.042,0.105 -0.118,0.264 -0.204,0.378 -4.94,-2.29 3.935,-9.424 -7.205,-9.246 -0.736,0.012 -2.013,0.077 -2.695,0.015 -5.214,-0.474 -0.431,-3.883 -1.189,-8.034l-3.079 -0.083c-0.737,3.281 -0.056,2.597 0.781,4.402 0.206,0.444 0.123,0.081 0.362,1.067 0.117,0.483 0.055,0.678 0.18,1.206 1.112,4.669 8.123,0.234 10.217,2.954 0.991,1.828 0.36,5.641 0.798,7.693l2.52 1.134c-0.034,3.344 -0.281,7.056 0.543,9.776 9.266,0.985 3.483,1.781 9.138,1.724l-0.008 -3.681c-4.839,0.02 -3.847,2.674 -8.528,1.172 -0.731,-2.05 -0.52,-6.596 -0.461,-9.332l16.058 0.126c2.332,0.621 0.468,1.417 4.749,1.394l-0.068 -3.766c-0.961,-0.015 -1.706,-0.122 -2.559,0.127 -2.856,0.833 0.703,1.428 -6.953,1.392 -3.741,-0.018 -7.483,0.032 -11.224,-0.02 -0.049,-7.503 0.513,-46.224 -0.42,-50.104 -1.983,-0.84 -3.361,-0.342 -5.089,-1.152 -1.947,-0.912 1.096,-0.383 -3.498,-0.978 -1.113,-0.144 -0.828,0.014 -1.555,-0.353l-0.03 2.794z"/>
   <path class="fil6" d="M101.759 85.34c1.231,-0.711 4.749,-0.905 6.055,0 -0.455,1.848 -0.32,1.22 -2.734,1.214 -2.194,-0.005 -2.854,0.681 -3.321,-1.214zm-9.249 -0.477l2.808 0.161c1.602,-0.631 1.722,-0.712 3.502,-0.739 0.037,0 1.761,0.23 1.781,0.239 1.526,0.719 0.554,-0.437 1.313,1.285 -0.638,0.839 0.476,1.166 -4.497,0.932 -1.637,-0.077 -3.562,-0.245 -4.828,0.44l15.159 0.029c0.038,1.828 0.256,3.748 -0.315,5.339l0.047 1.431 0.284 3.194 4.952 0.021 0.055 -14.692 -20.268 -0.085 0.007 2.445z"/>
   <path class="fil7" d="M121.55 148.807c-0.885,-2.69 -0.392,-9.335 -0.393,-12.783 -0.003,-8.312 0.302,-5.149 1.628,-11.31l-3.786 -0.076c0.089,7.361 1.473,-1.79 1.472,12.325 -0.001,15.134 -2.026,12.613 11.464,12.813 0.379,3.771 -1.23,1.86 -1.218,7.064l3.499 -0.287c-0.052,-5.169 -1.87,-2.611 -1.304,-6.794 4.556,0.014 27.93,-0.558 30.207,0.35 0.974,1.259 1.114,2.838 0.501,4.292 -0.966,2.293 -1.239,0.534 -1.172,4.746l3.499 0.014c-0.011,-4.284 -0.458,-2.459 -1.153,-4.652 -0.521,-1.648 -0.148,-3.2 -0.833,-4.831 -4.352,-1.979 -24.541,0.425 -31.147,-0.819 -0.245,-4.072 -0.056,-8.7 -0.058,-12.835 -0.004,-12.339 1.428,-4.837 1.458,-11.315l-3.492 -0.078c-0.052,4.621 0.813,2.574 1.283,5.337l-0.06 19.096 -10.395 -0.257z"/>
   <path class="fil5" d="M61.048 128.043c-2.868,-0.042 -9.226,-0.72 -11.334,0.489 -2.514,2.24 1.603,8.213 -3.164,8.769 -3.449,0.402 -7.455,-1.39 -8.351,2.132 -1.369,5.374 -1.538,2.852 -1.556,6.712l3.171 -0.038c1.717,-4.501 -2.748,-3.707 -0.451,-7.665 2.535,-1.321 6.935,-0.216 9.634,-0.866 0.628,-1.967 0.09,-6.277 1.075,-8.222 2.163,-1.568 7.969,-0.619 10.984,-0.58 0.019,2.184 0.309,14.897 -0.219,16.468 -0.838,2.491 -1.226,0.019 -1.245,4.528l3.793 -0.079c-1.473,-6.584 -1.657,-2.7 -1.625,-9.442 0.019,-3.831 -0.017,-7.664 0.009,-11.496l21.991 -0.028c2.329,-0.371 2.126,-1.587 2.386,-3.038 0.927,-5.17 1.489,-1 1.504,-6.342l-3.536 -0.02c-0.015,4.919 2.658,5.996 0.962,8.044 -2.695,1.505 -18.8,0.653 -23.317,0.653 0.003,-5.597 1.377,-3.863 1.344,-8.308l-3.273 -0.156c-1.003,5.308 1.336,0.63 1.218,8.485z"/>
   <path class="fil8" d="M115.591 28.266c2.69,-0.966 1.272,-0.022 1.728,0.413 0.107,1.091 -1.553,2.196 -1.728,-0.413zm0.035 -3.255c0.717,-1.731 1.422,-0.393 1.712,0.727 -0.007,0.005 0.123,1.062 -1.373,0.367 -0.495,-0.23 -0.558,-0.566 -0.339,-1.094zm0.338 -3.859c1.367,-0.737 1.327,0.338 1.365,0.362 -0.288,1.19 -1.006,2.433 -1.708,0.736 -0.233,-0.564 -0.143,-0.836 0.343,-1.098zm5.702 12.397l-1.847 -0.339 0.046 -3.405c-1.487,-0.671 -0.794,0.659 -0.854,-1.801l1.804 0.021c0,0 -0.469,-0.877 -1.058,-0.879 2.188,-0.007 -0.058,0.3 0.945,-1.012l-1.604 0.021c-0.074,-1.638 -0.712,-0.85 0.682,-1.787l0.039 -1.483c-1.379,-0.819 -0.812,-0.043 -0.723,-1.841l1.66 0.073c-1.221,-1.667 -0.977,-1.809 -0.842,-4.528 -10.778,0.746 -11.178,15.315 -2.002,17.33 2.087,0.458 2.828,0.342 3.754,-0.37z"/>
   <path class="fil9" d="M92.224 93.891l4.917 0.041 -0.223 5.298 -4.685 0.094c0.566,1.799 -0.237,1.242 5.181,1.277l-2.684 1.005c-0.799,0.103 -1.144,-0.037 -2.248,0.262l4.684 0.366c-1.242,1.367 -2.655,0.936 -4.799,0.937 1.252,-0.49 3.645,-0.24 5.047,-0.257 -1.38,1.522 0.994,0.556 -2.225,1.24 -0.027,0.006 -2.043,-0.045 -2.273,-0.045 -0.488,2.502 -0.02,-0.125 0.342,1.327 0.31,1.245 -0.497,0.501 -0.342,0.764l4.498 0.051c-1.33,1.404 -2.35,1.3 -4.705,1.108l-0.214 1.921 10.801 -0.024 0.056 -4.247 -5.012 -0.013 -0.199 -2.075 5.279 -0.001 -0.091 -3.699 -4.927 -0.053 0.082 -5.231 8.996 0.043 -0.047 -1.431 -15.046 0.103 -0.163 1.239z"/>
   <path class="fil10" d="M129.069 42.633c-0.469,-1.827 -0.491,-2.681 -0.019,-4.585l4.234 0.022c0.472,1.863 0.441,2.727 0.009,4.753l-4.224 -0.19zm5.396 8.249l0.03 -4.495c1.103,-0.002 2.091,0.164 3.018,0.202 1.498,0.061 1.212,-0.171 3.103,-0.204 -0.112,-0.148 -0.274,-0.274 -0.391,-0.394 -0.11,-0.112 -0.236,-0.241 -0.363,-0.373l-1.944 -2.514c-1.56,1.756 0.647,1.397 -3.425,1.406l-0.138 -10.308 1.801 -0.336c-0.871,-0.606 -2.287,-0.611 -3.357,-0.381 -1.095,0.235 -2.465,0.936 -3.163,1.448 -1.615,1.186 -3.049,3.293 -3.399,5.872 -0.788,5.797 3.073,9.782 8.228,10.077z"/>
   <path class="fil8" d="M178.365 149.873l-0.054 -3.524c0.318,-0.001 1.696,0.06 1.914,0.028l2.242 -0.84c-4.581,0.188 -4.838,0.268 -2.96,-4.427 -1.267,0.653 -1.279,0.267 -2.477,2.373 -1.063,1.868 -0.768,2.125 -2.559,1.768 -0.001,-1.81 1.213,-2.61 1.671,-4.149 0.553,-1.859 -0.256,-1.881 0.49,-4.148l1.727 -0.355 0.592 -3.561c0.096,-0.014 0.263,-0.037 0.359,-0.05 0.075,-0.009 0.604,0.035 1.125,-0.028 -1.68,-2.003 -5.662,0.038 -7.119,1.029 -1.389,0.946 -3.037,3.293 -3.303,5.899 -0.604,5.925 3.187,9.481 8.352,9.985z"/>
   <path class="fil11" d="M121.423 108.744l3.467 0.056c0.74,1.255 0.714,2.591 0.079,4.386 -1.637,0.602 -2.346,0.046 -3.982,0.781 1.162,0.583 2.815,0.342 4.128,0.69 -0.966,0.821 -2.734,1.024 -3.447,0.251 3.068,0 2.533,-0.038 3.647,1.331l-0.001 -0.331c-1.263,1.417 0.649,0.615 -2.242,1.28 -0.049,0.011 -1.821,0.04 -2.049,0.064l-0.043 1.765c3.049,-0.055 14.068,0.461 15.948,-0.329l0.719 -3.288c0.001,-1.168 -0.056,-2.175 -0.205,-3.31 -1.665,-0.48 -2.096,-0.038 -3.605,-0.943l-0.011 2.084 -7.812 0.055 0.003 -4.592 7.855 0.073 -0.06 -1.072 -12.905 -0.023 0.516 1.072z"/>
   <path class="fil8" d="M60.728 167.921c0.083,-0.976 -0.124,-1.054 -0.053,-1.902 0.368,-4.361 -0.394,-1.306 0.96,-2.605l-0.077 0.111c-1.625,-1.153 -0.189,0.414 -0.661,-1.263 -0.151,-0.534 -0.162,-0.745 -0.18,-1.291 -0.014,-0.42 0.223,-1.927 0.272,-2.241 -0.27,-0.391 -0.139,-0.502 -0.924,-1.108 -2.444,1.008 -1.692,1.836 -3.251,2.41 0.185,-3.778 1.486,-5.619 5.498,-5.317 -0.574,-0.469 0.621,-0.848 -1.624,-0.857l-0.033 -3.468c-11.132,1.267 -10.908,16.58 0.073,17.531z"/>
   <path class="fil12" d="M43.764 108.702l5.619 -0.04 -0.194 2.96 -5.348 0.002 -0.077 -2.922zm-1.285 8.246c2.334,-0.024 4.801,0.072 6.807,-0.236l1.068 -0.064c0.036,0.003 1.108,0.182 1.556,0.221 1.347,0.115 2.897,0.043 4.262,0.033 -0.673,-1.699 -0.044,-1.178 -2.316,-1.193 0.131,-0.123 0.325,-0.473 0.412,-0.343l1.659 -0.788c-2.553,-0.027 -4.633,-0.421 -6.318,0.571 -0.013,-2.589 0.3,-4.993 -0.156,-7.555l-5.591 -0.195 0 -4.216 5.581 -0.198 0.782 -0.506c3.129,-1.218 4.336,0.837 5.88,-1.183 -1.219,-1.699 -1.895,-0.551 -4.61,-0.813l-1.875 -0.562 -7.115 0.061 -0.026 16.966z"/>
   <path class="fil8" d="M132.349 174.515l0.166 -4.351c-0.938,-2.268 -4.005,0.136 -4.761,-4.847 0.895,1.251 2.367,1.973 4.624,2.022l0.403 -1.621 0.184 -1.482c-0.091,0.092 -0.206,0.223 -0.266,0.285 -0.06,0.062 -0.201,0.214 -0.267,0.282 -0.066,0.067 -0.21,0.211 -0.269,0.271l-0.545 0.514c-1.06,-0.686 -2.048,-1.084 -2.825,-2.525 1.921,-0.763 2.111,-1.837 4.011,-1.352l-0.407 -4.793c-11.482,1.428 -10.998,16.704 -0.048,17.597z"/>
   <path class="fil13" d="M62.312 154.715c3.03,2.637 2.745,3.072 1.819,7.291l-0.108 -0.626c-0.152,-1.354 0.706,-2.264 -3.034,-2.65 -0.049,0.314 -0.286,1.821 -0.272,2.241 0.018,0.546 0.029,0.757 0.18,1.291 0.472,1.677 -0.964,0.11 0.661,1.263 0.386,-1.22 -0.436,-0.753 0.815,-1.08 2.026,-0.528 0.411,0.085 1.062,0.486 -0.81,0.458 -0.865,0.634 -1.8,0.483 -1.354,1.299 -0.592,-1.756 -0.96,2.605 -0.071,0.848 0.136,0.926 0.053,1.902 11.213,-0.566 11.6,-16.935 -0.073,-17.531l0.033 3.468c2.245,0.009 1.05,0.388 1.624,0.857z"/>
   <path class="fil8" d="M151.015 147.875c-0.323,-2.295 -0.428,-2.747 0.635,-4.2l-1.702 -0.017c-0.789,-3.737 -1.734,0.448 -2.487,-2.074 -0.582,-1.953 0.726,0.41 -0.157,-1.724 -0.738,-1.784 -0.543,1.11 -0.846,-2.087 2.626,-0.49 0.744,-0.872 1.515,-2.525 1.653,-0.052 0.519,-0.062 2.141,1.083l-0.411 0.685c-0.066,0.114 -0.319,0.5 -0.384,0.627 -0.751,1.474 -0.342,1.901 0.13,3.186 2.046,0.469 1.759,0.786 3.477,-0.625l0.084 -0.342 -1.71 0.019c-0.007,-0.061 -0.025,-0.231 -0.031,-0.295 -0.002,-0.028 0.041,-0.658 0.007,-1.063 -1.294,0.141 -0.62,-0.066 -1.584,0.696 -0.013,-2.063 -0.387,-1.335 1.49,-2.541 0.069,-0.045 0.249,-0.059 0.299,-0.219 0.051,-0.16 0.206,-0.142 0.291,-0.234 -1.389,-0.506 -0.955,-0.198 -0.957,-2.479 -0.002,-1.137 0.058,-2.318 0.051,-3.484 -4.791,0.695 -8.174,3.265 -8.304,8.605 -0.129,5.298 3.523,8.576 8.453,9.008z"/>
   <path class="fil1" d="M165.469 176.731l-1.329 -0.347 0.022 -4.56 -4.414 -0.035c-0.181,-0.481 0.004,-0.254 -0.282,-0.926 -0.861,-2.017 0.661,0.632 -0.397,-0.73 -2.397,0.008 -2.163,-0.152 -2.983,-1.08l3.883 0.001 0.475 1.895c1.055,-1.874 0.103,-0.58 1.775,-1.627l0.011 0.426c-0.002,0.033 -0.011,0.187 -0.012,0.228 -0.032,1.265 -0.76,-0.416 0.001,1.068l4.499 0.154 0.111 -1.04c-0.024,-0.079 -0.161,-0.25 -0.234,-0.38 -2.834,-0.274 -0.159,0.177 -3.301,0.631 0.122,-0.099 0.307,-0.391 0.38,-0.275l1.616 -0.877c-1.116,-0.299 -1.417,-0.075 -2.482,-0.384 0.02,-1.314 -0.203,-1.152 0.237,-2.345 0.558,-1.511 -0.052,-0.546 0.851,-0.805l-3.027 -0.001c-0.208,1.574 0.436,-0.842 -0.143,1.203 -0.027,0.097 -0.359,1.007 -0.371,1.037l-3.293 1.038c0.454,-0.612 0.087,-0.285 0.7,-1.006 1.188,-1.395 -0.084,0.135 0.915,-0.899 0.06,-0.063 0.166,-0.148 0.224,-0.212l1.008 -1.673 4.244 0.031 0.105 -4.78 1.482 -0.328c-0.195,-0.182 -0.144,-0.703 -1.997,-0.586 -3.817,0.241 -7.863,3.645 -7.835,8.863 0.041,7.444 7.186,9.767 9.561,8.321z"/>
   <path class="fil13" d="M132.804 161.711c0.756,0.732 1.972,0.748 2.898,1.506 0.855,0.699 1.043,1.338 1.275,2.699 -0.988,-0.966 -2.021,-1.98 -4.012,-1.68l-0.184 1.482 3.206 2.219c-0.809,1.066 -2.115,1.775 -3.472,2.227l-0.166 4.351c4.859,-0.439 8.565,-3.548 8.477,-8.924 -0.09,-5.51 -3.594,-8.063 -8.429,-8.673l0.407 4.793z"/>
   <path class="fil14" d="M182.435 91.748l-1.833 -0.342 -0.005 -2.948 -3.656 -0.364c4.272,-0.864 3.097,-0.358 3.325,-1.683 -0.334,0 -1.622,0.053 -1.863,0.012 -1.712,-0.291 -0.785,-0.115 -1.46,-0.614 0.366,-0.846 -0.365,-1.181 3.263,-1.077 1.425,0.041 2.837,0.044 4.262,0.088l-0.015 -0.368c-1.417,0.041 -2.823,0.04 -4.24,0.079 -3.672,0.102 -2.863,-0.153 -3.27,-1.069 1.011,-0.899 -1.308,-0.505 1.896,-0.783l5.725 0.081 -0.007 -0.48 -7.756 -0.02 0.858 -3.376c1.925,-0.623 4.133,-0.372 6.158,-0.19 -0.95,-0.756 0.534,-0.263 -1.757,-0.817 -0.261,-0.063 -1.319,-0.046 -1.496,-0.046l-0.026 -3.061c-12.364,0.737 -9.531,18.21 0.141,17.523 1.829,-0.13 0.806,0.159 1.756,-0.545z"/>
   <path class="fil13" d="M151.772 136.225c1.991,-0.497 0.142,0.045 1.606,-0.986 1.094,-0.771 0.026,-0.793 1.921,-0.447 0.356,3.538 -2.229,1.295 -2.289,5.07l-0.084 0.342c0.472,0.447 1.359,1.284 1.311,1.898 -0.093,1.182 -0.885,0.482 -2.369,0.534l-0.218 1.039c-1.063,1.453 -0.958,1.905 -0.635,4.2 4.804,-0.484 8.276,-3.351 8.353,-8.607 0.082,-5.614 -3.452,-8.33 -8.502,-9.006 0.007,1.166 -0.053,2.347 -0.051,3.484 0.002,2.281 -0.432,1.973 0.957,2.479z"/>
   <path class="fil1" d="M138.881 120.943l-35.448 0.085c0.048,3.395 1.564,2.565 7.032,2.556 3.474,-0.005 6.95,-0.007 10.422,0.011l15.263 0.064c2.954,0.022 2.651,0.179 2.731,-2.716z"/>
   <path class="fil15" d="M92.387 92.652l15.046 -0.103c0.571,-1.591 0.353,-3.511 0.315,-5.339l-15.159 -0.029 0.102 4.999 -15.196 0.021 0.043 -4.961c-0.727,1.396 -0.497,3.867 -0.089,5.321l14.938 0.091z"/>
   <path class="fil13" d="M122.613 29.528c-1.393,-1.51 0.818,-1.552 1.478,-1.607 -0.039,0.899 -0.111,3.089 -1.478,1.607zm2.218 -5.625c0.679,1.404 0.164,0.715 0.533,2.233 0.224,0.922 0.358,0.875 0.786,1.899 -0.668,0.001 -3.441,-0.749 -4.333,-0.941 -0.322,-2.892 0.328,-4.143 3.014,-3.191zm-2.107 -2.733c1.397,-0.753 1.36,0.331 1.382,0.344 -0.285,1.159 -0.973,2.458 -1.716,0.734 -0.236,-0.547 -0.149,-0.818 0.334,-1.078zm-1.968 -0.053l0.012 1.419 -0.949 0.349 -0.039 1.483 1.027 0.392 -0.105 1.374c-1.003,1.312 1.243,1.005 -0.945,1.012 0.589,0.002 1.058,0.879 1.058,0.879 -0.254,2.065 0.367,0.848 -0.95,1.78l-0.046 3.405 1.847 0.339c3.7,0.114 6.944,-4.528 6.508,-9.239 -0.429,-4.628 -3.778,-7.312 -8.26,-7.721 -0.135,2.719 -0.379,2.861 0.842,4.528z"/>
   <path class="fil8" d="M106.443 169.937l0.871 -4.277c-7.03,0.078 -7.41,-8.422 -0.45,-9.103 -0.846,-1.727 -0.507,-2.1 -0.576,-4.233 -4.849,0.637 -8.48,3.628 -8.386,9.029 0.088,5.138 3.713,8.202 8.541,8.584z"/>
   <path class="fil8" d="M38.095 164.757c0.003,-2.881 -0.229,-2.723 0.816,-4.311 -5.414,-0.59 -4.581,-3.184 -4.484,-8.442l4.484 -0.444c-1.408,-1.84 -0.67,-1.797 -0.882,-4.382 -10.98,1.197 -11.223,16.215 0.066,17.579z"/>
   <path class="fil13" d="M38.911 151.56c0.743,0.861 1.752,0.607 3.055,0.523l-0.041 6.061c-1.442,1.764 -1.649,1.211 -3.014,2.302 -1.045,1.588 -0.813,1.43 -0.816,4.311 11.45,-1.094 11.315,-16.69 -0.066,-17.579 0.212,2.585 -0.526,2.542 0.882,4.382z"/>
   <path class="fil8" d="M73.942 148.525l-1.716 -0.299 0 -3.987 -4.225 -0.012 -0.208 -7.734 9.174 -0.121c-1.206,-1.077 -3.102,-0.811 -4.697,-0.817l-0.118 -3.992c-5.083,0.276 -8.943,4.347 -8.19,10.099 0.369,2.807 1.772,4.474 3.289,5.652 1.643,1.276 4.957,2.565 6.691,1.211z"/>
   <path class="fil8" d="M16.075 150.562l-0.048 -4.3c-5.64,-0.737 -6.37,-9.607 1.733,-8.869 -1.247,-1.089 1.688,-0.888 -1.673,-0.901l-0.169 -3.512c-4.816,0.658 -8.059,3.414 -8.136,8.673 -0.077,5.303 3.606,8.353 8.293,8.909z"/>
   <path class="fil13" d="M178.359 136.599l2.69 1.805c-0.058,3.213 -0.862,1.36 0.478,3.257 1.352,1.914 0.671,1.186 0.94,3.876l-2.242 0.84c-0.218,0.032 -1.596,-0.029 -1.914,-0.028l0.054 3.524c12.201,-1.325 9.413,-16.725 2.07,-16.913 -0.521,0.063 -1.05,0.019 -1.125,0.028 -0.096,0.013 -0.263,0.036 -0.359,0.05l-0.592 3.561z"/>
   <path class="fil13" d="M17.76 137.393c1.421,1.126 3.166,1.719 2.675,5.121 -0.326,2.263 -2.033,3.608 -4.408,3.748l0.048 4.3c11.274,-0.835 11.565,-16.726 -0.157,-17.582l0.169 3.512c3.361,0.013 0.426,-0.188 1.673,0.901z"/>
   <path class="fil8" d="M59.473 29.78l-1.188 -0.288 -0.062 -4.332c-2.644,-0.002 -4.006,0.292 -5.93,-0.633 -1.247,-6.051 3.944,-3.288 6.268,-6.978 -0.548,-1.02 -0.346,-2.706 -0.226,-3.965l1.749 -0.366 -0.665 -0.307c-2.247,-0.583 -4.298,0.079 -6.11,1.574 -1.738,1.435 -3.234,3.264 -3.349,6.578 -0.112,3.221 1.164,5.404 2.897,7.019 1.288,1.201 4.751,3.023 6.616,1.698z"/>
   <path class="fil3" d="M164.153 165.241l4.685 -0.015c0.537,1.642 0.431,4.629 0.022,6.377l-4.698 0.221 -0.022 4.56 1.329 0.347c3.783,0.532 7.21,-4.075 7.215,-8.326 0.005,-4.296 -3.228,-8.517 -6.944,-8.272l-1.482 0.328 -0.105 4.78z"/>
   <path class="fil13" d="M168.304 31.81l2.974 0.054 -0.061 10.396c-0.889,0.689 -2.267,0.653 -2.953,1.312 0.186,2.187 -0.456,1.043 1.914,1.686 7.774,-0.043 10.282,-16.132 -1.86,-16.959l-0.014 3.511z"/>
   <path class="fil13" d="M135.993 42.779c-0.612,-1.55 -0.436,-3.023 -0.241,-4.769l4.49 0.027 0.075 4.857 -4.324 -0.115zm-1.528 8.103c4.834,-0.42 7.936,-2.957 8.436,-7.793 0.483,-4.666 -2.968,-9.454 -6.745,-9.223l-1.801 0.336 0.138 10.308c4.072,-0.009 1.865,0.35 3.425,-1.406l1.944 2.514c0.127,0.132 0.253,0.261 0.363,0.373 0.117,0.12 0.279,0.246 0.391,0.394 -1.891,0.033 -1.605,0.265 -3.103,0.204 -0.927,-0.038 -1.915,-0.204 -3.018,-0.202l-0.03 4.495z"/>
   <path class="fil8" d="M14.872 116.103l-2.08 -0.286 0.05 -3.355 -4.605 -0.004c0.228,-1.263 0.324,-1.904 0.327,-3.22l-0.48 -2.641c1.267,-1.34 3.35,-2.681 5.626,-2.98l-0.479 -0.736c-0.657,-1.586 -0.419,-1.348 -0.387,-3.703 -5.079,0.494 -9.06,4.141 -8.227,10.091 0.411,2.94 1.973,4.675 3.513,5.84 1.542,1.167 5.108,2.491 6.742,0.994z"/>
   <path class="fil13" d="M183.817 78.694l0.74 3.586 0.007 0.48 -0.111 1.692 0.015 0.368 -0.064 1.601 -3.235 -0.009c0.238,1.848 0.999,1.134 3.235,1.129 -0.617,0.474 -0.039,0.262 -1.075,0.552l-2.732 0.365 0.005 2.948 1.833 0.342c7.618,0.295 10.508,-16.228 -1.897,-16.978l0.026 3.061c0.177,0 1.235,-0.017 1.496,0.046 2.291,0.554 0.807,0.061 1.757,0.817z"/>
   <path class="fil8" d="M165.925 134.254l-0.133 -4.897c-2.503,-0.004 -3.99,0.214 -5.853,-0.747 -1.479,-5.679 3.53,-3.656 5.999,-6.52l-0.159 -5.42c-10.692,0.752 -11.283,16.911 0.146,17.584z"/>
   <path class="fil13" d="M106.864 156.557c4.961,1.259 5.217,7.43 0.45,9.103l-0.871 4.277c4.778,-0.574 8.392,-3.606 8.266,-9.045 -0.121,-5.258 -3.654,-7.957 -8.421,-8.568 0.069,2.133 -0.27,2.506 0.576,4.233z"/>
   <path class="fil8" d="M19.421 72.95l-1.788 -0.282 0.053 -3.157c-2.731,-0.455 -1.851,-0.597 -3.882,-1.662 -0.663,-0.348 -0.465,-0.141 -0.872,-0.452 -3.087,-0.771 -1.85,-3.449 1.073,-4.727 2.318,-1.012 3.434,-2.438 6.455,-2.353 -0.911,-0.645 -1.715,-0.451 -2.865,-0.789l0.054 -3.532c-5.024,0.26 -8.913,4.263 -8.266,9.937 0.317,2.775 1.948,4.833 3.353,5.878 1.596,1.186 4.973,2.544 6.685,1.139z"/>
   <path class="fil8" d="M87.256 58.692c-0.031,-1.652 -0.204,-1.483 -0.094,-2.203 0.003,-0.02 0.237,-0.793 0.274,-0.864l0.977 -1.238c-2.622,0.049 -1.957,-0.515 -3.652,-1.44l-3.199 -0.295c-0.987,-2.529 -1.072,-3.405 1.337,-4.533 1.779,-0.833 3.669,-1.249 4.931,-2.873 -1.038,-0.314 -0.479,0.235 -0.569,-1.348 -0.046,-0.808 0.031,-1.735 -0.032,-2.686 -10.87,0.661 -11.236,16.706 0.027,17.48z"/>
   <path class="fil8" d="M61.139 66.752l0.053 -3.469c0.042,-0.001 0.679,-0.027 0.787,-0.079 0.989,-0.481 0.48,-0.213 1.147,-0.787l-2.607 0.432c-1.624,-1.147 -0.536,0.008 -1.391,-1.816l-3.745 -0.3 -0.439 -3.576c1.765,-1.068 4.942,-1.769 6.164,-3.164l0.163 -4.773c-4.679,0.441 -8.28,3.397 -8.387,8.448 -0.115,5.406 3.431,8.579 8.255,9.084z"/>
   <path class="fil13" d="M13.71 103.617l3.872 2.563c-0.186,1.556 -0.593,4.327 0.093,6.281l-4.833 0.001 -0.05 3.355 2.08 0.286c2.149,0.028 3.998,-1.522 4.876,-2.874 1.283,-1.973 1.798,-3.552 1.523,-6.245 -0.478,-4.674 -3.84,-7.494 -8.427,-7.806 -0.032,2.355 -0.27,2.117 0.387,3.703l0.479 0.736z"/>
   <path class="fil16" d="M44.68 45.745l-1.527 -0.323 -0.137 -3.296 -2.022 -0.173 -0.168 -4.443c-0.002,0.37 0.025,1.05 -0.035,1.402l-0.358 1.201c-0.024,-0.071 -0.094,0.283 -0.169,0.409 -3.281,-0.093 -3.869,-1.156 -3.265,-4.177 1.768,-0.92 4.821,-1.719 5.979,-3.062l0.092 -3.791 0.927 -0.35c-1.753,-0.993 -4.686,0.062 -6.395,1.796 -7.917,8.037 2.568,18.153 7.078,14.807z"/>
   <path class="fil13" d="M159.966 15.424l-0.234 1.397c0.078,0.097 0.2,0.208 0.26,0.266l0.787 0.731c0.39,0.359 0.452,0.297 1.025,0.908l-0.488 1.51 -1.527 2.535c-3.057,-0.327 -1.963,-0.04 -3.825,0.55l0.402 4.677c10.997,-1.005 10.732,-16.785 -0.273,-17.498l-0.076 3.975c0.267,0.001 1.606,-0.052 1.711,-0.033 1.641,0.293 0.156,-0.039 1.337,0.432 0.145,0.059 0.345,0.393 0.45,0.262 0.109,-0.135 0.339,0.146 0.451,0.288z"/>
   <path class="fil3" d="M165.938 122.09c2.329,-0.622 3.019,-0.782 5.739,3.158 1.656,2.398 0.132,4.43 -2.869,3.904 -1.873,-0.329 -0.464,-0.419 -3.016,0.205l0.133 4.897c11.177,-0.425 11.126,-16.998 -0.146,-17.584l0.159 5.42z"/>
   <path class="fil3" d="M58.561 17.549c4.045,0.399 2.625,0.476 4.62,2.58 0.903,0.951 0.823,0.125 1.351,1.55 1.471,3.98 -3.232,3.376 -5.075,3.475l-0.764 -2.168c0.295,2.584 0.181,1.472 -0.47,2.174l0.062 4.332 1.188 0.288c3.721,0.261 7.09,-3.74 7.274,-7.835 0.2,-4.43 -2.854,-9.001 -6.663,-8.727l-1.749 0.366c-0.12,1.259 -0.322,2.945 0.226,3.965z"/>
   <path class="fil16" d="M49.787 121.114l-0.026 -1.107c-2.004,-0.203 -2,0.245 -2.695,-1.05l2.66 -0.233 0.097 -1.06c-1.381,0.034 -2.81,0.063 -4.187,0.068 -0.245,0 -1.581,-0.04 -1.756,-0.078 -1.384,-0.303 -0.603,0.104 -1.401,-0.706l0.026 -16.966 7.115 -0.061 0.198 -2.956c-10.315,-0.054 -8.643,-2.061 -8.653,11.883 -0.003,3.45 -0.416,8.954 0.309,11.826 2.166,0.704 5.662,0.467 8.313,0.44z"/>
   <path class="fil13" d="M76.967 136.372l-0.371 7.82 -4.37 0.047 0 3.987 1.716 0.299c7.921,0.311 10.338,-16.329 -1.79,-16.962l0.118 3.992c1.595,0.006 3.491,-0.26 4.697,0.817z"/>
   <polygon class="fil17" points="92.589,87.181 77.538,87.24 77.495,92.201 92.691,92.18 "/>
   <path class="fil8" d="M156.366 27.998l-0.402 -4.677c-1.873,-0.019 -1.44,-0.045 -2.932,-0.434 -1.037,-0.27 -1.399,-0.236 -2.62,-0.432l-0.025 -7.228 9.579 0.197c-0.112,-0.142 -0.342,-0.423 -0.451,-0.288 -0.105,0.131 -0.305,-0.203 -0.45,-0.262 -1.181,-0.471 0.304,-0.139 -1.337,-0.432 -0.105,-0.019 -1.444,0.034 -1.711,0.033l0.076 -3.975c-11.431,0.865 -11.295,16.911 0.273,17.498z"/>
   <path class="fil18" d="M49.62 99.921l7.618 0.024 -0.009 17.571 -7.406 0.148 -0.097 1.06 1.38 0.233c-0.576,1.409 0.795,0.723 -1.345,1.05l0.026 1.107c1.841,0.01 4.025,0.123 5.821,0.043 2.536,-0.112 2.827,-0.392 2.906,-2.864 -0.388,-2.936 -0.11,-9.785 -0.079,-13.243 0.088,-10.288 0.774,-7.607 -5.252,-8.125l-3.365 0.04 -0.198 2.956z"/>
   <path class="fil13" d="M61.108 53.993c3.591,-1.274 3.327,0.277 4.972,2.101 1.633,1.808 2.983,4.087 -0.365,4.67 -0.621,0.442 0.536,0.204 -1.158,0.398 -0.199,0.023 -1.425,-0.021 -1.654,-0.016l0.223 1.271c-0.667,0.574 -0.158,0.306 -1.147,0.787 -0.108,0.052 -0.745,0.078 -0.787,0.079l-0.053 3.469c11.642,-0.681 11.141,-16.865 0.132,-17.532l-0.163 4.773z"/>
   <path class="fil13" d="M87.83 45.246c4.257,0.809 2.198,0.485 4.313,2.89 1.689,1.92 2.256,1.59 0.94,4.553l-2.496 0.286 -1.739 0.934 -0.435 0.478 -0.977 1.238c-0.037,0.071 -0.271,0.844 -0.274,0.864 -0.11,0.72 0.063,0.551 0.094,2.203 10.921,-0.346 11.73,-16.649 -0.027,-17.48 0.063,0.951 -0.014,1.878 0.032,2.686 0.09,1.583 -0.469,1.034 0.569,1.348z"/>
   <path class="fil13" d="M42.978 33.283c1.31,-0.321 2.129,-0.621 3.273,0.241l1.696 2.033c3.36,3.608 0.834,5.313 -1.836,4.819l-0.595 0.576c-1.22,1.184 -0.722,1 -2.5,1.174l0.137 3.296 1.527 0.323c3.841,0.164 7.025,-4.225 6.81,-8.726 -0.196,-4.122 -3.593,-8.631 -7.493,-7.877l-0.927 0.35 -0.092 3.791z"/>
   <path class="fil19" d="M165.792 129.357c2.552,-0.624 1.143,-0.534 3.016,-0.205 3.001,0.526 4.525,-1.506 2.869,-3.904 -2.72,-3.94 -3.41,-3.78 -5.739,-3.158 -2.469,2.864 -7.478,0.841 -5.999,6.52 1.863,0.961 3.35,0.743 5.853,0.747z"/>
   <path class="fil20" d="M58.223 25.16c0.651,-0.702 0.765,0.41 0.47,-2.174l0.764 2.168c1.843,-0.099 6.546,0.505 5.075,-3.475 -0.528,-1.425 -0.448,-0.599 -1.351,-1.55 -1.995,-2.104 -0.575,-2.181 -4.62,-2.58 -2.324,3.69 -7.515,0.927 -6.268,6.978 1.924,0.925 3.286,0.631 5.93,0.633z"/>
   <path class="fil3" d="M20.46 60.317c0.436,0.419 3.175,3.506 3.589,4.373 -0.038,2.461 -0.456,2.801 -2.833,3.049l0.181 -3.447c-0.696,1.534 -0.292,2.936 -0.233,4.733l-3.478 0.486 -0.053 3.157 1.788 0.282c7.864,0.134 10.395,-16.315 -1.772,-16.954l-0.054 3.532c1.15,0.338 1.954,0.144 2.865,0.789z"/>
   <path class="fil8" d="M173.248 74.079l0.077 -2.803 -3.485 -0.076 -0.172 -10.734c0.489,-1.481 -0.269,-0.586 1.18,-0.972l0.114 -0.074 2.612 0.094 -0.156 -2.978c-11.209,1.104 -10.907,16.264 -0.17,17.543z"/>
   <path class="fil18" d="M173.574 59.514l2.21 0.08c3.136,-0.413 0.831,-0.206 1.733,0.403 0,12.359 1.148,11.282 -4.192,11.279l-0.077 2.803c11.784,-0.749 11.503,-16.701 0.17,-17.543l0.156 2.978z"/>
   <polygon class="fil21" points="72.226,144.239 76.596,144.192 76.967,136.372 67.793,136.493 68.001,144.227 "/>
   <path class="fil8" d="M13.106 49.205l0.031 -4.304 -5.11 -0.1c-0.065,-0.938 0.096,-5.625 0.17,-6.933 0.118,-2.097 -0.403,-1.833 1.49,-2.119 0.505,-0.076 2.748,0.053 3.442,0.058l0.056 -4.217c-10.807,1.088 -11.748,16.108 -0.079,17.615z"/>
   <path class="fil13" d="M13.129 35.807c3.528,-0.033 5.088,-1.062 5.191,2.553 0.033,1.166 -0.204,2.98 -0.186,3.934 0.022,1.159 0.393,1.007 0.276,2.545l-5.273 0.062 -0.031 4.304c4.313,-0.515 8.149,-2.97 8.042,-7.345l0.03 -2.794c0.083,-2.369 -0.938,-3.831 -2.263,-5.122 -1.686,-1.644 -2.805,-2.041 -5.73,-2.354l-0.056 4.217z"/>
   <path class="fil11" d="M50.417 108.612l5.486 -0.065 -0.042 3.409 -5.656 -0.116 0.212 -3.228zm-0.974 -5.627l6.516 -0.14 -0.116 4.886 -6.39 -0.137c0.456,2.562 0.143,4.966 0.156,7.555 1.685,-0.992 3.765,-0.598 6.318,-0.571l-1.659 0.788c-0.087,-0.13 -0.281,0.22 -0.412,0.343 2.272,0.015 1.643,-0.506 2.316,1.193 -1.365,0.01 -2.915,0.082 -4.262,-0.033 -0.448,-0.039 -1.52,-0.218 -1.556,-0.221l-1.068 0.064c-2.006,0.308 -4.473,0.212 -6.807,0.236 0.798,0.81 0.017,0.403 1.401,0.706 0.175,0.038 1.511,0.078 1.756,0.078 1.377,-0.005 2.806,-0.034 4.187,-0.068l7.406 -0.148 0.009 -17.571 -7.618 -0.024 1.875 0.562c2.715,0.262 3.391,-0.886 4.61,0.813 -1.544,2.02 -2.751,-0.035 -5.88,1.183l-0.782 0.506z"/>
   <path class="fil2" d="M139.611 104.21l-1.445 2.248 -2.869 0.881 0.072 -2.951 4.242 -0.178zm0.239 -0.44l-4.64 -0.164 0.11 -2.628 4.245 -0.032 0.285 2.824zm-5.541 5.122c5.233,-0.131 4.263,0.705 6.309,-1.362l4.347 0.072c-0.598,-1.49 0.866,-1.525 -1.57,-1.197 2.44,-0.489 1.952,0.895 1.286,-2.271l-5.07 0.076 0.239 -0.44 0.476 -0.033 0.014 -2.775 -0.303 -1.136 -4.795 0.022 0.012 -3.81 4.999 0.032 -0.12 -1.058c-5.483,0.35 -4.598,0.337 -4.952,-1.225 0.407,-0.359 0.213,-0.671 2.229,-0.732 0.937,-0.028 2.177,0.114 3.118,0.19l-0.434 -1.248 -5.726 -0.07 -0.059 16.965z"/>
   <path class="fil13" d="M112.771 82.503l-0.055 14.692 2.359 -0.145c0,-2.965 -0.002,-5.93 0,-8.895 0.002,-1.549 0.068,-3.212 0.037,-4.74 -0.054,-2.665 -0.024,-2.795 -1.724,-2.994 -2.382,0.571 -13.513,0.247 -17.346,0.218 -3.229,-0.025 -3.285,-0.687 -3.646,1.212 3.5,0.209 18.891,-0.421 20.375,0.652z"/>
   <path class="fil13" d="M145.43 65.389l-0.18 6.95c-0.567,0.014 -1.292,-0.009 -1.84,0.095 -1.147,0.216 -0.29,-0.004 -0.698,0.375l-3.604 0.786c-0.075,0.001 -0.223,-0.017 -0.33,0.012l0.044 4.337c11.204,-1.104 11.47,-16.419 -0.064,-17.59l0.005 4.336c4.207,0.013 5.027,-0.507 6.667,0.699z"/>
   <path class="fil22" d="M107.314 165.66c4.767,-1.673 4.511,-7.844 -0.45,-9.103 -6.96,0.681 -6.58,9.181 0.45,9.103z"/>
   <path class="fil7" d="M149.48 102.138c3.297,-1.94 16.732,-1.061 21.289,-1.064 9.332,-0.007 7.186,-1.522 7.186,16.178 0,2.624 0.093,5.412 0.029,8.011 -0.101,4.073 -1.336,1.695 -1.381,6.686l3.488 -0.103c0.092,-5.313 -1.408,-2.376 -1.483,-7.055l-0.111 -22.701c-1.19,-3.271 -10.657,-1.741 -16.728,-1.741 -2.709,0 -5.418,0.019 -8.125,0.025 -4.713,0.011 -2.134,-1.303 -7.017,-1.653l0.038 3.57 2.815 -0.153z"/>
   <path class="fil23" d="M140.094 91.997l0.434 1.248 4.232 -0.016c-0.125,2.245 0.434,1.698 -1.39,1.929 -0.508,0.064 -2.623,-0.102 -3.237,-0.146l0.12 1.058 4.638 -0.098 0.02 3.981 -4.874 -0.127 0.303 1.136 4.564 -0.043 0.069 2.553 -4.647 0.265 -0.476 0.033 -0.239 0.44 5.07 -0.076c0.666,3.166 1.154,1.782 -1.286,2.271 2.436,-0.328 0.972,-0.293 1.57,1.197l-4.347 -0.072c-2.046,2.067 -1.076,1.231 -6.309,1.362l11.259 0.029c0.625,0.927 0.408,-1.402 0.555,1.831l0.569 -2.2 0.003 -3.481 2.781 0.096c-1.989,-1.656 -2.95,0.96 -2.953,-1.525 -0.003,-2.471 0.95,0.116 2.957,-1.504l-2.815 0.153 -0.038 -3.57c-0.36,-1.826 0.04,-1.261 0.274,-1.672 0.005,-0.495 -0.029,-1.411 0.032,-1.862 0.465,-3.427 -0.599,2.524 0.169,-0.853l2.737 -0.355c-0.995,-1.326 -1.625,-0.936 -3.369,-0.493 -0.038,-1.792 0.275,-1.766 -0.523,-2.868 0.549,3.06 0.082,0.895 -0.379,1.51l-5.474 -0.131z"/>
   <polygon class="fil17" points="120.907,107.672 121.178,103.35 108.485,103.189 108.529,107.731 "/>
   <polygon class="fil20" points="49.453,107.594 55.843,107.731 55.959,102.845 49.443,102.985 43.862,103.183 43.862,107.399 "/>
   <polygon class="fil21" points="120.907,107.672 133.812,107.695 133.795,103.474 121.178,103.35 "/>
   <path class="fil13" d="M92.603 110.772c1.04,0.337 0.704,0.011 1.221,0.848 -0.16,1.765 0.134,1.381 -1.366,1.904 0.078,1.388 -0.17,0.891 1.747,0.974l9.14 -0.062 -0.049 -5.18 -10.801 0.024 0.108 1.492z"/>
   <path class="fil20" d="M13.182 142.118c1.436,-2.172 0.439,-0.724 2.639,-0.442 0.023,-2.294 -0.871,-1.742 0.399,-3.105 1.204,1.43 0.252,0.572 0.346,3.058 2.069,-0.262 1.298,-1.798 2.646,0.54 -2.133,0.627 -0.585,0.131 -2.763,-0.144 0.322,2.277 0.832,0.773 0.024,2.913 -1.472,-1.159 -0.881,-0.277 -0.547,-2.948 -1.69,0.174 -1.359,0.552 -2.744,0.128zm2.845 4.144c2.375,-0.14 4.082,-1.485 4.408,-3.748 0.491,-3.402 -1.254,-3.995 -2.675,-5.121 -8.103,-0.738 -7.373,8.132 -1.733,8.869z"/>
   <path class="fil24" d="M52.538 87.34l-0.065 -3.411c-4.209,-1.377 -3.202,2.631 -8.432,0.761 -1.079,-2.526 -0.475,-23.199 -0.518,-28.924 -0.01,-1.408 -0.167,-3.194 0.272,-4.321 0.748,-1.915 1.362,-0.385 1.116,-4.119 -1.308,-0.549 -1.665,-0.346 -3.29,-0.369 -0.429,4.258 0.419,2.388 1.089,4.802 0.571,2.057 -0.332,29.676 0.265,32.121 0.569,2.331 2.161,1.597 4.427,2.01 2.609,0.476 0.604,1.444 5.136,1.45z"/>
   <path class="fil17" d="M42.978 33.283c-1.158,1.343 -4.211,2.142 -5.979,3.062 -0.604,3.021 -0.016,4.084 3.265,4.177 0.075,-0.126 0.145,-0.48 0.169,-0.409l0.358 -1.201c0.06,-0.352 0.033,-1.032 0.035,-1.402 0.243,-0.37 -0.887,-1.813 3.533,-0.952 1.821,0.354 1.752,0.662 1.752,3.818 2.67,0.494 5.196,-1.211 1.836,-4.819l-1.696 -2.033c-1.144,-0.862 -1.963,-0.562 -3.273,-0.241z"/>
   <path class="fil10" d="M96.073 125.753c-0.409,-3.4 2.347,-2.583 0.887,-6.443l-3.277 0.394c0.01,2.252 1.246,5.118 2.187,7.024 3.005,0.573 7.011,-0.175 9.768,0.688 0.738,2.976 0.303,9.211 0.305,12.832 0.006,12.691 -1.387,3.793 -1.471,11.3l3.638 -0.146c0.031,-5.15 -1.465,-2.425 -1.465,-5.992l0 -13.609c0,-3.377 0.405,-5.286 -2.926,-5.537 -2.582,-0.195 -5.568,0.416 -7.646,-0.511z"/>
   <path class="fil17" d="M61.108 53.993c-1.222,1.395 -4.399,2.096 -6.164,3.164l0.439 3.576 3.745 0.3 0.007 -4.104c0.715,-0.341 -0.906,-0.371 1.788,-0.583 0.918,-0.072 1.504,0.118 2.376,0.276l0.317 3.946 2.099 0.196c3.348,-0.583 1.998,-2.862 0.365,-4.67 -1.645,-1.824 -1.381,-3.375 -4.972,-2.101z"/>
   <polygon class="fil20" points="77.318,99.146 86.444,99.298 86.701,93.902 77.389,93.946 "/>
   <path class="fil20" d="M36.457 155.972c1.353,0.372 0.949,-0.025 1.354,1.351 -0.507,0.252 -0.563,0.221 -1.057,0.442 -0.05,0.022 -1.204,0.593 -1.242,0.614 0.706,-1.438 0.452,-1.094 0.945,-2.407zm4.236 2.46c-0.195,-0.125 -1.613,-0.839 -1.628,-0.85l-2.936 -4.131c1.696,0.515 0.902,0.434 2.48,1.648 0.697,-1.277 0.22,-0.939 1.849,-1.62l-1.822 1.635c1.409,1.74 1.943,0.667 2.057,3.318zm-1.782 2.014c1.365,-1.091 1.572,-0.538 3.014,-2.302l0.041 -6.061c-1.303,0.084 -2.312,0.338 -3.055,-0.523l-4.484 0.444c-0.097,5.258 -0.93,7.852 4.484,8.442z"/>
   <path class="fil7" d="M27.061 114.694l-0.605 8.256c-2.85,0.831 -7.776,-0.71 -10.073,1.342 -0.831,1.651 -0.048,1.919 -0.906,3.75 -0.947,2.018 -1.22,0.634 -0.851,4.125 1.642,-0.007 1.986,0.183 3.297,-0.366 0.193,-3.219 -0.079,-1.828 -0.831,-3.581 -2.772,-6.463 5.883,-3.314 9.827,-4.671 0.866,-2.915 0.311,-5.766 0.604,-7.051 0.545,-2.394 4.046,-2.005 7.367,-1.717 3.351,0.291 1.125,1.39 5.714,1.422l0.141 -3.642c-5.103,-0.035 -2.325,1.376 -6.296,1.552 -3.212,0.144 -4.698,-0.446 -7.388,0.581z"/>
   <path class="fil17" d="M84.761 52.947l-0.194 -4.598c2.185,0.466 1.563,0.156 2.997,0.1 0.833,-0.032 2.027,0.202 3.001,0.304l0.022 4.222 2.496 -0.286c1.316,-2.963 0.749,-2.633 -0.94,-4.553 -2.115,-2.405 -0.056,-2.081 -4.313,-2.89 -1.262,1.624 -3.152,2.04 -4.931,2.873 -2.409,1.128 -2.324,2.004 -1.337,4.533l3.199 0.295z"/>
   <path class="fil25" d="M155.964 23.321c1.862,-0.59 0.768,-0.877 3.825,-0.55l-0.063 -1.929c-2.121,0.638 -5.724,0.367 -8.473,0.375l-0.279 -5.29c1.529,-0.01 3.014,0.017 4.504,-0.03 0.344,-0.011 2.07,-0.084 2.28,-0.046 1.395,0.251 0.913,-0.169 1.426,0.97l-1.481 -0.061c-0.295,-0.008 -2.221,-0.503 -2.187,1.069 0.025,1.153 0.118,1.673 1.53,1.847l2.923 1.128c0.022,-0.014 1.146,-0.466 1.347,-0.568l0.488 -1.51c-0.573,-0.611 -0.635,-0.549 -1.025,-0.908l-0.787 -0.731c-0.06,-0.058 -0.182,-0.169 -0.26,-0.266l0.234 -1.397 -9.579 -0.197 0.025 7.228c1.221,0.196 1.583,0.162 2.62,0.432 1.492,0.389 1.059,0.415 2.932,0.434z"/>
   <path class="fil17" d="M12.932 67.397l1.356 0.034 0.162 -3.758c1.338,-0.005 2.525,0 3.774,-0.039 2.521,-0.08 2.441,-0.18 3.173,0.658l-0.181 3.447c2.377,-0.248 2.795,-0.588 2.833,-3.049 -0.414,-0.867 -3.153,-3.954 -3.589,-4.373 -3.021,-0.085 -4.137,1.341 -6.455,2.353 -2.923,1.278 -4.16,3.956 -1.073,4.727z"/>
   <path class="fil22" d="M182.467 145.537c-0.269,-2.69 0.412,-1.962 -0.94,-3.876 -1.34,-1.897 -0.536,-0.044 -0.478,-3.257l-2.69 -1.805 -1.727 0.355c-0.746,2.267 0.063,2.289 -0.49,4.148 -0.458,1.539 -1.672,2.339 -1.671,4.149 1.791,0.357 1.496,0.1 2.559,-1.768 1.198,-2.106 1.21,-1.72 2.477,-2.373 -1.878,4.695 -1.621,4.615 2.96,4.427z"/>
   <path class="fil26" d="M13.192 36.323l4.516 0.076 0.008 5.487 -4.584 0.021 -4.435 -0.007 0.01 -5.549 4.485 -0.028zm-0.055 8.578l5.273 -0.062c0.117,-1.538 -0.254,-1.386 -0.276,-2.545 -0.018,-0.954 0.219,-2.768 0.186,-3.934 -0.103,-3.615 -1.663,-2.586 -5.191,-2.553 -0.694,-0.005 -2.937,-0.134 -3.442,-0.058 -1.893,0.286 -1.372,0.022 -1.49,2.119 -0.074,1.308 -0.235,5.995 -0.17,6.933l5.11 0.1z"/>
   <path class="fil15" d="M103.329 99.221c1.338,-2.37 1.443,-1.99 4.435,-2.047l-0.284 -3.194 -8.996 -0.043 -0.082 5.231 4.927 0.053z"/>
   <path class="fil27" d="M166.595 169.778l-0.504 -1.074c1.313,-0.952 0.755,-0.973 2.515,-1.902l0.006 3.77 -2.017 -0.794zm-1.044 -1.305c0.734,-2.265 1.358,-2.125 -0.605,-2.839l3.124 0.013c-0.436,1.866 -1.09,2.13 -2.519,2.826zm1.044 1.305c0.073,0.13 0.21,0.301 0.234,0.38l-0.111 1.04 -4.499 -0.154c-0.761,-1.484 -0.033,0.197 -0.001,-1.068 0.001,-0.041 0.01,-0.195 0.012,-0.228l-0.011 -0.426c-1.672,1.047 -0.72,-0.247 -1.775,1.627l-0.475 -1.895 -3.883 -0.001c0.82,0.928 0.586,1.088 2.983,1.08 1.058,1.362 -0.464,-1.287 0.397,0.73 0.286,0.672 0.101,0.445 0.282,0.926l4.414 0.035 4.698 -0.221c0.409,-1.748 0.515,-4.735 -0.022,-6.377l-4.685 0.015 -4.244 -0.031 -1.008 1.673c-0.058,0.064 -0.164,0.149 -0.224,0.212 -0.999,1.034 0.273,-0.496 -0.915,0.899 -0.613,0.721 -0.246,0.394 -0.7,1.006l3.293 -1.038c0.012,-0.03 0.344,-0.94 0.371,-1.037 0.579,-2.045 -0.065,0.371 0.143,-1.203l3.027 0.001c-0.903,0.259 -0.293,-0.706 -0.851,0.805 -0.44,1.193 -0.217,1.031 -0.237,2.345 1.065,0.309 1.366,0.085 2.482,0.384l-1.616 0.877c-0.073,-0.116 -0.258,0.176 -0.38,0.275 3.142,-0.454 0.467,-0.905 3.301,-0.631z"/>
   <path class="fil16" d="M81.453 139.081l0.073 3.393c3.804,-0.013 2.087,-0.239 4.208,-1.215 3.334,-1.534 5.445,2.168 5.388,-5.699 -0.014,-2.035 -0.005,-4.071 -0.007,-6.106 -0.008,-8.743 0.387,-4.881 1.166,-7.213 0.341,-1.024 0.162,-1.99 0.077,-3.007l-3.291 0.062c-0.391,4.858 1.299,2.473 1.401,6.383 0.071,2.754 -0.034,5.69 -0.026,8.471 0.009,2.957 0.79,5.739 -2.029,6.125 -4.6,0.629 -2.13,-2.04 -6.96,-1.194z"/>
   <path class="fil19" d="M9.219 106.927c4.015,-3.304 3.442,-2.253 7.328,-0.428 -0.58,6.619 0.652,4.406 -1.034,5.134 -0.995,-0.562 -0.793,0.79 -0.778,-3.427l-3.272 0.051c-0.976,2.113 0.684,3.362 -2.2,3.322l-0.044 -4.652zm3.623 5.535l4.833 -0.001c-0.686,-1.954 -0.279,-4.725 -0.093,-6.281l-3.872 -2.563c-2.276,0.299 -4.359,1.64 -5.626,2.98l0.48 2.641c-0.003,1.316 -0.099,1.957 -0.327,3.22l4.605 0.004z"/>
   <path class="fil1" d="M139.481 117.733c5.245,-0.041 1.93,-1.478 6.51,-1.573 3.452,-0.072 4.783,-0.59 4.863,2.969 0.139,11.898 -1.473,3.422 -1.471,10.81l3.612 0.002c0.034,-5.869 -1.12,-0.194 -1.462,-9.404l-0.327 -4.408c-2.644,-1.111 -3.235,-0.375 -6.136,-0.616 -3.443,-0.286 -0.519,-1.525 -5.586,-1.557l-0.003 3.777z"/>
   <path class="fil28" d="M146.692 108.552c5.819,-0.441 0.627,-1.566 8.773,-1.514 2.479,0.015 12.802,-1.973 9.954,4.658 -0.613,1.428 -1.207,0.012 -1.167,4.731l3.472 0c0.011,-4.337 -0.314,-2.376 -1.175,-4.623 -0.523,-1.364 -0.184,-3.176 -0.729,-4.918 -4.812,-1.915 -11.399,1.131 -16.344,-1.719l-2.781 -0.096 -0.003 3.481z"/>
   <path class="fil29" d="M83.605 117.745c1.68,1.201 12.223,0.636 16.061,0.591 2.215,-0.023 1.326,0.04 1.949,-1.084 -1.384,-1.942 -9.768,-0.863 -14.111,-0.924 -2.09,-0.03 -3.81,-0.607 -3.899,1.417z"/>
   <polygon class="fil30" points="137.087,70.943 141.068,71.015 144.218,71.014 144.631,71.009 144.641,65.988 137.094,66.06 "/>
   <path class="fil31" d="M173.325 71.276c5.34,0.003 4.192,1.08 4.192,-11.279 -0.902,-0.609 1.403,-0.816 -1.733,-0.403l0.004 11.285 -4.812 -0.099 -0.128 -11.286c-1.449,0.386 -0.691,-0.509 -1.18,0.972l0.172 10.734 3.485 0.076z"/>
   <polygon class="fil29" points="166.049,40.545 170.839,40.608 170.877,33.092 165.991,33.345 "/>
   <polygon class="fil21" points="133.837,111.147 133.872,108.767 126.017,108.694 126.014,113.286 133.826,113.231 "/>
   <polygon class="fil17" points="108.443,113.253 116.256,113.237 116.296,108.755 108.47,108.69 "/>
   <path class="fil1" d="M85.375 78.671l3.608 0.137c0.008,-6.501 -1.479,0.319 -1.464,-9.425 0.016,-10.759 1.463,-3.083 1.464,-9.981l-3.596 0.078c-0.037,6.22 1.478,0 1.459,9.434 -0.02,10.382 -1.456,3.499 -1.471,9.757z"/>
   <path class="fil14" d="M22.21 110.09c4.918,0.032 0.473,-1.383 11.303,-1.397 2.185,-0.005 1.846,-0.273 3.512,0.673 2.104,1.194 1.302,0.405 3.597,1.027l0.124 -3.95c-0.652,0 -1.66,-0.06 -2.25,0.06 -1.888,0.382 -0.951,0.5 -1.78,0.968 -1.526,0.862 -5.965,0.501 -8.153,0.507 -4.626,0.016 -1.686,-2.164 -6.438,-1.295l0.085 3.407z"/>
   <path class="fil16" d="M159.789 22.771l1.527 -2.535c-0.201,0.102 -1.325,0.554 -1.347,0.568l-2.923 -1.128c-1.412,-0.174 -1.505,-0.694 -1.53,-1.847 -0.034,-1.572 1.892,-1.077 2.187,-1.069l1.481 0.061c-0.513,-1.139 -0.031,-0.719 -1.426,-0.97 -0.21,-0.038 -1.936,0.035 -2.28,0.046 -1.49,0.047 -2.975,0.02 -4.504,0.03l0.279 5.29c2.749,-0.008 6.352,0.263 8.473,-0.375l0.063 1.929z"/>
   <path class="fil29" d="M9.219 106.927l0.044 4.652c2.884,0.04 1.224,-1.209 2.2,-3.322l3.272 -0.051c-0.015,4.217 -0.217,2.865 0.778,3.427 1.686,-0.728 0.454,1.485 1.034,-5.134 -3.886,-1.825 -3.313,-2.876 -7.328,0.428z"/>
   <path class="fil16" d="M59.495 79.826l3.272 -0.056c1.386,-4.719 -2.994,-3.49 -0.433,-8.961 0.954,-2.036 0.655,-1.545 0.661,-3.905l-3.495 0.007c0.017,5.228 1.322,2.951 1.517,6.233 0.242,4.071 -1.491,1.396 -1.522,6.682z"/>
   <path class="fil20" d="M175.767 62.008l-0.084 2.315c0.186,1.468 0.426,0.254 -0.252,1.526l-4.475 -0.134 0.02 5.065 4.812 0.099 -0.004 -11.285 -2.21 -0.08 -2.612 -0.094c0.432,1.421 -0.2,0.556 0.705,1.102l4.166 -0.038 -0.066 1.524z"/>
   <path class="fil32" d="M121.683 101.2l1.766 0.086c2.969,-1.014 7.299,-0.457 10.518,-0.457l-0.13 -2.243 -12.742 -0.015 0.588 2.629z"/>
   <path class="fil33" d="M43.016 42.126c1.778,-0.174 1.28,0.01 2.5,-1.174l0.595 -0.576c0,-3.156 0.069,-3.464 -1.752,-3.818 -4.42,-0.861 -3.29,0.582 -3.533,0.952l0.168 4.443 2.022 0.173z"/>
   <path class="fil20" d="M60.989 158.73c3.74,0.386 2.882,1.296 3.034,2.65l0.108 0.626c0.926,-4.219 1.211,-4.654 -1.819,-7.291 -4.012,-0.302 -5.313,1.539 -5.498,5.317 1.559,-0.574 0.807,-1.402 3.251,-2.41 0.785,0.606 0.654,0.717 0.924,1.108z"/>
   <path class="fil34" d="M61.245 90.013l0.125 -4.751 -5.669 0.03c-0.242,1.987 -0.315,3.058 0.162,4.464l5.382 0.257z"/>
   <polygon class="fil27" points="61.245,90.013 66.705,89.991 66.813,85.308 61.37,85.262 "/>
   <path class="fil20" d="M184.557 82.28l-0.74 -3.586c-2.025,-0.182 -4.233,-0.433 -6.158,0.19l-0.858 3.376 7.756 0.02z"/>
   <polygon class="fil35" points="13.132,41.907 17.716,41.886 17.708,36.399 13.192,36.323 "/>
   <path class="fil36" d="M137.094 66.06l7.547 -0.072 -0.01 5.021 -0.413 0.005 -3.15 0.001 -3.981 -0.072 0.007 -4.883zm5.618 6.749c0.408,-0.379 -0.449,-0.159 0.698,-0.375 0.548,-0.104 1.273,-0.081 1.84,-0.095l0.18 -6.95 -8.901 0.079 0.014 6.814c2.593,0.173 3.384,0.52 6.169,0.527z"/>
   <path class="fil36" d="M165.991 33.345l4.886 -0.253 -0.038 7.516 -4.79 -0.063 -0.058 -7.2zm5.226 8.915l0.061 -10.396 -2.974 -0.054 -2.773 0.093 -0.164 10.062c1.978,0.608 3.918,0.341 5.85,0.295z"/>
   <polygon class="fil37" points="13.132,41.907 13.192,36.323 8.707,36.351 8.697,41.9 "/>
   <path class="fil38" d="M92.233 99.324c0.612,-1.909 0.642,-3.534 -0.009,-5.433l-4.217 0.036 -0.088 5.354 4.314 0.043z"/>
   <path class="fil20" d="M151.65 143.675l0.218 -1.039c1.484,-0.052 2.276,0.648 2.369,-0.534 0.048,-0.614 -0.839,-1.451 -1.311,-1.898 -1.718,1.411 -1.431,1.094 -3.477,0.625 -0.472,-1.285 -0.881,-1.712 -0.13,-3.186 0.065,-0.127 0.318,-0.513 0.384,-0.627l0.411 -0.685c-1.622,-1.145 -0.488,-1.135 -2.141,-1.083 -0.771,1.653 1.111,2.035 -1.515,2.525 0.303,3.197 0.108,0.303 0.846,2.087 0.883,2.134 -0.425,-0.229 0.157,1.724 0.753,2.522 1.698,-1.663 2.487,2.074l1.702 0.017z"/>
   <path class="fil21" d="M92.233 99.324l4.685 -0.094 0.223 -5.298 -4.917 -0.041c0.651,1.899 0.621,3.524 0.009,5.433z"/>
   <path class="fil39" d="M15.694 64.712l3.419 -0.123 1.445 0.001 -0.011 3.108 -4.852 -0.085 -0.001 -2.901zm-2.762 2.685c0.407,0.311 0.209,0.104 0.872,0.452 2.031,1.065 1.151,1.207 3.882,1.662l3.478 -0.486c-0.059,-1.797 -0.463,-3.199 0.233,-4.733 -0.732,-0.838 -0.652,-0.738 -3.173,-0.658 -1.249,0.039 -2.436,0.034 -3.774,0.039l-0.162 3.758 -1.356 -0.034z"/>
   <path class="fil20" d="M133.032 67.037c0.47,-0.347 -0.175,-0.335 0.879,-0.416 2.298,-0.179 0.136,-0.106 1.002,0.416 -1.145,0.493 -0.677,0.642 -1.881,0zm-0.274 5.83c3.135,0.111 3.031,1.03 2.766,-7.153l-3.096 -0.257c-0.05,2.383 -0.419,5.274 0.33,7.41z"/>
   <path class="fil40" d="M60.267 58.043l2.151 -0.034 -0.002 3.295 -2.175 -0.1 0.026 -3.161zm-1.139 2.99c0.855,1.824 -0.233,0.669 1.391,1.816l2.607 -0.432 -0.223 -1.271c0.229,-0.005 1.455,0.039 1.654,0.016 1.694,-0.194 0.537,0.044 1.158,-0.398l-2.099 -0.196 -0.317 -3.946c-0.872,-0.158 -1.458,-0.348 -2.376,-0.276 -2.694,0.212 -1.073,0.242 -1.788,0.583l-0.007 4.104z"/>
   <path class="fil41" d="M170.976 70.78l-0.02 -5.065 4.475 0.134c0.678,-1.272 0.438,-0.058 0.252,-1.526l-4.024 -0.474c0.07,-0.001 0.188,0.143 0.212,0.133 0.01,-0.004 0.107,0.007 0.12,-0.003l1.028 -1.863 2.748 -0.108 0.066 -1.524 -4.166 0.038c-0.905,-0.546 -0.273,0.319 -0.705,-1.102l-0.114 0.074 0.128 11.286z"/>
   <polygon class="fil17" points="140.037,99.826 140.253,96.07 135.254,96.038 135.242,99.848 "/>
   <polygon class="fil20" points="50.205,111.84 55.861,111.956 55.903,108.547 50.417,108.612 "/>
   <polygon class="fil21" points="140.037,99.826 144.911,99.953 144.891,95.972 140.253,96.07 "/>
   <path class="fil22" d="M140.133 95.012c0.614,0.044 2.729,0.21 3.237,0.146 1.824,-0.231 1.265,0.316 1.39,-1.929l-4.232 0.016c-0.941,-0.076 -2.181,-0.218 -3.118,-0.19 -2.016,0.061 -1.822,0.373 -2.229,0.732 0.354,1.562 -0.531,1.575 4.952,1.225z"/>
   <polygon class="fil17" points="121.163,113.152 121.423,108.744 117.256,108.721 117.261,113.221 "/>
   <path class="fil20" d="M132.965 164.236c1.991,-0.3 3.024,0.714 4.012,1.68 -0.232,-1.361 -0.42,-2 -1.275,-2.699 -0.926,-0.758 -2.142,-0.774 -2.898,-1.506 -1.9,-0.485 -2.09,0.589 -4.011,1.352 0.777,1.441 1.765,1.839 2.825,2.525l0.545 -0.514c0.059,-0.06 0.203,-0.204 0.269,-0.271 0.066,-0.068 0.207,-0.22 0.267,-0.282 0.06,-0.062 0.175,-0.193 0.266,-0.285z"/>
   <path class="fil19" d="M180.597 88.458l2.732 -0.365c1.036,-0.29 0.458,-0.078 1.075,-0.552 -2.236,0.005 -2.997,0.719 -3.235,-1.129l3.235 0.009 0.064 -1.601c-1.425,-0.044 -2.837,-0.047 -4.262,-0.088 -3.628,-0.104 -2.897,0.231 -3.263,1.077 0.675,0.499 -0.252,0.323 1.46,0.614 0.241,0.041 1.529,-0.012 1.863,-0.012 -0.228,1.325 0.947,0.819 -3.325,1.683l3.656 0.364z"/>
   <path class="fil20" d="M132.515 170.164c1.357,-0.452 2.663,-1.161 3.472,-2.227l-3.206 -2.219 -0.403 1.621c-2.257,-0.049 -3.729,-0.771 -4.624,-2.022 0.756,4.983 3.823,2.579 4.761,4.847z"/>
   <path class="fil42" d="M88.848 53.909c-1.917,0.064 -0.398,0.121 -1.009,-0.482l0 -4.222c2.651,0.503 1.917,0.523 1.87,3.964 -1.575,0.6 -0.302,0.154 -0.861,0.74zm-1.612 0.191c-1.155,-0.763 -1.72,-0.488 -1.76,-2.557 -0.05,-2.619 -0.035,-1.558 1.667,-2.33l0.093 4.887zm-2.475 -1.153c1.695,0.925 1.03,1.489 3.652,1.44l0.435 -0.478 1.739 -0.934 -0.022 -4.222c-0.974,-0.102 -2.168,-0.336 -3.001,-0.304 -1.434,0.056 -0.812,0.366 -2.997,-0.1l0.194 4.598z"/>
   <polygon class="fil17" points="43.841,111.624 49.189,111.622 49.383,108.662 43.764,108.702 "/>
   <polygon class="fil21" points="121.163,113.152 125.005,113.14 124.89,108.8 121.423,108.744 "/>
   <path class="fil17" d="M151.772 136.225c-0.085,0.092 -0.24,0.074 -0.291,0.234 -0.05,0.16 -0.23,0.174 -0.299,0.219 -1.877,1.206 -1.503,0.478 -1.49,2.541 0.964,-0.762 0.29,-0.555 1.584,-0.696 0.034,0.405 -0.009,1.035 -0.007,1.063 0.006,0.064 0.024,0.234 0.031,0.295l1.71 -0.019c0.06,-3.775 2.645,-1.532 2.289,-5.07 -1.895,-0.346 -0.827,-0.324 -1.921,0.447 -1.464,1.031 0.385,0.489 -1.606,0.986z"/>
   <polygon class="fil43" points="15.695,67.613 20.547,67.698 20.558,64.59 19.113,64.589 15.694,64.712 "/>
   <path class="fil31" d="M121.817 27.094c0.892,0.192 3.665,0.942 4.333,0.941 -0.428,-1.024 -0.562,-0.977 -0.786,-1.899 -0.369,-1.518 0.146,-0.829 -0.533,-2.233 -2.686,-0.952 -3.336,0.299 -3.014,3.191z"/>
   <path class="fil19" d="M184.453 84.452l0.111 -1.692 -5.725 -0.081c-3.204,0.278 -0.885,-0.116 -1.896,0.783 0.407,0.916 -0.402,1.171 3.27,1.069 1.417,-0.039 2.823,-0.038 4.24,-0.079z"/>
   <polygon class="fil15" points="140.326,103.737 144.973,103.472 144.904,100.919 140.34,100.962 "/>
   <path class="fil17" d="M77.461 85.34c0.518,1.361 -0.255,1.198 3.752,1.178 5.834,-0.03 3.62,0.317 4.245,-1.178 -0.115,-0.058 -0.283,-0.271 -0.351,-0.155l-1.174 -0.292c-0.564,-0.061 -1.653,-0.011 -2.267,-0.01 -1.673,0.003 -2.858,-0.233 -4.205,0.457z"/>
   <polygon class="fil20" points="139.85,103.77 139.565,100.946 135.32,100.978 135.21,103.606 "/>
   <path class="fil19" d="M95.318 85.024l-2.808 -0.161c-1.493,-0.02 -3.742,-0.387 -4.985,0.477 0.197,0.669 -0.517,1.457 3.127,1.271 1.491,-0.076 3.019,-0.337 4.514,-0.522l0.152 -1.065z"/>
   <path class="fil26" d="M136.323 38.479l3.281 -0.016 0.041 3.169 -3.487 0 0.165 -3.153zm-0.33 4.3l4.324 0.115 -0.075 -4.857 -4.49 -0.027c-0.195,1.746 -0.371,3.219 0.241,4.769z"/>
   <path class="fil25" d="M129.589 38.484l3.244 0.014 0.058 3.131 -3.489 0.015 0.187 -3.16zm-0.52 4.149l4.224 0.19c0.432,-2.026 0.463,-2.89 -0.009,-4.753l-4.234 -0.022c-0.472,1.904 -0.45,2.758 0.019,4.585z"/>
   <polygon class="fil44" points="103.352,105.009 103.42,102.92 98.141,102.921 98.34,104.996 "/>
   <polygon class="fil45" points="136.158,41.632 139.645,41.632 139.604,38.463 136.323,38.479 "/>
   <polygon class="fil16" points="129.402,41.644 132.891,41.629 132.833,38.498 129.589,38.484 "/>
   <path class="fil46" d="M15.821 141.676c-2.2,-0.282 -1.203,-1.73 -2.639,0.442 1.385,0.424 1.054,0.046 2.744,-0.128 -0.334,2.671 -0.925,1.789 0.547,2.948 0.808,-2.14 0.298,-0.636 -0.024,-2.913 2.178,0.275 0.63,0.771 2.763,0.144 -1.348,-2.338 -0.577,-0.802 -2.646,-0.54 -0.094,-2.486 0.858,-1.628 -0.346,-3.058 -1.27,1.363 -0.376,0.811 -0.399,3.105z"/>
   <path class="fil33" d="M107.814 85.34c-1.306,-0.905 -4.824,-0.711 -6.055,0 0.467,1.895 1.127,1.209 3.321,1.214 2.414,0.006 2.279,0.634 2.734,-1.214z"/>
   <path class="fil19" d="M108.517 101.765c0.581,0.95 -0.159,0.852 3.298,0.839 1.806,-0.006 2.839,0.536 3.505,-0.839 -1.116,-0.98 -1.264,-0.635 -3.044,-0.649 -1.912,-0.014 -2.517,-0.297 -3.759,0.649z"/>
   <polygon class="fil47" points="139.611,104.21 135.369,104.388 135.297,107.339 138.166,106.458 "/>
   <path class="fil22" d="M123.449 101.286l-1.766 -0.086c-1.877,-0.116 -3.562,-0.544 -4.826,0.565 0.914,1.856 4.555,0.5 6.384,0.472l0.208 -0.951z"/>
   <path class="fil18" d="M88.848 53.909c0.559,-0.586 -0.714,-0.14 0.861,-0.74 0.047,-3.441 0.781,-3.461 -1.87,-3.964l0 4.222c0.611,0.603 -0.908,0.546 1.009,0.482z"/>
   <polygon class="fil29" points="60.241,61.204 62.416,61.304 62.418,58.009 60.267,58.043 "/>
   <path class="fil17" d="M87.236 54.1l-0.093 -4.887c-1.702,0.772 -1.717,-0.289 -1.667,2.33 0.04,2.069 0.605,1.794 1.76,2.557z"/>
   <path class="fil48" d="M40.693 158.432c-0.114,-2.651 -0.648,-1.578 -2.057,-3.318l1.822 -1.635c-1.629,0.681 -1.152,0.343 -1.849,1.62 -1.578,-1.214 -0.784,-1.133 -2.48,-1.648l2.936 4.131c0.015,0.011 1.433,0.725 1.628,0.85z"/>
   <path class="fil49" d="M175.683 64.323l0.084 -2.315 -2.748 0.108 -1.028 1.863c-0.013,0.01 -0.11,-0.001 -0.12,0.003 -0.024,0.01 -0.142,-0.134 -0.212,-0.133l4.024 0.474z"/>
   <path class="fil50" d="M166.595 169.778l2.017 0.794 -0.006 -3.77c-1.76,0.929 -1.202,0.95 -2.515,1.902l0.504 1.074z"/>
   <path class="fil42" d="M92.458 113.524c1.5,-0.523 1.206,-0.139 1.366,-1.904 -0.517,-0.837 -0.181,-0.511 -1.221,-0.848 -1.181,0.229 -1.207,0.489 -1.352,1.787l1.207 0.965z"/>
   <path class="fil51" d="M49.761 120.007c2.14,-0.327 0.769,0.359 1.345,-1.05l-1.38 -0.233 -2.66 0.233c0.695,1.295 0.691,0.847 2.695,1.05z"/>
   <path class="fil52" d="M165.551 168.473c1.429,-0.696 2.083,-0.96 2.519,-2.826l-3.124 -0.013c1.963,0.714 1.339,0.574 0.605,2.839z"/>
   <path class="fil27" d="M66.508 107.252c-1.417,-0.588 -0.231,-0.619 -1.855,0.01l0.252 1.656c1.584,0.621 2.25,0.14 1.603,-1.666z"/>
   <path class="fil20" d="M124.091 27.921c-0.66,0.055 -2.871,0.097 -1.478,1.607 1.367,1.482 1.439,-0.708 1.478,-1.607z"/>
   <path class="fil20" d="M124.106 21.514c-0.022,-0.013 0.015,-1.097 -1.382,-0.344 -0.483,0.26 -0.57,0.531 -0.334,1.078 0.743,1.724 1.431,0.425 1.716,-0.734z"/>
   <path class="fil20" d="M117.329 21.514c-0.038,-0.024 0.002,-1.099 -1.365,-0.362 -0.486,0.262 -0.576,0.534 -0.343,1.098 0.702,1.697 1.42,0.454 1.708,-0.736z"/>
   <path class="fil20" d="M117.338 25.738c-0.29,-1.12 -0.995,-2.458 -1.712,-0.727 -0.219,0.528 -0.156,0.864 0.339,1.094 1.496,0.695 1.366,-0.362 1.373,-0.367z"/>
   <path class="fil20" d="M119.865 29.805c1.317,-0.932 0.696,0.285 0.95,-1.78l-1.804 -0.021c0.06,2.46 -0.633,1.13 0.854,1.801z"/>
   <path class="fil20" d="M119.819 22.885l0.949 -0.349 -0.012 -1.419 -1.66 -0.073c-0.089,1.798 -0.656,1.022 0.723,1.841z"/>
   <path class="fil20" d="M120.702 26.134l0.105 -1.374 -1.027 -0.392c-1.394,0.937 -0.756,0.149 -0.682,1.787l1.604 -0.021z"/>
   <path class="fil10" d="M35.512 158.379c0.038,-0.021 1.192,-0.592 1.242,-0.614 0.494,-0.221 0.55,-0.19 1.057,-0.442 -0.405,-1.376 -0.001,-0.979 -1.354,-1.351 -0.493,1.313 -0.239,0.969 -0.945,2.407z"/>
   <path class="fil19" d="M115.591 28.266c0.175,2.609 1.835,1.504 1.728,0.413 -0.456,-0.435 0.962,-1.379 -1.728,-0.413z"/>
   <path class="fil26" d="M61.558 163.525l0.077 -0.111c0.935,0.151 0.99,-0.025 1.8,-0.483 -0.651,-0.401 0.964,-1.014 -1.062,-0.486 -1.251,0.327 -0.429,-0.14 -0.815,1.08z"/>
   <path class="fil5" d="M133.032 67.037c1.204,0.642 0.736,0.493 1.881,0 -0.866,-0.522 1.296,-0.595 -1.002,-0.416 -1.054,0.081 -0.409,0.069 -0.879,0.416z"/>
  </g>
 </g>
</svg>
