<?xml version="1.0" encoding="UTF-8"?>
<!DOCTYPE svg PUBLIC "-//W3C//DTD SVG 1.1//EN" "http://www.w3.org/Graphics/SVG/1.1/DTD/svg11.dtd">
<!-- Creator: CorelDRAW 2018 (64 Bit) -->
<svg xmlns="http://www.w3.org/2000/svg" xml:space="preserve" width="190px" height="185px" version="1.1" style="shape-rendering:geometricPrecision; text-rendering:geometricPrecision; image-rendering:optimizeQuality; fill-rule:evenodd; clip-rule:evenodd"
viewBox="0 0 190 185"
 xmlns:xlink="http://www.w3.org/1999/xlink"
 aria-hidden="true"
 focusable="false"
 data-prefix="fab"
 data-icon="suse"
 role="img">
 <defs>
  <style type="text/css">
   <![CDATA[
    .fil12 {fill:#102D62}
    .fil13 {fill:#133064}
    .fil3 {fill:#1B3263}
    .fil7 {fill:#334E5E}
    .fil9 {fill:#516082}
    .fil10 {fill:#5C6A8C}
    .fil6 {fill:#819AAB}
    .fil4 {fill:#8CA6B7}
    .fil5 {fill:#98B3BA}
    .fil8 {fill:#B1CBD4}
    .fil11 {fill:#B3CED4}
    .fil2 {fill:#D7D7D6}
    .fil15 {fill:#FAF9FA}
    .fil14 {fill:#FDFCFC}
    .fil1 {fill:#FFFEFE}
    .fil0 {fill:#6699FF;fill-rule:nonzero;fill-opacity:0.341176}
   ]]>
  </style>
 </defs>
 <g id="Camada_x0020_1">
  <metadata id="CorelCorpID_0Corel-Layer"/>
  <path class="fil0" d="M50.486 158.976c-6.947,-2.528 -13.2,-4.38 -18.757,-5.593 -5.559,-1.247 -10.475,-1.854 -14.777,-1.854 -2.485,0 -4.569,0.405 -6.172,1.248 -1.63,0.808 -2.431,1.819 -2.431,3.031 0,2.393 1.763,4.212 5.317,5.492 3.554,1.314 8.683,1.955 15.363,1.955 3.341,0 6.787,-0.338 10.341,-1.045 3.554,-0.708 7.241,-1.786 11.116,-3.234zm69.764 -69.542c12.585,-5.762 23.353,-12.365 32.304,-19.71 8.952,-7.379 16.459,-15.903 22.525,-25.573 2.031,-3.167 3.607,-6.232 4.729,-9.165 1.122,-2.965 1.683,-5.424 1.683,-7.412 0,-1.987 -0.4,-3.402 -1.202,-4.278 -0.829,-0.91 -2.164,-1.349 -4.034,-1.349 -6.894,0 -15.177,5.796 -24.823,17.42 -9.672,11.624 -20.04,28.302 -31.182,50.067zm-4.462 7.918c-9.299,17.958 -18.196,31.738 -26.693,41.273 -8.497,9.569 -17.662,16.206 -27.468,19.947 4.008,1.549 7.696,2.66 11.062,3.402 3.367,0.708 6.36,1.079 8.978,1.079 6.573,0 26.993,-3.34 32.898,-6.272 5.905,-2.931 31.506,-13.246 38.774,-20.321 1.148,-1.112 2.564,-2.595 4.301,-4.447 2.512,-2.696 4.417,-3.752 4.86,-4.514 0.188,-0.325 0.566,0.607 0.778,0.908 0.212,0.301 0.423,-0.014 -0.019,1.146 -0.265,0.698 -2.027,3.951 -3.336,5.567 -1.307,1.614 -2.149,2.385 -5.971,6.192 -7.214,7.142 -32.708,17.392 -38.452,20.188 -5.745,2.761 -26.164,6 -32.924,6 -4.169,0 -8.39,-0.539 -12.666,-1.584 -4.301,-1.044 -8.736,-2.661 -13.332,-4.851 -4.383,2.19 -8.898,3.807 -13.548,4.851 -4.676,1.045 -9.538,1.584 -14.588,1.584 -7.776,0 -13.707,-0.943 -17.795,-2.864 -4.089,-1.921 -6.146,-4.751 -6.146,-8.423 0,-3.133 1.203,-5.424 3.634,-6.907 2.431,-1.483 6.092,-2.223 10.981,-2.223 4.864,0 10.341,0.774 16.433,2.324 6.092,1.549 12.585,3.875 19.479,6.974 7.454,-4.514 14.829,-11.084 22.07,-19.676 7.268,-8.593 14.829,-19.778 22.658,-33.524l-21.001 5.424 -1.63 0.472c-4.222,1.077 -6.68,1.584 -7.375,1.584 -0.935,0 -1.656,-0.169 -2.137,-0.472 -0.508,-0.338 -0.748,-0.809 -0.748,-1.415 0,-1.483 4.355,-3.201 13.038,-5.122 8.684,-1.887 16.727,-4.144 24.128,-6.705 15.604,-26.516 29.419,-46.395 41.416,-59.601 11.997,-13.242 22.177,-19.846 30.593,-19.846 3.073,0 5.425,0.943 7.028,2.797 1.63,1.887 2.432,4.65 2.432,8.255 0,10.276 -6.226,21.563 -18.651,33.894 -12.451,12.332 -29.471,23.99 -51.061,34.906z"/>
  <g id="_2369202604400">
   <path class="fil1" d="M131.61 144.708c-2.654,-0.405 -4.268,-3.808 -6.196,-5.551 -13.403,8.37 -9.213,6.132 -16.333,-0.012 -9.59,6.258 -9.121,7.017 -12.784,3.018 -1.313,-1.433 -1.636,-1.665 -2.514,-3.091 -3.235,1.438 -7.045,5.443 -10.611,5.577 -2.276,-1.296 -3.076,-3.218 -5.632,-5.539 -8.677,4.394 -9.314,9.726 -15.726,-0.136 -3.706,1.459 -6.742,5.661 -10.925,5.577 1.131,-11.649 8.048,-33.697 6.674,-40.251 -0.911,-4.344 -1.934,-8.695 -2.823,-12.974 -3.223,-15.522 -3.891,-11.245 -0.703,-25.975 1.452,-6.708 3.43,-21.121 5.689,-26.731l80.365 0.069c-0.98,6.689 -7.813,35.146 -7.094,39.813l5.503 26.048c1.109,5.147 -6.125,38.767 -6.89,40.158z"/>
   <path class="fil1" d="M69.176 126.412c-0.24,-1.395 -0.657,-0.409 0.049,-2.418 0.496,-1.415 0.216,-1.021 1.556,-1.65l21.829 -0.13c-0.584,5.114 1.022,4.198 -10.001,4.198 -4.477,0 -8.955,0.014 -13.433,0zm0.162 -7.861c0.889,-5.504 0.253,-4.62 3.597,-4.879l20.826 0.098c-0.198,4.512 -0.419,4.882 -3.753,4.999l-20.67 -0.218zm52.112 5.173c-2.472,-1.129 -4.675,-3.148 -4.05,-7.252 0.877,-5.764 4.721,-2.723 5.528,-5.925l0.978 1.143c0.104,0.099 0.221,0.213 0.331,0.307 0.486,0.418 2.834,1.48 3.227,3.055 1.07,4.29 0.511,0.927 -0.36,2.284 -3.452,-0.948 0.069,-1.032 -3.569,-2.719l-0.652 6.326c2.684,2.105 5.813,3.253 4.128,8.867 -0.958,3.194 -3.389,3.303 -4.552,3.91 -1.603,0.837 -1.687,1.936 -2.371,2.653 0.386,-6.044 -3.581,-0.962 -4.278,-9.205 4.842,0.139 0.773,1.364 4.838,3.82l0.802 -7.264zm-62.507 -14.425l-6.822 34.063c3.167,-1.317 6.397,-4.551 9.622,-5.915 1.953,1.664 3.418,4.825 6.222,5.984 2.878,-1.615 7.211,-4.828 10.308,-5.89 1.393,2.159 3.368,3.733 4.701,5.927 3.497,-0.396 7.143,-4.47 10.899,-5.76 1.175,1.273 4.598,5.126 5.633,5.754 2.325,-0.691 7.502,-4.565 9.75,-5.968 7.886,7.553 3.458,7.935 16.381,0.031l5.452 5.932 6.787 -36.253c-1.761,0.349 -1.885,0.844 -3.878,0.826l-1.569 -0.089c-0.164,0 -0.643,0.029 -0.813,0.031l-5.39 0.011c-0.129,0.006 -0.291,0.03 -0.424,0.034l-29.972 0.002c-0.141,-0.006 -0.3,-0.026 -0.438,-0.034l-21.097 0.028c-0.155,-0.007 -0.314,-0.03 -0.466,-0.039l-5.235 0.057c-0.139,-0.005 -0.304,-0.028 -0.441,-0.036l-1.617 -0.094c-0.118,0 -0.281,0.016 -0.4,0.019l-6.056 -0.429c-0.812,3.038 -0.318,0.918 -1.137,1.808z"/>
   <path class="fil1" d="M67.725 68.129l0.647 -0.802c0.341,-2.908 1.145,-2.165 4.633,-2.098 8.778,0.167 44.055,-0.819 46.974,0.517 -0.063,4.436 -0.197,3.847 -4.09,3.825l-41.73 -0.062c-6.623,0.099 -5.443,0.504 -6.434,-1.38zm2.496 -12.393c8.747,-0.207 17.698,-0.034 26.468,-0.034 5.993,0 20.484,-0.71 25.614,0.39l-0.834 4.586 -52.296 -0.12 1.048 -4.822zm1.827 -9.136l52.237 0c-0.549,3.615 0.014,4.651 -3.878,4.856 -9.137,0.479 -38.362,-0.111 -49.016,-0.06l0.657 -4.796zm-18.735 29.028c1.229,1.148 -0.746,0.522 4.413,0.446l5.022 -0.13c0.125,0.006 0.29,0.026 0.415,0.031l10.906 0.192c0.08,-0.017 0.241,-0.087 0.328,-0.105 0.094,-0.02 0.26,-0.075 0.361,-0.093l2.5 -0.096c0.124,0.009 0.298,0.016 0.418,0.031l3.278 0.113c0.11,-0.015 0.282,-0.036 0.396,-0.045l4.534 0.006c0.117,0 0.279,-0.006 0.397,-0.006 0.123,0 0.287,-0.006 0.412,-0.005 0.128,0.001 0.293,-0.001 0.423,0.002l0.863 0.036c0.134,0.004 0.297,0.023 0.43,0.026 0.13,0.004 0.29,0.015 0.419,0.017 0.127,0.002 0.287,0 0.414,0l9.638 0.016c0.136,0.002 0.299,-0.006 0.432,-0.005l18.137 -0.053c0.118,-0.003 0.28,-0.018 0.398,-0.023l3.353 -0.024c0.135,0.004 0.301,0.006 0.434,0.011 0.13,0.005 0.296,0.014 0.424,0.019 0.17,0.008 0.65,0.049 0.812,0.055 0.11,0.004 0.272,0.016 0.381,0.018 0.105,0.002 0.266,0.003 0.371,0.003l6.795 0.58c0.867,0.409 0.16,-0.091 1.248,0.712 -0.181,-4.562 5.988,-29.379 7.032,-37.611l-77.491 -0.008c-1.602,0.443 -1.762,4.998 -2.492,8.28 -1.072,4.822 -5.564,25.336 -5.401,27.61z"/>
   <path class="fil2" d="M77.527 100.76c-4.724,0.001 -4.527,0.69 -5.688,-0.093 1.102,-0.711 -1.598,-0.666 2.276,-0.978l48.889 0.152 0.877 4.066 -46.349 -0.103c-5.211,0.11 -4.649,0.047 -5.338,-1.448l5.319 0.3c10.988,-0.018 38.222,0.485 45.412,-0.122 -1.687,-2.438 -0.158,-1.856 -4.799,-1.79l-40.599 0.016zm2.266 -5.729c-10.076,0.003 -9.789,1.735 -10.136,-4.946l51.92 0.477 1.018 4.469 -42.802 0zm-11.262 -9.574c-0.063,-0.15 -0.128,-0.338 -0.166,-0.458l-0.96 -4.028 42.239 -0.015c10.51,0 10.498,-1.21 10.699,3.94 -0.563,0.344 -0.507,0.375 -1.649,0.663 -0.691,0.174 -1.004,0.181 -1.709,0.223l-48.454 -0.325zm-9.588 23.842c0.819,-0.89 0.325,1.23 1.137,-1.808l6.056 0.429c0.119,-0.003 0.282,-0.019 0.4,-0.019l1.617 0.094c0.137,0.008 0.302,0.031 0.441,0.036l5.235 -0.057c0.152,0.009 0.311,0.032 0.466,0.039l21.097 -0.028c0.138,0.008 0.297,0.028 0.438,0.034l29.972 -0.002c0.133,-0.004 0.295,-0.028 0.424,-0.034l5.39 -0.011c0.17,-0.002 0.649,-0.031 0.813,-0.031l1.569 0.089c1.993,0.018 2.117,-0.477 3.878,-0.826l-6.211 -29.847c-1.088,-0.803 -0.381,-0.303 -1.248,-0.712l-6.795 -0.58c-0.105,0 -0.266,-0.001 -0.371,-0.003 -0.109,-0.002 -0.271,-0.014 -0.381,-0.018 -0.162,-0.006 -0.642,-0.047 -0.812,-0.055 -0.128,-0.005 -0.294,-0.014 -0.424,-0.019 -0.133,-0.005 -0.299,-0.007 -0.434,-0.011l-3.353 0.024c-0.118,0.005 -0.28,0.02 -0.398,0.023l-18.137 0.053c-0.133,-0.001 -0.296,0.007 -0.432,0.005l-9.638 -0.016c-0.127,0 -0.287,0.002 -0.414,0 -0.129,-0.002 -0.289,-0.013 -0.419,-0.017 -0.133,-0.003 -0.296,-0.022 -0.43,-0.026l-0.863 -0.036c-0.13,-0.003 -0.295,-0.001 -0.423,-0.002 -0.125,-0.001 -0.289,0.005 -0.412,0.005 -0.118,0 -0.28,0.006 -0.397,0.006l-4.534 -0.006c-0.114,0.009 -0.286,0.03 -0.396,0.045l-3.278 -0.113c-0.12,-0.015 -0.294,-0.022 -0.418,-0.031l-2.5 0.096c-0.101,0.018 -0.267,0.073 -0.361,0.093 -0.087,0.018 -0.248,0.088 -0.328,0.105l-10.906 -0.192c-0.125,-0.005 -0.29,-0.025 -0.415,-0.031l-5.022 0.13c-5.159,0.076 -3.184,0.702 -4.413,-0.446l-0.087 3.613c1.417,6.86 6.135,25.863 5.717,30.058z"/>
   <path class="fil3" d="M131.665 77.357l6.211 29.847 -6.787 36.253 -5.452 -5.932c-12.923,7.904 -8.495,7.522 -16.381,-0.031 -2.248,1.403 -7.425,5.277 -9.75,5.968 -1.035,-0.628 -4.458,-4.481 -5.633,-5.754 -3.756,1.29 -7.402,5.364 -10.899,5.76 -1.333,-2.194 -3.308,-3.768 -4.701,-5.927 -3.097,1.062 -7.43,4.275 -10.308,5.89 -2.804,-1.159 -4.269,-4.32 -6.222,-5.984 -3.225,1.364 -6.455,4.598 -9.622,5.915l6.822 -34.063c0.418,-4.195 -4.3,-23.198 -5.717,-30.058l0.087 -3.613c-0.163,-2.274 4.329,-22.788 5.401,-27.61 0.73,-3.282 0.89,-7.837 2.492,-8.28l77.491 0.008c-1.044,8.232 -7.213,33.049 -7.032,37.611zm-0.055 67.351c0.765,-1.391 7.999,-35.011 6.89,-40.158l-5.503 -26.048c-0.719,-4.667 6.114,-33.124 7.094,-39.813l-80.365 -0.069c-2.259,5.61 -4.237,20.023 -5.689,26.731 -3.188,14.73 -2.52,10.453 0.703,25.975 0.889,4.279 1.912,8.63 2.823,12.974 1.374,6.554 -5.543,28.602 -6.674,40.251 4.183,0.084 7.219,-4.118 10.925,-5.577 6.412,9.862 7.049,4.53 15.726,0.136 2.556,2.321 3.356,4.243 5.632,5.539 3.566,-0.134 7.376,-4.139 10.611,-5.577 0.878,1.426 1.201,1.658 2.514,3.091 3.663,3.999 3.194,3.24 12.784,-3.018 7.12,6.144 2.93,8.382 16.333,0.012 1.928,1.743 3.542,5.146 6.196,5.551z"/>
   <path class="fil4" d="M69.173 60.558l52.296 0.12 0.834 -4.586c-5.13,-1.1 -19.621,-0.39 -25.614,-0.39 -8.77,0 -17.721,-0.173 -26.468,0.034l-1.048 4.822z"/>
   <path class="fil5" d="M71.391 51.396c10.654,-0.051 39.879,0.539 49.016,0.06 3.892,-0.205 3.329,-1.241 3.878,-4.856l-52.237 0 -0.657 4.796z"/>
   <path class="fil6" d="M122.595 95.031l-1.018 -4.469 -51.92 -0.477c0.347,6.681 0.06,4.949 10.136,4.946l42.802 0z"/>
   <path class="fil4" d="M68.531 85.457l48.454 0.325c0.705,-0.042 1.018,-0.049 1.709,-0.223 1.142,-0.288 1.086,-0.319 1.649,-0.663 -0.201,-5.15 -0.189,-3.94 -10.699,-3.94l-42.239 0.015 0.96 4.028c0.038,0.12 0.103,0.308 0.166,0.458z"/>
   <path class="fil7" d="M122.35 124.596c3.505,0.745 4.361,5.72 -0.721,6.76l0.721 -6.76zm-0.626 -3.904c-0.906,-1.066 -2.112,-1.342 -1.979,-3.693 0.119,-2.093 1.174,-2.396 2.847,-2.77l-0.868 6.463zm-0.274 3.032l-0.802 7.264c-4.065,-2.456 0.004,-3.681 -4.838,-3.82 0.697,8.243 4.664,3.161 4.278,9.205 0.684,-0.717 0.768,-1.816 2.371,-2.653 1.163,-0.607 3.594,-0.716 4.552,-3.91 1.685,-5.614 -1.444,-6.762 -4.128,-8.867l0.652 -6.326c3.638,1.687 0.117,1.771 3.569,2.719 0.871,-1.357 1.43,2.006 0.36,-2.284 -0.393,-1.575 -2.741,-2.637 -3.227,-3.055 -0.11,-0.094 -0.227,-0.208 -0.331,-0.307l-0.978 -1.143c-0.807,3.202 -4.651,0.161 -5.528,5.925 -0.625,4.104 1.578,6.123 4.05,7.252z"/>
   <path class="fil8" d="M68.372 67.327l-0.647 0.802c6.237,0.523 47.817,1.094 51.086,-0.13l0.164 -2.027c-10.54,0.521 -27.49,0.078 -39.182,0.078 -2.483,0 -7.744,-0.519 -9.793,0.445 -3.74,1.761 0.74,2.137 -1.628,0.832z"/>
   <path class="fil4" d="M69.338 118.551l20.67 0.218c3.334,-0.117 3.555,-0.487 3.753,-4.999l-20.826 -0.098c-3.344,0.259 -2.708,-0.625 -3.597,4.879z"/>
   <path class="fil9" d="M71.839 100.667c1.161,0.783 0.964,0.094 5.688,0.093l40.599 -0.016c4.641,-0.066 3.112,-0.648 4.799,1.79 -7.19,0.607 -34.424,0.104 -45.412,0.122l-5.319 -0.3c0.689,1.495 0.127,1.558 5.338,1.448l46.349 0.103 -0.877 -4.066 -48.889 -0.152c-3.874,0.312 -1.174,0.267 -2.276,0.978z"/>
   <path class="fil10" d="M68.372 67.327c2.368,1.305 -2.112,0.929 1.628,-0.832 2.049,-0.964 7.31,-0.445 9.793,-0.445 11.692,0 28.642,0.443 39.182,-0.078l-0.164 2.027c-3.269,1.224 -44.849,0.653 -51.086,0.13 0.991,1.884 -0.189,1.479 6.434,1.38l41.73 0.062c3.893,0.022 4.027,0.611 4.09,-3.825 -2.919,-1.336 -38.196,-0.35 -46.974,-0.517 -3.488,-0.067 -4.292,-0.81 -4.633,2.098z"/>
   <path class="fil11" d="M82.046 125.533c9.665,0 9.125,0.959 9.484,-2.334 -4.077,0.107 -8.216,0.039 -12.3,0.039 -9.594,0 -9.396,-0.995 -9.248,2.344 3.957,-0.158 8.087,-0.049 12.064,-0.049z"/>
   <path class="fil9" d="M91.53 123.199c-0.359,3.293 0.181,2.334 -9.484,2.334 -3.977,0 -8.107,-0.109 -12.064,0.049 -0.148,-3.339 -0.346,-2.344 9.248,-2.344 4.084,0 8.223,0.068 12.3,-0.039zm-22.354 3.213c4.478,0.014 8.956,0 13.433,0 11.023,0 9.417,0.916 10.001,-4.198l-21.829 0.13c-1.34,0.629 -1.06,0.235 -1.556,1.65 -0.706,2.009 -0.289,1.023 -0.049,2.418z"/>
   <path class="fil12" d="M158.574 156.384c5.638,-2.492 19.762,-24.839 21.845,-34.687 -1.71,1.566 -3.827,7.838 -4.842,10.017 -6.753,14.512 -16.343,21.744 -17.003,24.67z"/>
   <path class="fil12" d="M9.581 63.302c1.963,-1.797 1.445,-2.111 2.584,-4.95 2.129,-5.304 4.28,-9.004 7.119,-13.706 4.255,-7.05 6.253,-8.494 10.682,-13.514 1.313,-1.487 1.081,-0.494 1.308,-2.441 -5.603,2.618 -19.713,24.934 -21.693,34.611z"/>
   <path class="fil13" d="M57.223 175.013l2.26 0c-2.033,-1.53 -8.806,-4.209 -15.007,-8.624 -1.574,-1.121 -2.06,-1.4 -3.603,-2.591l-6.341 -5.463c-1.052,-1.067 -1.855,-1.832 -3.256,-2.438 0.536,2.413 2.247,2.877 5.427,5.87 6.631,6.243 16.133,10.163 20.52,13.246z"/>
   <path class="fil13" d="M132.777 9.987l-2.26 0c2.092,1.573 10.27,4.831 18.294,10.967l9.723 8.035c-0.372,-3.683 -15.376,-13.166 -18.577,-14.994 -2.328,-1.33 -5.183,-2.604 -7.18,-4.008z"/>
   <path class="fil14" d="M121.629 131.356c5.082,-1.04 4.226,-6.015 0.721,-6.76l-0.721 6.76z"/>
   <path class="fil15" d="M121.724 120.692l0.868 -6.463c-1.673,0.374 -2.728,0.677 -2.847,2.77 -0.133,2.351 1.073,2.627 1.979,3.693z"/>
  </g>
 </g>
</svg>
